<?xml version="1.0" encoding="UTF-8" standalone="no"?>
<svg
   enable-background="new 0 0 88.98 100.18"
   viewBox="0 0 88.98 100.18"
   version="1.1"
   id="svg376"
   sodipodi:docname="dove.svg"
   inkscape:version="1.1 (c68e22c387, 2021-05-23)"
   xmlns:inkscape="http://www.inkscape.org/namespaces/inkscape"
   xmlns:sodipodi="http://sodipodi.sourceforge.net/DTD/sodipodi-0.dtd"
   xmlns="http://www.w3.org/2000/svg"
   xmlns:svg="http://www.w3.org/2000/svg">
  <defs
     id="defs380" />
  <sodipodi:namedview
     id="namedview378"
     pagecolor="#505050"
     bordercolor="#eeeeee"
     borderopacity="1"
     inkscape:pageshadow="0"
     inkscape:pageopacity="0"
     inkscape:pagecheckerboard="0"
     showgrid="false"
     inkscape:zoom="3.8880016"
     inkscape:cx="110.98246"
     inkscape:cy="71.630629"
     inkscape:window-width="1920"
     inkscape:window-height="991"
     inkscape:window-x="-9"
     inkscape:window-y="-9"
     inkscape:window-maximized="1"
     inkscape:current-layer="svg376" />
  <g
     id="g1488"
     transform="matrix(0.92753623,0,0,0.92753623,3.7379485,4.1436891)">
    <path
       d="m 59.32,42.93 c 0.35,0.12 0.12,0.81 0.7,0.71 0.01,0.16 0.01,0.32 0.02,0.49 -0.04,0.04 -0.09,0.08 0,0 -0.08,0.08 -0.04,0.04 0,0 0.35,-0.24 0.45,-0.6 0.48,-0.99 0,-0.19 0.02,-0.37 0.24,-0.45 0.44,0.45 0.67,-0.04 0.95,-0.23 1.29,-0.89 2.64,-1.43 4.23,-0.81 0.24,0.1 0.54,0.04 0.82,0.06 0.71,0.41 1.39,0.85 1.95,1.46 0.12,0.53 0.63,0.92 0.53,1.52 l -0.02,0.01 c -0.13,-0.07 -0.22,-0.02 -0.28,0.11 -0.35,0.2 -0.62,0.48 -0.84,0.8 -0.51,0.73 -0.47,1.48 0.11,2.24 0.42,0.73 0.85,1.45 1.89,1.03 0.15,0.04 0.32,0.03 0.46,0.27 -0.5,0.83 -0.38,1.84 -0.56,2.79 -0.25,1.33 0.18,2.58 0.32,3.86 0.04,0.39 0.17,0.78 0.53,1.02 0.33,0.46 0.54,0.95 0.48,1.55 -0.03,0.31 -0.02,0.65 0.06,0.95 0.41,1.53 0.4,3.13 0.09,4.6 -0.4,1.95 -0.59,4 -1.6,5.78 -0.88,1.55 -1.53,3.32 -3.36,4.1 -0.06,0.03 -0.1,0.12 -0.13,0.15 -0.21,0.31 0.25,0.53 -0.05,0.91 -3.85,3.78 -8.51,6.15 -14.18,6.84 -0.25,0.21 -0.67,0.35 -1.18,0.36 -1.85,0.04 -3.52,0.8 -5.21,1.43 -1.16,0.43 -2.14,1.24 -3.25,1.76 -1.35,0.64 -2.52,1.52 -3.48,2.6 -0.62,0.7 -1.8,1.07 -1.63,2.26 -0.3,0.32 -0.54,0.59 -0.84,0.92 0.08,0.29 0.07,0.57 -0.19,0.9 -0.6,0.78 -1.11,1.63 -1.69,2.43 -0.78,1.09 -2.57,1.57 -4.12,0.98 -0.62,-0.97 -0.88,-2.08 -0.72,-3.18 0.08,-0.54 0,-1 -0.07,-1.49 0.04,-0.03 0.08,-0.07 0.05,-0.05 0.02,-0.03 -0.01,0.01 -0.04,0.06 -0.28,-0.01 -0.56,-0.04 -0.79,0.23 -0.31,0.73 -0.49,1.61 -0.99,2.22 -0.51,0.62 -0.93,1.31 -1.48,1.91 -0.4,0.44 -0.91,0.92 -0.82,1.64 l 0.01,-0.01 c -0.6,0.07 -0.93,0.5 -1.32,0.9 -0.57,0.59 -1.16,1.23 -2.09,0.92 -1.44,-0.61 -1.23,-2.22 -1.99,-3.13 -0.02,-0.64 0.51,-1.18 0.01,-1.75 0.27,-0.16 0.55,-0.3 0.54,-0.62 -0.05,-0.98 0.43,-1.66 1.18,-2.2 0.37,-0.26 0.61,-0.58 0.44,-0.98 0.75,-0.5 1.16,-1.07 1.2,-2 -0.97,0.27 -1.88,0.38 -2.59,1.1 -0.88,0.89 -2.03,1.31 -3.18,1.67 -0.32,-0.25 -0.29,-0.69 -0.61,-0.9 -0.13,-0.41 -0.27,-0.82 -0.39,-1.24 -0.39,-1.33 0.1,-2.49 0.87,-3.49 0.71,-0.93 1.44,-1.89 2.51,-2.39 -0.03,-0.47 0.12,-0.88 -0.27,-1.16 -2.05,0.14 -3.85,0.94 -5.58,2.08 -0.28,-0.22 -0.68,-0.21 -0.92,-0.6 -0.09,-0.28 -0.07,-0.65 -0.23,-0.98 -0.24,-0.52 -0.11,-1.07 0.25,-1.45 0.8,-0.84 1.47,-1.81 2.6,-2.31 0.84,-0.37 1.6,-0.93 2.32,-1.36 -0.01,-0.38 -0.18,-0.47 -0.36,-0.57 -1.28,-0.72 -2.61,-0.43 -3.93,-0.19 0,-0.22 0,-0.44 0,-0.66 0.26,-0.19 0.11,-0.33 -0.08,-0.43 -0.76,-0.41 -1.52,-0.81 -2.27,-1.21 -0.08,-1.27 1.87,-2.92 3.06,-2.97 0.33,-0.01 0.73,0.15 0.97,-0.25 1.55,-0.05 3.09,-0.22 4.63,-0.3 0.9,-0.05 1.82,-0.07 2.72,-0.2 2.06,-0.31 4.15,-0.42 6.19,-0.92 0.53,-0.13 1.12,0.21 1.6,-0.22 0.43,-0.03 0.8,0.3 1.27,0.17 2.87,-0.81 5.91,-0.9 8.7,-2.09 1.42,-0.61 2.82,-1.22 4.2,-1.92 1.16,-0.45 2.29,-0.94 3.11,-1.94 0.8,-0.36 1.47,-0.88 2.05,-1.54 1.57,-1.81 2.94,-3.79 4.29,-5.76 0.43,-0.63 1,-1.24 1.09,-2.07 0.28,-0.16 0.31,-0.49 0.49,-0.71 0.22,-0.1 0.21,-0.32 0.24,-0.51 0.33,-2.06 1.12,-3.98 2.02,-5.83 0.61,-1.21 0.98,-2.39 0.86,-3.73 z m 4.81,6.25 c 1.05,-0.81 1.15,-1.7 0.55,-2.79 -0.6,-0.13 -1.04,-0.66 -1.52,-1.05 -0.49,-0.01 -0.93,-0.1 -1.49,0.14 -0.01,0.43 -0.44,0.75 -0.66,1.2 0.6,1.44 1.4,2.53 3.12,2.5 z M 22.82,72.66 c 1.19,-0.54 2.69,-0.21 3.65,-1.53 -1.85,-0.41 -3.42,-0.06 -5.07,0.65 0.46,0.49 0.92,0.63 1.42,0.88 z M 63.66,44.53 c 0.09,0.32 0.33,0.64 0.57,0.96 0.53,0.09 1.07,0.32 1.47,-0.17 0.34,-0.82 -0.14,-1.31 -0.56,-1.82 -0.34,-0.11 -0.68,-0.21 -1.14,0 -0.05,0.24 -0.38,0.45 -0.34,1.03 z M 27.74,70.12 c -0.28,0.27 -0.46,0.51 -0.44,0.91 1.36,0.65 2.28,-0.11 3.26,-1.06 -1.08,-0.87 -1.95,0.08 -2.82,0.15 z M 23,92.85 c -1.15,0.7 -1.37,1.88 -0.52,2.9 1.28,-0.28 0.58,-1.53 1.1,-2.13 C 23.4,93.32 23.36,93.03 23,92.85 Z M 17.49,71.77 c -0.34,0.24 -0.61,0.41 -0.59,0.78 0.84,0.83 1.52,0.85 2.67,0.08 -0.48,-0.78 -1.37,-0.57 -2.08,-0.86 z m 11.14,1.88 c -0.56,-0.94 -0.85,-0.95 -2.05,-0.22 -0.15,0.29 -0.2,0.58 0.05,0.86 0.36,0.1 0.71,0.08 1.09,0.01 0.27,-0.18 0.56,-0.39 0.91,-0.65 z m 23.05,-8.86 c -0.84,0.43 -2.02,0.32 -2.4,1.53 1.35,0.18 2.25,-0.35 2.4,-1.53 z M 18.93,87.24 c 1.06,-0.62 1.6,-1.76 1.3,-2.71 -0.97,0.65 -1.48,1.73 -1.3,2.71 z M 55.72,63.7 c -0.06,-0.56 0.57,-1.01 -0.1,-1.6 -0.07,0.79 -0.6,1.02 -1.13,1.14 -0.34,0.66 -0.34,0.66 -0.26,1.24 0.68,0.13 0.86,-0.64 1.49,-0.78 z M 21.16,75.82 c 0.51,-0.37 1.23,-0.36 1.3,-1.13 -1.25,-0.31 -1.64,-0.19 -2.19,0.68 0.21,0.28 0.58,0.22 0.89,0.45 z m 31.5,-14.39 c -0.55,-0.07 -0.82,0.41 -1.19,0.6 -0.2,0.6 -0.21,0.72 -0.11,1.22 1.29,-0.53 1.48,-0.78 1.3,-1.82 z m 4.52,-5.46 c -0.58,0.63 -1.22,1.24 -0.83,2.34 1.01,-0.56 1.15,-1.36 0.83,-2.34 z m -3.13,5.94 c 1.12,-0.69 1.4,-1.2 1.16,-1.97 -0.8,0.36 -1.1,0.98 -1.16,1.97 z M 32.1,93.11 c 0.58,-0.3 0.7,-0.69 0.78,-1.06 -0.15,-0.23 -0.28,-0.37 -0.56,-0.34 -0.53,0.33 -0.4,0.8 -0.22,1.4 z m 25.87,-33.8 c -0.29,0.28 -0.51,0.59 -0.47,1.02 0.33,0.12 0.59,0.16 0.81,-0.07 0.09,-0.36 0.1,-0.69 -0.34,-0.95 z"
       fill="#e5f3f9"
       id="path2" />
    <path
       d="m 2.92,29.73 h 0.24 c 0.61,0.35 1.35,0.37 1.92,0.82 0.57,0.44 1.22,0.61 1.91,0.59 0.36,-0.06 0.12,-0.57 0.61,-0.64 -0.1,0.31 -0.14,0.63 0.29,0.85 0.7,-0.4 1.73,0.15 2.44,-0.63 0,-0.16 0.02,-0.28 -0.01,-0.4 C 10.28,30.17 10.2,30.03 10.13,29.86 7.16,29.03 4.38,27.85 2.25,25.61 2.18,24.94 2.11,24.37 2.05,23.84 c 0.3,-0.17 0.5,0.21 0.76,-0.02 0.1,-0.17 0.21,-0.38 0.32,-0.59 1.79,1.25 3.35,1.31 4.32,0.18 C 7.18,23 5.93,22.06 5.32,21.86 3.83,21.36 2.6,20.6 2.07,19 1.95,18.63 1.7,18.31 1.48,17.93 1.8,17.45 1.66,16.87 1.72,16.32 2.04,15.84 2.6,15.51 2.67,14.86 3.82,14.82 4.37,15.7 5,16.42 c 0.23,0.27 0.35,0.62 0.79,0.56 0.4,1 1.01,1.77 2.15,1.96 0.13,0.03 0.22,0.11 0.25,0.25 0,0.25 0.07,0.47 0.28,0.61 0.98,0.68 1.87,1.51 3.09,1.79 l -0.01,-0.01 c 0.23,0.52 0.63,0.78 1.21,0.73 L 12.75,22.3 c 0.01,0.16 0.01,0.32 0.15,0.43 1.04,0.72 2.16,1.26 3.4,1.52 2.28,1.28 4.78,1.79 7.33,2.14 0.34,0.05 0.66,0 0.64,-0.47 0.07,0 0.14,-0.01 0.21,-0.01 0.08,0.09 0.17,0.17 0.25,0.26 0.26,0.55 0.75,0.47 1.22,0.43 1.54,0.13 2.98,0.74 4.41,1.17 1.39,0.42 2.7,1.25 4.18,1.85 0.34,0.5 1.16,0.65 1.53,1.25 1.85,0.26 2.83,1.93 4.47,2.57 0.01,0.38 0.37,0.55 0.72,0.76 0.8,0.47 1.45,1.11 2.01,1.84 1.43,1.85 2.49,3.95 4.03,5.72 0.1,0.12 0.16,0.28 0.21,0.43 0.41,1.16 1.09,2.18 1.69,3.23 0.85,1.47 1.8,2.9 2.83,4.24 0.66,0.86 1.21,1.87 2.21,2.44 0.03,0.33 0.14,0.59 0.5,0.66 0.08,0.1 0.17,0.2 0.25,0.3 -0.58,1.15 -1.18,2.28 -1.89,3.37 -0.7,1.06 -1.63,1.93 -2.27,3.04 -0.77,1.35 -1.92,2.39 -3.05,3.43 -0.84,0.76 -1.84,1.26 -2.88,1.67 -0.04,-0.05 -0.08,-0.11 -0.12,-0.16 -0.04,0.05 -0.09,0.1 -0.13,0.15 -0.07,0 -0.15,0 -0.22,0 -0.04,-0.05 -0.08,-0.1 -0.13,-0.15 -0.04,0.05 -0.08,0.11 -0.12,0.16 -0.29,-0.04 -0.49,0.15 -0.73,0.25 -0.7,-0.01 -1.3,0.27 -1.87,0.67 -0.22,-0.06 -0.45,-0.13 -0.74,-0.21 -0.85,0.91 -2.44,0.11 -3.12,1.42 -0.35,-0.21 -0.41,-0.62 -0.84,-0.65 -0.45,0.1 -0.95,0.21 -1.44,0.32 0.01,-0.08 0.01,-0.16 0.02,-0.23 -1.02,-0.04 -2.06,0.22 -3.16,0.06 -0.61,-0.61 -1.41,-1.09 -2.31,-1.26 -1.23,-0.23 -2.31,-0.88 -3.58,-1.04 -0.98,-0.12 -1.91,-0.43 -2.82,-0.05 -0.39,-0.18 -0.22,-0.8 -0.76,-0.72 0.04,-0.37 0.48,-0.37 0.61,-0.65 -0.52,-0.86 -1.61,-0.34 -2.26,-1 -0.2,-0.92 0.32,-1.6 1.01,-2.08 0.72,-0.5 1.41,-1.02 2,-1.51 0.62,-0.15 1.2,0.12 1.71,-0.21 0.03,-0.63 -0.39,-0.97 -0.78,-1.15 -0.7,-0.33 -1.46,-0.52 -2.2,-0.75 -0.98,-0.3 -2.05,-0.41 -2.89,-1.43 0.8,-0.86 1.45,-1.81 2.79,-1.77 0.24,0.33 0.48,0.34 0.72,0 0.27,-0.02 0.54,-0.03 0.77,-0.05 0.27,-0.31 0.15,-0.64 0.21,-0.94 0.15,0.09 0.31,0.18 0.46,0.27 0.07,0.36 -0.07,0.67 -0.24,0.96 -0.26,0.02 -0.55,-0.07 -0.77,0.14 0.27,0.04 0.58,0.24 0.77,-0.15 0.38,0.01 0.77,0.03 0.94,-0.48 -0.07,-0.15 -0.15,-0.32 -0.22,-0.48 0.01,-0.81 -0.95,-1.16 -0.85,-2.04 -0.64,0.03 -0.75,-0.55 -1.12,-0.77 -1.44,-0.86 -2.99,-1.33 -4.7,-1.27 -1.5,0.05 -2.83,-0.83 -4.46,-0.74 0.14,-0.64 0.52,-1.07 0.15,-1.5 0.37,-0.28 0.73,-0.47 0.89,-0.86 0.03,-0.08 0.06,-0.15 0.09,-0.23 0.35,-0.05 0.85,0.16 0.87,-0.48 0.54,-0.41 0.85,-0.9 0.55,-1.76 -1.16,0.31 -2.43,0.09 -3.43,0.73 -1.08,0.7 -2.38,0.81 -3.34,1.5 C 9,44.24 8.34,43.64 7.95,42.69 c 0.47,-0.12 0.39,-0.65 0.72,-0.98 1.49,0.04 3.06,0.17 4.44,-0.74 0.13,-0.26 0.16,-0.52 0.07,-0.68 C 12.08,39.49 10.83,39.73 9.7,39.45 8.54,39.16 7.44,38.79 6.28,38.22 6.26,37.37 6.16,36.47 5.55,35.73 l -0.01,0.01 c 0.65,0.04 1.29,-0.04 1.91,-0.25 0.1,-0.01 0.19,-0.01 0.29,-0.02 0.52,0 1.04,0.08 1.54,-0.01 0.86,-0.15 1.8,-0.23 2.21,-1.31 C 10.93,34.57 10.5,33.16 9.96,34.22 9.75,33.72 9.26,33.66 9.02,33.69 7.81,33.83 6.73,33.34 5.57,33.2 5.6,32.51 4.97,32.37 4.66,31.98 4.09,31.23 3.29,30.65 2.92,29.73 Z m 22.33,0.23 c 0.16,0.33 0.46,0.21 0.72,0.21 2.21,0.74 4.41,1.51 6.81,2.47 0.18,0.22 0.69,0.44 1.13,0.78 0.23,0.18 0.5,0.25 0.7,-0.09 0.26,0.61 0.75,1.01 1.29,1.36 0.29,0.19 0.58,0.38 0.86,0.56 2.66,2.46 5.01,5.23 7.75,7.78 0.05,-0.74 -0.17,-1.39 -0.68,-1.76 -1.25,-0.92 -1.98,-2.3 -3.17,-3.31 -1.09,-0.93 -2.06,-2.02 -3.17,-2.96 -0.8,-0.93 -1.8,-1.6 -2.89,-2.15 -0.08,-0.21 -0.29,-0.26 -0.46,-0.35 -2.59,-1.37 -5.3,-2.41 -8.18,-3 -0.16,-0.01 -0.32,-0.02 -0.48,-0.03 -0.25,-0.44 -0.48,-0.01 -0.73,0.02 -0.76,-0.92 -1.82,-0.68 -2.8,-0.77 0.76,0.84 1.91,0.74 2.81,1.22 0.17,0.01 0.33,0.02 0.49,0.02 z m -1.21,30 c -0.41,-0.41 -0.64,-0.29 -0.71,0.25 0.54,1.05 1.56,0.99 2.55,1.03 -0.51,-0.58 -1.03,-1.13 -1.84,-1.28 z M 46.12,47.49 46.18,47.43 C 46.14,47.39 46.1,47.34 46.07,47.3 46.05,47.32 46.03,47.34 46,47.37 l 0.13,0.13 c 0.2,1.07 1.23,2.22 2.05,2.28 -0.21,-0.83 -0.21,-0.83 -0.84,-1.13 0.03,-0.46 -0.15,-0.83 -0.47,-1.15 -0.28,0 -0.51,0 -0.75,-0.01 z M 15.88,40.28 c 0.73,0.67 1.68,0.62 2.64,1.03 -0.56,-1.62 -2.66,-2.4 -4.01,-1.7 0.25,0.64 0.78,0.72 1.37,0.67 z M 9.27,37.57 c 1.69,0.47 3.31,0.57 4.83,-0.47 -0.53,0.09 -1.17,0.28 -1.56,0.01 -0.97,-0.67 -2,-0.34 -3.01,-0.4 -0.1,-0.01 -0.21,0.09 -0.29,0.12 -0.09,0.23 -0.09,0.42 0.03,0.74 z m 14.07,16.55 c 0.44,1.17 2.17,1.92 3.5,1.6 -0.47,-1.08 -2.04,-1.83 -3.5,-1.6 z m -4.45,-9.33 c -0.44,0.23 -0.71,0.46 -1.18,0.34 -0.39,-0.09 -0.87,0.11 -0.83,0.72 1.09,0.29 3.05,0.27 4.01,-0.05 -0.48,-0.73 -1.36,-0.56 -2,-1.01 z M 4.68,25.06 c 0.02,1.46 1.2,2.3 2.71,2.17 C 6.93,25.99 5.76,25.75 4.68,25.06 Z M 29.4,62.79 c 0.92,0.53 1.57,1.72 3,1.38 -0.56,-0.95 -2.25,-2.11 -2.79,-1.93 -0.06,0.07 -0.15,0.15 -0.2,0.25 -0.03,0.07 -0.01,0.16 -0.01,0.3 z M 9.12,22.22 c -0.23,-0.84 -1.6,-1.89 -2.48,-1.98 0.37,1.23 1.04,1.78 2.48,1.98 z m 41.87,29.04 c -0.05,-0.46 -0.2,-0.8 -0.54,-1.07 -0.3,0.18 -0.41,0.44 -0.44,0.81 0.53,0.63 0.89,1.52 2.07,1.48 -0.14,-0.64 -0.29,-1.14 -1.09,-1.22 z M 4.27,16.85 C 3.35,17.67 3.73,18.33 5.32,19.07 5.29,18.14 4.23,17.86 4.27,16.85 Z"
       fill="#e5f3f9"
       id="path4" />
    <path
       d="m 54.26,52.05 c -1,-0.57 -1.55,-1.58 -2.21,-2.44 -1.04,-1.34 -1.99,-2.77 -2.83,-4.24 -0.6,-1.05 -1.28,-2.07 -1.69,-3.23 -0.05,-0.15 -0.11,-0.31 -0.21,-0.43 -1.54,-1.77 -2.61,-3.87 -4.03,-5.72 -0.56,-0.73 -1.21,-1.37 -2.01,-1.84 -0.35,-0.2 -0.71,-0.38 -0.72,-0.76 -1.63,-0.64 -2.62,-2.3 -4.47,-2.57 -0.37,-0.59 -1.2,-0.74 -1.53,-1.25 -1.48,-0.59 -2.79,-1.43 -4.18,-1.85 -1.44,-0.43 -2.88,-1.04 -4.41,-1.17 -0.18,-0.78 -0.8,-0.32 -1.22,-0.43 0,-0.26 0.11,-0.54 -0.17,-0.73 -0.52,-0.61 -0.5,-1.41 -0.71,-2.12 -0.21,-0.7 0.7,-1.22 0.29,-1.9 0.55,-0.69 1.23,-0.98 1.94,-1.1 0.1,-1.28 -0.53,-2.38 -0.39,-3.63 0.19,-1.76 0.96,-2.57 2.85,-2.65 0.3,-0.6 0.21,-1.4 0.85,-1.95 0.49,-0.24 1.1,-0.38 1.73,-0.37 0.26,-0.77 0.19,-1.52 0.19,-2.2 0,-1.03 0.53,-1.8 1.03,-2.52 0.8,-1.15 2,-1.45 3.37,-0.83 0.38,-1.38 0.61,-2.78 1.81,-3.72 0.57,-0.45 1.15,-0.84 1.85,-1.02 0.41,-0.05 0.63,0.34 0.98,0.47 0.72,-0.79 1.55,-1.37 2.39,-1.86 0.63,-0.07 1.13,0.35 1.69,0.18 0.4,0.46 0.57,1.03 1.08,1.26 0.09,0.4 0.18,0.75 0.25,1.07 -0.51,2.47 -1.68,4.7 -2.4,7.07 -0.68,2.22 -1.52,4.43 -1.34,6.83 0.28,3.74 0.88,7.4 2.77,10.72 0.39,2.01 2.14,2.91 3.48,4.1 1,0.89 1.96,1.85 2.99,2.72 0.33,0.28 0.78,0.22 1.04,0.63 0.29,0.46 0.78,0.79 1.16,1.2 0.36,0.39 0.83,0.61 1.24,0.91 0.6,0.44 1.18,0.95 1.61,1.54 0.28,0.38 0.6,0.6 0.89,0.71 0.92,1.29 1.57,2.6 2.1,3.97 0.11,1.34 -0.25,2.53 -0.85,3.75 -0.91,1.84 -1.7,3.76 -2.02,5.83 -0.03,0.19 -0.01,0.41 -0.24,0.51 -0.34,-0.03 -0.5,0.13 -0.5,0.47 -0.4,0.1 -0.44,-0.35 -0.7,-0.47 -0.08,-0.1 -0.17,-0.2 -0.25,-0.3 0,-0.32 0.01,-0.67 -0.5,-0.64 z M 37.7,11.72 c 0.34,-0.83 1.06,-1.53 0.78,-2.59 -0.7,0.56 -1.47,1.05 -1.5,2.09 -0.25,0.35 -0.49,0.7 -0.72,1.02 0.08,0.5 -0.16,0.99 0.37,1.48 0.36,-0.73 1.02,-1.18 1.07,-2 z m 12.74,24.49 c -0.04,-0.24 0.12,-0.56 -0.28,-0.66 -0.27,0.25 -0.21,0.5 -0.14,0.79 0.21,-0.06 0.32,-0.1 0.42,-0.13 0.01,1.09 1.22,0.97 1.59,1.66 0.46,-0.02 0.9,0.16 1.24,-0.19 -0.06,-0.22 -0.14,-0.4 -0.29,-0.41 -0.21,-0.01 -0.29,-0.03 -0.42,-0.25 -0.55,-0.93 -1.01,-1.08 -2.12,-0.81 z m 7.28,4.99 c -0.77,-0.29 -0.85,-0.96 -1.26,-1.38 -0.44,-0.45 -0.93,-0.8 -1.78,-0.96 0.74,1.41 1.41,2.63 2.17,3.77 0.29,0.05 0.53,0.11 0.63,0.01 0.44,-0.52 -0.57,-0.92 0.24,-1.44 z M 38.57,4.34 c -1.08,2.17 -1.09,2.24 -0.37,3.23 0.68,-0.63 1.41,-2.88 1.09,-3.39 -0.22,0.05 -0.45,0.1 -0.72,0.16 z m 6.79,27.98 c 0.8,1.49 1.88,2.23 3.46,2.71 C 48,33.58 47.25,32.42 45.36,32.32 Z M 30.07,15.53 c 0.04,1.33 0.49,2.16 1.42,2.38 -0.11,-1.19 -0.15,-2.32 -0.6,-3.58 -0.33,0.48 -0.55,0.8 -0.82,1.2 z m 3.9,-2.84 c 0.4,-1.19 0.8,-2.3 0.49,-3.66 -1.19,1.2 -1.39,2.79 -0.49,3.66 z m -5.42,4.35 c -0.89,0.24 -1.13,0.84 -0.99,2.17 0.31,0.11 0.63,0.15 0.99,0.07 0,-0.73 0,-1.43 0,-2.24 z m 4.77,1.31 c 0.48,-1.19 0.23,-2.42 -0.52,-2.95 -0.34,1.01 0,1.88 0.52,2.95 z m -3.31,2.08 c 0.28,0.74 0.4,1.55 1.41,1.84 -0.11,-0.91 -0.31,-1.69 -0.84,-2.33 -0.33,0.03 -0.42,0.21 -0.57,0.49 z M 41.25,4.85 C 40.92,4.73 40.7,4.72 40.47,4.87 40.01,5.48 40.05,6.14 40.25,7.03 40.6,6.6 40.83,6.32 41.07,6.03 41.05,5.61 40.82,5.19 41.25,4.85 Z M 27.98,20.03 c 0.1,0.16 0.2,0.32 0.44,0.28 0.22,-0.16 0.25,-0.33 0.06,-0.54 -0.2,0.04 -0.37,0.09 -0.5,0.26 z"
       fill="#97b6d4"
       id="path6" />
    <path
       d="m 29.79,90.68 c 0.07,0.49 0.15,0.95 0.07,1.49 -0.16,1.1 0.09,2.2 0.72,3.18 1.55,0.59 3.34,0.11 4.12,-0.98 0.57,-0.8 1.08,-1.65 1.69,-2.43 0.25,-0.33 0.27,-0.61 0.19,-0.9 0.3,-0.33 0.54,-0.59 0.84,-0.92 -0.17,-1.19 1.01,-1.56 1.63,-2.26 0.96,-1.08 2.13,-1.97 3.48,-2.6 1.11,-0.52 2.08,-1.33 3.25,-1.76 1.69,-0.63 3.36,-1.38 5.21,-1.43 0.51,-0.01 0.93,-0.15 1.18,-0.36 5.66,-0.69 10.33,-3.06 14.18,-6.84 0.3,-0.38 -0.17,-0.6 0.05,-0.91 0.02,-0.03 0.06,-0.12 0.13,-0.15 1.83,-0.79 2.48,-2.55 3.36,-4.1 1.01,-1.78 1.2,-3.84 1.6,-5.78 0.3,-1.47 0.31,-3.07 -0.09,-4.6 -0.08,-0.3 -0.09,-0.64 -0.06,-0.95 0.06,-0.59 -0.16,-1.08 -0.48,-1.55 0.12,-0.33 0.36,-0.48 0.71,-0.46 0.44,0.28 0.71,0.72 1,1.14 1.15,1.68 1.9,3.53 2.28,5.52 0.21,1.13 -0.09,2.27 -0.07,3.4 0,0.26 -0.11,0.55 -0.08,0.82 0.2,1.91 -0.54,3.64 -0.95,5.44 -0.17,0.74 -0.45,1.35 -0.9,1.93 -0.65,0.84 -1.02,1.85 -1.66,2.73 -1.2,1.66 -2.8,2.75 -4.36,3.98 -1.8,1.42 -3.93,1.93 -6.01,2.62 -0.94,0.31 -1.93,0.5 -2.93,0.48 -1.44,-0.03 -2.85,0.27 -4.28,0.31 -1.63,0.04 -3.25,0.3 -4.92,0.01 -1.94,-0.33 -3.74,0.26 -5.3,1.54 -1.29,1.06 -2.42,2.26 -3.48,3.53 -0.31,0.37 -0.6,0.74 -1.05,0.89 -1.86,3.21 -4.26,5.92 -7.28,8.1 -1.1,-0.09 -2.18,0.71 -3.26,-0.08 -0.97,-0.78 -1.27,-1.91 -1.44,-3.1 -0.56,0.23 -0.68,0.84 -1.16,1.07 -0.08,-0.72 0.42,-1.19 0.82,-1.64 0.55,-0.6 0.97,-1.29 1.48,-1.91 0.51,-0.61 0.68,-1.49 0.99,-2.22 0.23,-0.28 0.52,-0.24 0.79,-0.23 z M 70.68,71.17 c 1.13,0.31 1.13,-0.71 1.6,-1.11 -0.1,-0.53 0.26,-1.19 -0.68,-1.44 -0.3,0.82 -1.23,1.38 -0.92,2.55 z m -6.11,10 c 0.04,-0.34 0.08,-0.58 -0.17,-0.76 -0.38,-0.05 -0.78,-0.09 -1.18,0.04 -0.31,0.29 -0.63,0.58 -1,0.92 0.39,0.19 0.43,0.66 0.94,0.62 0.43,-0.23 0.9,-0.51 1.41,-0.82 z m 3.28,-2.44 c 0.26,-0.66 1.31,-0.58 1.29,-1.51 -0.26,-0.28 -0.55,-0.45 -0.96,-0.41 -0.3,0.28 -0.62,0.57 -0.91,0.84 0.16,0.58 0.16,0.58 0.58,1.08 z m 5.1,-10.99 c 0.89,-0.78 0.83,-1.54 -0.04,-2.21 -0.78,0.72 -0.22,1.39 0.04,2.21 z m -5.38,8.25 c 0.42,-0.39 1.05,-0.68 1.08,-1.46 -0.54,-0.37 -0.93,-0.05 -1.34,0.2 -0.03,0.34 -0.34,0.63 -0.24,0.98 0.12,0.16 0.22,0.28 0.5,0.28 z m 2.88,-1.22 c 0.64,0.16 0.84,-0.26 1.08,-0.6 -0.13,-0.33 -0.37,-0.35 -0.62,-0.46 -0.24,0.28 -0.64,0.46 -0.46,1.06 z m 1.52,-2.28 c -0.71,-0.03 -0.94,0.22 -0.83,0.85 0.67,0.11 0.91,-0.14 0.83,-0.85 z"
       fill="#9cbad3"
       id="path8" />
    <path
       d="m 14.19,76.03 c 1.32,-0.24 2.65,-0.53 3.93,0.19 0.18,0.1 0.35,0.19 0.36,0.57 -0.72,0.43 -1.48,0.98 -2.32,1.36 -1.13,0.5 -1.8,1.47 -2.6,2.31 -0.36,0.38 -0.48,0.93 -0.25,1.45 0.15,0.34 0.13,0.7 0.23,0.98 0.24,0.39 0.64,0.38 0.92,0.6 1.73,-1.14 3.54,-1.94 5.58,-2.08 0.39,0.28 0.24,0.7 0.27,1.16 -1.06,0.5 -1.79,1.46 -2.51,2.39 -0.77,1 -1.25,2.16 -0.87,3.49 0.12,0.42 0.26,0.82 0.39,1.24 -0.06,0.37 0.09,0.77 -0.13,1.13 -0.37,-0.09 -0.62,0.12 -0.86,0.35 -0.32,0.06 -0.71,-0.16 -0.93,0.25 -0.46,0.04 -0.74,-0.18 -0.83,-0.64 -0.28,0.08 -0.54,0.25 -0.81,0.03 -1.49,-1.83 -1.46,-4.39 1.1,-6.83 -0.02,-0.13 -0.09,-0.25 -0.21,-0.24 -1.19,0.12 -2.24,-0.31 -3.32,-0.7 -0.56,-0.2 -0.98,-0.47 -1.24,-0.99 0.35,-0.58 0.24,-0.87 -0.45,-1.21 -0.54,-0.92 0.08,-1.62 0.57,-2.21 1,-1.2 1.09,-1.08 1.75,-1.43 0.74,-0.39 1.36,-1.02 2.23,-1.17 z"
       fill="#9dbad4"
       id="path10" />
    <path
       d="m 22.84,63.08 c 0.54,-0.08 0.37,0.54 0.76,0.72 0.91,-0.38 1.84,-0.07 2.82,0.05 1.27,0.16 2.35,0.81 3.58,1.04 0.9,0.17 1.7,0.64 2.31,1.26 1.1,0.16 2.14,-0.1 3.16,-0.06 -0.01,0.08 -0.01,0.16 -0.02,0.23 0.5,-0.11 1,-0.22 1.44,-0.32 0.43,0.03 0.48,0.44 0.84,0.65 0.68,-1.3 2.27,-0.51 3.12,-1.42 0.29,0.08 0.52,0.15 0.74,0.21 0.57,-0.4 1.17,-0.68 1.87,-0.67 0.03,0.1 0.05,0.21 0.1,0.39 0.31,-0.16 0.66,-0.19 0.63,-0.64 0.08,0 0.16,0 0.24,-0.01 h 0.22 c 0.08,0 0.17,0 0.25,0.01 l 0.27,0.51 c -1.37,0.7 -2.78,1.31 -4.2,1.92 -2.79,1.2 -5.83,1.28 -8.7,2.09 -0.48,0.13 -0.84,-0.2 -1.27,-0.17 -0.16,-0.17 -0.32,-0.34 -0.48,-0.51 -1.12,-0.93 -2.1,-2.04 -3.4,-2.87 -0.52,-0.06 -1.1,-0.06 -1.68,0.1 -0.85,0.24 -1.74,0.2 -2.6,0.11 -1.51,-0.16 -2.09,-1.57 -1.21,-2.84 0.29,-0.18 0.59,-0.31 0.94,-0.27 0.03,0.21 0.03,0.42 0.27,0.49 z"
       fill="#9ebbd5"
       id="path12" />
    <path
       d="m 16.34,91.18 c 0.24,-0.23 0.49,-0.44 0.86,-0.35 0.23,-0.36 0.07,-0.76 0.13,-1.13 0.32,0.2 0.29,0.65 0.61,0.9 1.15,-0.37 2.3,-0.78 3.18,-1.67 0.71,-0.72 1.63,-0.83 2.59,-1.1 -0.05,0.92 -0.45,1.5 -1.2,2 0.17,0.4 -0.08,0.72 -0.44,0.98 -0.75,0.54 -1.24,1.22 -1.18,2.2 0.02,0.33 -0.27,0.46 -0.54,0.62 0.5,0.58 -0.04,1.12 -0.01,1.75 0.76,0.91 0.54,2.53 1.99,3.13 0.92,0.3 1.51,-0.33 2.09,-0.92 0.39,-0.4 0.72,-0.83 1.32,-0.9 -0.95,1.53 -2.02,2.9 -3.9,3.34 -2.54,0.6 -4.28,-0.6 -4.64,-2.37 -0.34,-1.7 -0.33,-3.51 0.8,-5.05 0.33,-0.46 0.55,-0.95 0.79,-1.54 -0.91,-0.35 -1.62,0.31 -2.41,0.33 -0.02,-0.08 -0.03,-0.15 -0.04,-0.22 z m 3.98,0.3 -0.04,0.06 0.06,0.01 z m -0.23,0.48 -0.04,0.06 0.06,0.01 z"
       fill="#a0bcd6"
       id="path14" />
    <path
       d="m 15.39,44.61 c -0.16,0.39 -0.52,0.58 -0.89,0.86 0.36,0.43 -0.01,0.86 -0.15,1.5 1.63,-0.09 2.95,0.79 4.46,0.74 1.71,-0.06 3.26,0.41 4.7,1.27 0.37,0.22 0.48,0.81 1.12,0.77 -0.11,0.88 0.86,1.23 0.85,2.04 -0.16,0 -0.31,0 -0.47,0 -0.15,-0.09 -0.31,-0.18 -0.46,-0.27 -0.25,-0.51 -0.84,-0.74 -1.01,-1.25 -1.15,-0.14 -2.09,-0.81 -3.19,-0.98 -0.56,-0.09 -1.07,-0.13 -1.64,-0.02 -1.3,0.26 -2.62,0.17 -3.92,0.07 -0.98,-0.08 -1.84,-0.53 -2.12,-1.52 -0.46,-0.57 0.35,-1.11 -0.11,-1.63 0.11,-0.17 0.28,-0.15 0.44,-0.16 0.47,-0.01 0.73,-0.23 0.73,-0.71 0.01,-0.37 0.18,-0.66 0.49,-0.97 0.32,0.31 0.75,0.25 1.17,0.26 z"
       fill="#a2bed6"
       id="path16" />
    <path
       d="m 3.15,23.22 c -0.11,0.21 -0.23,0.42 -0.32,0.59 -0.27,0.22 -0.47,-0.15 -0.76,0.02 0.06,0.54 0.12,1.1 0.2,1.77 2.13,2.24 4.91,3.41 7.88,4.25 0.07,0.18 0.15,0.31 0.19,0.46 0.03,0.11 0.01,0.24 0.01,0.4 -0.7,0.78 -1.73,0.23 -2.44,0.63 C 7.48,31.12 7.53,30.8 7.62,30.49 7.13,30.57 7.37,31.07 7.01,31.13 6.32,31.16 5.67,30.99 5.1,30.54 4.53,30.09 3.78,30.08 3.18,29.72 3.08,29.37 3.48,29.16 3.4,28.66 2.31,28.1 1.46,27.13 0.61,25.88 0.56,25.66 0.45,25.24 0.34,24.82 c 0.56,-1.6 0.74,-1.75 2.22,-1.81 0.21,0 0.45,-0.06 0.59,0.21 z"
       fill="#a2bed6"
       id="path18" />
    <path
       d="m 87.89,32.36 c -0.41,0.79 -0.8,1.61 -1.22,2.38 -0.9,1.67 -2.31,2.85 -4.38,2.9 -0.11,0 -0.26,-0.09 -0.33,-0.04 -1.49,0.93 -2.69,-0.05 -4.04,-0.55 0.04,-0.56 -0.35,-0.85 -0.67,-1.2 -0.39,-0.43 -0.93,-0.79 -0.88,-1.49 -0.01,-0.04 -0.01,-0.08 0.01,-0.12 0.2,0.04 0.37,0.02 0.47,-0.19 0.31,-0.01 0.62,-0.01 0.92,-0.02 l 0.25,0.25 c 1.51,1.55 3.03,1.74 4.99,0.69 0.71,-0.38 1.48,-0.44 2.26,-0.2 0.15,0.32 0.33,0.37 0.56,0.07 -0.18,-0.14 -0.38,-0.06 -0.58,-0.06 -0.04,-0.32 -0.08,-0.68 0.23,-0.86 0.84,-0.47 1.45,-1.28 2.41,-1.56 z"
       fill="#1cab88"
       id="path20" />
    <path
       d="m 85.27,34.78 c -0.78,-0.23 -1.56,-0.18 -2.26,0.2 -1.96,1.05 -3.48,0.86 -4.99,-0.69 -0.08,-0.08 -0.17,-0.17 -0.25,-0.25 0.01,-0.15 0.02,-0.31 0.03,-0.46 0.8,0.12 1.4,-0.44 1.82,-0.57 1.39,0.08 2.49,0.18 3.69,-0.09 -0.22,-0.26 -0.34,-0.41 -0.47,-0.55 h 1.21 c 0.33,0 0.55,-0.15 0.69,-0.45 0.28,0.05 0.28,0.51 0.73,0.41 0.25,-0.17 0.51,-0.47 0.92,-0.58 -0.32,-0.59 -0.62,-1.15 -0.92,-1.71 0.42,-0.04 0.64,0.48 1.23,0.36 0.33,-0.2 0.77,-0.58 1.43,-0.36 0.21,0.18 0.47,0.4 0.72,0.61 0.25,0.36 -0.11,0.75 0.12,1.1 -0.28,0.37 -0.63,0.58 -1.08,0.62 -0.96,0.28 -1.58,1.09 -2.41,1.57 -0.31,0.18 -0.27,0.54 -0.23,0.86 z"
       fill="#28deb7"
       id="path22" />
    <path
       d="m 15.39,44.61 c -0.42,-0.01 -0.85,0.06 -1.19,-0.25 -0.31,0.31 -0.48,0.6 -0.49,0.97 -0.3,0.18 -0.73,0.22 -0.73,0.71 -0.16,0 -0.34,-0.01 -0.44,0.16 -0.53,0.16 -1.06,0.34 -1.6,0.48 -2.08,0.54 -4.27,-0.96 -4.42,-3.07 0.36,-0.38 0.54,-1 1.19,-1.17 0.03,0.13 0.11,0.21 0.24,0.24 0.38,0.95 1.04,1.56 2.19,1.68 0.96,-0.7 2.26,-0.81 3.34,-1.5 1,-0.64 2.27,-0.42 3.43,-0.73 0.3,0.86 -0.01,1.35 -0.55,1.76 -0.48,0.06 -0.62,-0.38 -0.93,-0.66 -0.12,0.22 -0.46,0.15 -0.49,0.72 0,0.13 0.22,0.32 0.55,0.42 -0.04,0.08 -0.07,0.16 -0.1,0.24 z"
       fill="#9dbad4"
       id="path24" />
    <path
       d="m 73.03,18.43 c -0.58,-0.95 -1.17,-1.9 -1.96,-2.71 -0.14,-0.15 -0.14,-0.36 -0.06,-0.55 -2.18,-1.02 -1.21,-6.31 0.77,-7.48 0.21,-0.03 0.39,-0.03 0.47,0.18 -0.15,0.88 -0.51,1.75 -0.41,2.56 0.22,1.75 0.65,3.47 1.56,5.02 0.06,0.1 0.19,0.56 0.57,0.34 0.58,0.98 0.17,2.11 0.46,3.13 -0.24,-0.04 -0.39,-0.2 -0.48,-0.42 -0.21,-0.11 -0.37,0.04 -0.54,0.11 -0.05,-0.02 -0.09,-0.01 -0.14,0.02 h -0.01 c -0.01,-0.13 -0.1,-0.18 -0.23,-0.2 z M 70.87,12.3 c 0.04,0.28 0.11,0.37 0.29,0.29 0.04,-0.18 -0.08,-0.23 -0.29,-0.29 z"
       fill="#1dad8a"
       id="path26" />
    <path
       d="M 7.95,42.69 C 7.82,42.66 7.74,42.58 7.71,42.45 8.09,42.2 7.94,41.84 7.92,41.5 7.8,41.15 7.48,41.29 7.24,41.23 6.3,40.75 5.33,40.35 4.63,39.49 c -1,-1.24 -0.56,-3.12 0.92,-3.76 0.61,0.74 0.71,1.64 0.73,2.49 1.16,0.57 2.26,0.95 3.42,1.23 1.13,0.28 2.38,0.04 3.48,0.84 0.09,0.16 0.06,0.42 -0.07,0.68 -1.38,0.91 -2.95,0.79 -4.44,0.74 -0.33,0.32 -0.24,0.86 -0.72,0.98 z"
       fill="#a2bed6"
       id="path28" />
    <path
       d="m 68.2,30.98 c -0.01,0.19 -0.08,0.33 -0.25,0.42 -1.29,-0.36 -2.56,-0.78 -3.82,-0.74 -0.47,-0.2 -0.66,-0.63 -1.08,-0.68 -1.12,-0.15 -1.58,-1.07 -1.94,-1.89 -0.2,-0.46 -0.38,-0.98 -0.58,-1.46 0.74,-1 2.47,-1.36 3.84,-0.76 0.37,0.16 0.72,0.34 1.17,0.36 -0.05,0.09 -0.09,0.16 -0.2,0.34 0.62,0.04 1.1,0.36 1.59,0.63 0.83,0.45 1.43,1.73 1.26,2.53 -0.91,-0.52 -1.88,-0.92 -2.9,-1.15 0.19,-0.07 0.48,-0.01 0.43,-0.36 -0.09,-0.15 -0.25,-0.15 -0.39,-0.16 0.01,-0.49 -0.49,-0.58 -0.71,-0.94 -0.72,0.1 -1.38,-0.22 -2.06,-0.37 -0.32,0.36 -0.85,0.59 -0.45,1.26 0.46,-0.06 0.79,0.32 1.11,0.53 h 1.65 c 0.09,0.01 0.17,0.03 0.26,0.04 0.02,0.65 0.61,0.73 1.01,0.95 0.75,0.4 1.5,0.78 2.06,1.45 z m -4.15,-1.89 c -0.21,0.07 -0.32,0.14 -0.27,0.32 0.25,0.09 0.34,0.01 0.27,-0.32 z"
       fill="#2cdfb9"
       id="path30" />
    <path
       d="M 3.15,23.22 C 3.02,22.95 2.78,23.01 2.55,23.02 2.03,22.35 1.19,21.88 1.22,20.87 L 1.24,20.85 C 1.42,20.82 1.64,20.84 1.65,20.5 1.48,20.43 1.35,20.23 1.07,20.3 1.04,20.39 1.02,20.5 1,20.61 l -0.01,0.01 c -0.62,0.03 -0.51,-0.55 -0.61,-0.85 -0.46,-1.41 -0.61,-2.83 0.17,-4.2 0.34,0 0.48,-0.18 0.43,-0.51 h 0.6 c 0.18,-0.24 0.1,-0.6 0.41,-0.72 h 0.18 c 0.25,0.09 0.43,0.25 0.52,0.51 -0.07,0.64 -0.63,0.97 -0.95,1.46 -0.07,0.55 0.08,1.12 -0.24,1.61 0.22,0.39 0.47,0.71 0.59,1.07 0.53,1.6 1.76,2.36 3.25,2.86 0.62,0.21 1.86,1.14 2.13,1.55 -0.97,1.13 -2.54,1.07 -4.32,-0.18 z"
       fill="#a0bcd6"
       id="path32" />
    <path
       d="M 22.84,63.08 C 22.59,63 22.6,62.79 22.59,62.59 c -0.23,-0.4 -0.63,-0.19 -0.95,-0.24 -0.95,-0.32 -0.95,-0.32 -1.62,-1.12 -0.25,-1.08 0.25,-1.83 1.1,-2.42 0.78,-0.54 1.57,-1.07 2.43,-1.65 -0.79,-0.5 -1.6,-0.73 -2.47,-0.8 -0.28,-0.02 -0.57,0.01 -0.84,-0.04 -0.78,-0.15 -1.49,-0.45 -1.66,-1.33 -0.16,-0.81 0.27,-1.35 0.94,-1.76 0.54,-0.33 1.03,-0.74 1.52,-1.11 0.63,-0.09 1.23,-0.14 1.78,0.19 v 0.22 c -1.34,-0.04 -1.99,0.91 -2.79,1.77 0.83,1.02 1.91,1.13 2.89,1.43 0.74,0.23 1.5,0.42 2.2,0.75 0.4,0.19 0.81,0.52 0.78,1.15 -0.51,0.33 -1.09,0.06 -1.71,0.21 -0.59,0.49 -1.29,1.01 -2,1.51 -0.69,0.48 -1.21,1.16 -1.01,2.08 0.65,0.65 1.74,0.14 2.26,1 -0.12,0.28 -0.56,0.28 -0.6,0.65 z"
       fill="#a4bed7"
       id="path34" />
    <path
       d="M 68.2,30.98 C 67.65,30.31 66.89,29.93 66.15,29.51 65.74,29.28 65.16,29.2 65.14,28.56 l 0.07,-0.01 h 0.07 v 0.01 c 1.03,0.24 1.99,0.63 2.9,1.15 1.17,1.03 2.5,1.9 3.08,3.46 0.09,0.24 0.36,0.41 0.55,0.62 0.09,0.31 -0.35,0.74 0.22,0.95 0.38,0.32 0.38,0.78 0.48,1.21 0.02,0.19 0.03,0.38 0.05,0.65 0.38,-0.46 0.66,-0.94 1.06,-1.27 0.41,-0.34 0.73,-0.81 1.29,-0.95 0.03,0.19 0.07,0.37 0.34,0.3 0.17,-0.21 0.05,-0.32 -0.14,-0.41 0.57,-0.47 1.14,-0.94 1.71,-1.42 0,0.07 0.01,0.14 0.01,0.21 0.14,0.49 0.79,0.05 0.95,0.51 -0.01,0.15 -0.02,0.31 -0.03,0.46 -0.31,0.01 -0.62,0.01 -0.92,0.02 -0.07,-0.14 -0.16,-0.23 -0.33,-0.19 -0.14,0.09 -0.15,0.23 -0.13,0.38 -0.02,0.04 -0.02,0.08 -0.01,0.12 -2.08,1.25 -3.55,3.04 -4.59,5.2 -0.54,0.3 0.11,1.09 -0.59,1.4 -0.16,-0.54 -0.2,-1.02 0.06,-1.49 -0.53,-1.09 0.04,-2.09 0.31,-3.07 -0.51,-2.21 -1.53,-4.06 -3.35,-5.42 z"
       fill="#1d9377"
       id="path36" />
    <path
       d="m 60.52,26.62 c 0.2,0.49 0.38,1 0.58,1.46 0.36,0.82 0.82,1.75 1.94,1.89 0.42,0.06 0.61,0.49 1.08,0.68 1.26,-0.04 2.53,0.38 3.82,0.74 -0.89,1.65 -1.09,1.59 -2.97,1.56 -1.14,-0.02 -2.08,-0.21 -2.99,-0.85 -0.94,-0.66 -1.33,-1.7 -1.89,-2.62 -0.15,-0.25 -0.34,-0.52 -0.42,-0.8 0,-0.57 -0.02,-1.12 0.33,-1.59 0.1,-0.16 0.2,-0.32 0.29,-0.48 0.08,-0.01 0.15,-0.01 0.23,0.01 z"
       fill="#1cab88"
       id="path38" />
    <path
       d="m 88.35,21 c 0.18,0.6 -0.23,0.92 -0.64,1.12 -0.57,0.27 -0.93,0.71 -1.27,1.2 -1.06,1.51 -2.65,2.36 -4.19,3.2 -0.75,0.41 -1.75,0.14 -2.69,0.5 -0.3,-0.54 -1.36,-0.35 -1.28,-1.36 -0.03,-0.28 0.15,-0.49 0.24,-0.73 0.28,-0.1 0.33,-0.58 0.75,-0.45 0.17,0.31 0.32,0.22 0.47,-0.02 h 0.09 l 0.09,0.01 h 1.98 c 0.46,-0.31 0.95,-0.78 1.64,-0.44 0.04,-0.08 0.06,-0.18 0.12,-0.21 1.37,-0.83 2.68,-1.74 3.97,-2.68 0.18,-0.16 0.43,-0.44 0.72,-0.14 z m -8.04,4.52 c 0.29,0.2 0.46,0.13 0.55,-0.2 -0.34,-0.23 -0.44,0 -0.55,0.2 z"
       fill="#1dad8a"
       id="path40" />
    <path
       d="m 71.78,24.61 c -0.22,-0.12 -0.44,-0.25 -0.71,-0.21 -0.2,-0.79 -0.84,-1.14 -1.51,-1.3 -0.53,-0.12 -0.99,-0.34 -1.31,-0.71 -0.57,-0.66 -1.31,-1.12 -1.89,-1.74 -0.07,-1.24 -1.18,-2.09 -1.22,-3.34 0.71,-0.62 1.55,-0.41 2.25,-0.14 1,0.38 1.93,0.84 2.82,1.6 1.38,1.18 1.39,2.51 1.3,4.01 -0.87,-0.53 -1.53,-1.32 -2.35,-1.92 0.23,-0.03 0.48,0.05 0.71,-0.24 -0.21,-0.29 -0.18,-0.7 -0.24,-0.89 -0.59,-0.98 -1.63,-1.06 -2.2,-1.78 -0.38,0.08 -0.75,-0.09 -1.1,0.2 -0.01,0.13 -0.09,0.34 -0.02,0.43 0.62,0.79 1.18,1.69 2.32,1.79 0.33,0.03 0.53,0.13 0.52,0.49 -0.3,0.05 -0.56,-0.35 -1,0 1.02,1.03 2.05,2 3.19,2.85 0.04,0.35 0.53,0.48 0.44,0.9 z"
       fill="#31dfbb"
       id="path42" />
    <path
       d="m 88.35,21 c -0.3,-0.29 -0.54,-0.02 -0.73,0.12 -1.29,0.94 -2.6,1.85 -3.97,2.68 -0.06,0.04 -0.08,0.13 -0.12,0.21 -0.69,-0.34 -1.18,0.13 -1.64,0.44 -0.71,0 -1.35,0 -1.98,0 0.34,-0.43 0.86,-0.5 1.33,-0.62 0.49,-0.13 0.96,-0.24 1.34,-0.59 0.21,-0.02 0.49,0.05 0.4,-0.33 -0.07,-0.03 -0.16,-0.09 -0.2,-0.07 -0.09,0.05 -0.16,0.14 -0.24,0.21 -1.52,-0.24 -2.91,0.52 -4.34,0.51 -0.2,0.22 -0.1,0.55 -0.41,0.61 0.16,-0.73 0.32,-1.47 0.48,-2.2 0.07,-0.33 0.22,-0.59 0.61,-0.61 0.28,0 0.56,0 0.84,-0.01 -0.01,0.47 -0.86,0.72 -0.28,1.4 1.46,0.21 2.83,-0.57 4.3,-0.69 0.23,-0.02 0.42,-0.21 0.5,-0.55 -0.08,-0.15 -0.18,-0.36 -0.29,-0.56 -0.39,-0.18 -0.93,-0.03 -1.12,-0.56 1.35,-0.41 2.72,-0.47 4.12,-0.45 0.76,0.01 1.29,0.28 1.73,0.81 C 88.67,21 88.51,20.99 88.35,21 Z"
       fill="#2cdfb9"
       id="path44" />
    <path
       d="m 65.13,17.31 c 0.04,1.25 1.15,2.11 1.22,3.34 0.59,0.63 1.32,1.09 1.89,1.74 0.32,0.37 0.78,0.58 1.31,0.71 0.68,0.16 1.32,0.51 1.51,1.3 l -0.02,0.04 c -0.12,0.02 -0.18,0.09 -0.2,0.21 -0.51,0.72 -1.33,0.5 -1.9,0.36 -1.4,-0.33 -2.65,-1.06 -3.51,-2.29 -0.34,-0.48 -0.58,-1 -0.51,-1.65 0.06,-0.58 -0.2,-1.13 -0.42,-1.67 -0.39,-0.98 -0.21,-1.48 0.63,-2.09 z m 3.93,7.07 c 0.17,0.03 0.25,-0.05 0.26,-0.17 0,-0.06 -0.04,-0.16 -0.09,-0.18 -0.11,-0.05 -0.23,-0.01 -0.27,0.11 -0.04,0.12 0.02,0.21 0.1,0.24 z"
       fill="#1dad8a"
       id="path46" />
    <path
       d="m 2.92,29.73 c 0.37,0.92 1.17,1.5 1.76,2.25 0.31,0.39 0.94,0.52 0.91,1.22 1.16,0.14 2.24,0.63 3.45,0.49 0.24,-0.03 0.73,0.04 0.94,0.53 0.53,-1.06 0.97,0.36 1.53,-0.07 -0.4,1.08 -1.35,1.16 -2.21,1.31 C 8.8,35.55 8.27,35.47 7.76,35.47 7.73,35.28 7.71,35.1 7.67,34.8 6.95,35.15 6.47,34.44 5.81,34.53 4.95,33.98 3.99,33.61 3.24,32.89 2.56,32.23 2.1,31.51 2.21,30.51 2.26,30.03 2.42,29.74 2.92,29.73 Z"
       fill="#a2bed6"
       id="path48" />
    <path
       d="M 73.97,15.8 C 73.59,16.02 73.46,15.56 73.4,15.46 72.49,13.91 72.06,12.18 71.84,10.44 71.74,9.62 72.09,8.75 72.25,7.88 72.17,7.67 71.99,7.66 71.78,7.7 72.05,7.29 72.62,7.37 72.84,7.03 h 1.17 c 0.66,1.06 1.24,2.14 2.31,2.87 0.36,0.25 0.66,0.76 0.55,1.32 -0.16,0.17 -0.31,0.34 -0.47,0.51 -0.08,-0.01 -0.17,-0.01 -0.25,-0.02 -0.51,-1.62 -1.46,-2.82 -3.2,-3.34 -0.14,0.25 -0.43,0.43 -0.31,0.86 0.72,0.34 0.76,1.24 1.32,1.77 -0.29,0.33 -0.35,0.76 -0.46,1.16 -0.37,0.27 -0.18,0.61 -0.15,0.95 0.08,0.94 0.73,1.73 0.62,2.69 z"
       fill="#2cdfb9"
       id="path50" />
    <path
       d="m 84.06,32.36 c -0.4,0 -0.81,0 -1.21,0 -0.22,-0.04 -0.4,-0.16 -0.65,-0.18 -1.16,-0.12 -2.28,0.32 -3.44,0.19 0.01,-0.44 0.57,-0.76 0.26,-1.19 0.7,-0.83 1.81,-0.57 2.51,-1.22 h 3 c 0.24,-0.01 0.49,-0.02 0.73,-0.02 0.08,0.01 0.15,0.04 0.21,0.09 0.3,0.56 0.6,1.12 0.92,1.71 -0.41,0.11 -0.67,0.41 -0.92,0.58 -0.45,0.1 -0.45,-0.36 -0.73,-0.41 -0.33,-0.02 -0.7,-0.09 -0.68,0.45 z"
       fill="#07f9d7"
       id="path52" />
    <path
       d="m 74.92,24.93 c -0.03,0.4 0.13,0.79 0,1.19 0.07,0.31 0.14,0.61 0.21,0.92 l 0.01,0.05 c -0.12,0.02 -0.21,0.07 -0.23,0.21 l -0.02,0.02 c -0.3,0.14 -0.25,0.41 -0.25,0.66 -0.23,1.03 -0.37,2.09 -0.72,3.07 -0.38,1.05 -0.36,2.22 -1,3.19 -0.14,-0.08 -0.27,-0.17 -0.41,-0.25 0,-0.3 -0.01,-0.6 -0.01,-0.9 0.01,-1.31 0.6,-2.5 0.87,-3.76 0.19,-0.92 0.17,-1.69 -0.27,-2.48 -0.07,-0.13 -0.08,-0.3 -0.12,-0.45 0.15,-0.26 0.3,-0.31 0.5,-0.03 0.09,0.14 0.19,0.37 0.41,0.11 0.3,-0.56 0.15,-1.26 0.55,-1.79 0.04,-0.13 0.13,-0.2 0.25,-0.24 h 0.1 0.1 c 0.01,0.16 0.02,0.32 0.03,0.48 z"
       fill="#229277"
       id="path54" />
    <path
       d="m 15.87,70.51 c -0.24,0.4 -0.64,0.24 -0.97,0.25 -1.18,0.05 -3.14,1.69 -3.06,2.97 0.75,0.4 1.51,0.79 2.27,1.21 0.18,0.1 0.33,0.24 0.08,0.43 -0.53,-0.01 -1.11,0.19 -1.5,-0.38 -1.21,0.61 -2.35,-0.75 -2.29,-2.77 0.2,-0.32 0.54,-0.53 0.78,-0.86 0.65,-0.87 1.69,-0.95 2.66,-1.06 0.67,-0.08 1.36,0 2.04,0 -0.01,0.08 -0.01,0.15 -0.01,0.21 z"
       fill="#a8c2d8"
       id="path56" />
    <path
       d="m 70.1,48.88 c -1.05,0.42 -1.47,-0.3 -1.89,-1.03 0.03,-0.61 0.56,-0.64 0.95,-0.7 0.95,-0.16 1.72,-0.7 2.62,-1.02 -0.1,-0.28 -0.19,-0.5 -0.27,-0.71 0.03,-0.04 0.06,-0.07 0.1,-0.1 0.18,-0.01 0.37,-0.03 0.55,-0.04 0.57,0 0.99,0.22 1.22,0.77 -0.01,0.59 -0.63,0.78 -0.81,1.25 -0.23,0.31 -0.59,0.45 -0.9,0.65 -0.08,0.08 -0.15,0.15 -0.23,0.23 -0.56,0.02 -0.96,0.34 -1.34,0.7 z"
       fill="#99250b"
       id="path58" />
    <path
       d="m 76.38,11.74 c 0.16,-0.17 0.31,-0.34 0.47,-0.51 1.01,1.03 0.91,2.33 0.68,3.55 -0.15,0.81 -0.53,1.65 -1.23,2.23 -0.18,0.06 -0.2,0.21 -0.23,0.36 -0.01,0.07 -0.04,0.11 -0.11,0.13 -0.04,0.02 -0.06,0.06 -0.07,0.1 -0.02,0.07 -0.07,0.1 -0.15,0.09 -0.12,-0.09 -0.22,-0.23 -0.4,-0.19 -0.27,-0.37 -0.31,-0.78 -0.2,-1.21 0.3,-0.45 0.59,-0.9 0.88,-1.34 -0.37,-0.63 0.01,-1.12 0.17,-1.63 0.23,-0.03 0.45,0.16 0.56,-0.19 -0.64,-0.3 0.04,-0.98 -0.37,-1.39 z"
       fill="#1dad8a"
       id="path60" />
    <path
       d="m 71.51,45.42 c 0.08,0.22 0.17,0.44 0.27,0.71 -0.9,0.32 -1.68,0.85 -2.62,1.02 -0.39,0.07 -0.91,0.1 -0.95,0.7 -0.58,-0.76 -0.63,-1.52 -0.11,-2.24 0.23,-0.32 0.49,-0.61 0.84,-0.8 0.12,0.04 0.22,0.02 0.28,-0.11 l 0.02,-0.01 c 0.31,-0.04 0.62,-0.05 0.86,-0.3 0.25,0.08 0.49,0.16 0.74,0.24 -0.01,0.17 -0.05,0.36 0.17,0.44 0.17,0.02 0.26,-0.08 0.35,-0.19 0.23,0.06 0.2,0.27 0.25,0.44 -0.04,0.02 -0.07,0.06 -0.1,0.1 z"
       fill="#d63711"
       id="path62" />
    <path
       d="m 73.69,49.18 c 0.43,0.38 0.88,0.75 1.22,1.22 0.08,0.17 -0.12,0.45 0.19,0.56 0.02,-0.1 0.03,-0.17 0.05,-0.24 1,1.17 1.93,2.39 2.2,3.96 0.05,0.38 0.1,0.76 0.15,1.07 -0.14,0.35 -0.37,0.34 -0.61,0.35 -0.59,-2.03 -1.7,-3.78 -2.95,-5.46 0.05,-0.14 0.1,-0.28 0.18,-0.5 -0.27,0 -0.46,0 -0.66,0 -0.3,-0.15 -0.28,-0.5 -0.45,-0.73 0.22,-0.1 0.41,-0.28 0.68,-0.23 z"
       fill="#229277"
       id="path64" />
    <path
       d="m 82.84,20.39 c 0.19,0.53 0.73,0.38 1.12,0.56 0.1,0.2 0.21,0.41 0.29,0.56 -0.07,0.34 -0.27,0.53 -0.5,0.55 -1.47,0.12 -2.84,0.89 -4.3,0.69 -0.58,-0.68 0.27,-0.93 0.28,-1.4 0.5,-0.26 0.96,-0.62 1.59,-0.53 0.23,0.03 0.29,-0.21 0.33,-0.41 l 0.48,-0.03 c 0.16,-0.01 0.32,0.3 0.48,-0.01 0.08,-0.01 0.15,-0.01 0.23,0.02 z"
       fill="#07f9d7"
       id="path66" />
    <path
       d="m 15.87,70.51 c 0,-0.07 0,-0.13 0,-0.2 1.98,-0.35 3.94,-0.79 6,-0.58 1.14,0.11 2.33,-0.26 3.49,-0.47 1.17,-0.21 2.33,-0.43 3.51,-0.41 0.61,0.01 1.17,-0.09 1.65,-0.48 L 31,68.88 c -0.49,0.43 -1.08,0.09 -1.6,0.22 -2.03,0.5 -4.12,0.61 -6.19,0.92 -0.9,0.13 -1.82,0.15 -2.72,0.2 -1.53,0.08 -3.07,0.25 -4.62,0.29 z"
       fill="#b9cbdc"
       id="path68" />
    <path
       d="m 75.16,16.29 c -0.1,0.43 -0.07,0.84 0.2,1.21 0.01,0.15 0.02,0.29 0.03,0.44 l -0.03,0.03 c -0.06,-0.01 -0.13,0 -0.19,0.02 -0.48,0.39 -0.2,0.93 -0.26,1.39 -0.04,0.33 0.09,0.73 -0.45,0.75 -0.2,-0.39 -0.15,-0.79 -0.04,-1.19 -0.3,-1.02 0.12,-2.15 -0.46,-3.13 0.12,-0.97 -0.53,-1.76 -0.63,-2.68 -0.04,-0.35 -0.23,-0.68 0.15,-0.95 0.56,0.33 1.01,0.76 1.26,1.39 -0.1,0.16 -0.43,0.16 -0.39,0.49 0.1,0.04 0.21,0.07 0.31,0.11 0.08,0.31 -0.14,0.7 0.25,0.92 0.26,0.36 0.27,0.78 0.25,1.2 z"
       fill="#039876"
       id="path70" />
    <path
       d="m 84.53,29.96 c -1,0 -1.99,0 -3,0 -0.7,0.65 -1.81,0.39 -2.51,1.22 0.31,0.42 -0.25,0.74 -0.26,1.19 -0.57,0.41 -1.26,0.51 -1.91,0.69 -0.01,-0.07 -0.01,-0.14 -0.01,-0.21 0.33,-0.97 0.89,-1.77 1.7,-2.4 0.33,-0.01 0.69,0.03 0.72,-0.46 0.06,-0.04 0.12,-0.06 0.19,-0.06 0.56,0.07 1.05,-0.11 1.48,-0.47 0.08,0.01 0.15,0.01 0.23,0.01 0.7,-0.02 1.39,0.15 2.1,0.01 0.47,-0.08 0.93,0.09 1.27,0.48 z"
       fill="#31dfbb"
       id="path72" />
    <path
       d="M 71.61,45.31 C 71.56,45.15 71.59,44.94 71.36,44.87 71.17,44.8 71.12,44.64 71.09,44.46 70.73,42.99 70.72,41.5 70.8,40.01 c 0.01,-0.22 -0.12,-0.73 0.46,-0.54 -0.27,0.47 -0.23,0.95 -0.06,1.49 0.7,-0.31 0.05,-1.1 0.59,-1.4 0.04,1.64 0.01,3.29 0.15,4.93 0.02,0.29 0.15,0.52 0.23,0.77 -0.2,0.02 -0.38,0.04 -0.56,0.05 z"
       fill="#479781"
       id="path74" />
    <path
       d="m 70.1,48.88 c 0.38,-0.36 0.78,-0.68 1.34,-0.72 0.01,0.85 -0.36,1.62 -0.66,2.35 -0.49,1.18 -0.42,2.36 -0.28,3.53 0.09,0.75 0.5,1.48 1.05,2.06 0.1,0.11 0.15,0.16 0.02,0.26 -0.35,-0.01 -0.59,0.13 -0.71,0.46 -0.36,-0.24 -0.49,-0.63 -0.53,-1.02 -0.14,-1.28 -0.56,-2.53 -0.32,-3.86 0.18,-0.95 0.06,-1.96 0.56,-2.79 -0.15,-0.24 -0.32,-0.22 -0.47,-0.27 z"
       fill="#a8c2d8"
       id="path76" />
    <path
       d="m 24.28,25.89 c 0.02,0.47 -0.3,0.52 -0.64,0.47 -2.55,-0.35 -5.05,-0.85 -7.33,-2.14 0.18,-0.01 0.37,-0.02 0.55,-0.03 0.69,0 1.29,0.34 1.92,0.53 1.81,0.53 3.69,0.66 5.5,1.17 z"
       fill="#a8c2d8"
       id="path78" />
    <path
       d="m 82.58,23.23 c -0.38,0.34 -0.85,0.46 -1.34,0.59 -0.47,0.12 -0.99,0.19 -1.33,0.62 l -0.09,-0.01 h -0.09 c -0.16,0.01 -0.31,0.02 -0.47,0.02 -0.42,-0.13 -0.47,0.35 -0.75,0.45 -0.32,-0.34 -0.83,-0.14 -1.17,-0.42 0.01,-0.3 0.26,-0.28 0.45,-0.34 0.31,-0.06 0.21,-0.39 0.41,-0.61 1.43,0.01 2.82,-0.75 4.34,-0.51 0.03,0.09 0.04,0.15 0.04,0.21 z"
       fill="#039876"
       id="path80" />
    <path
       d="m 66.76,41.7 c -0.27,-0.02 -0.58,0.04 -0.82,-0.06 -1.59,-0.62 -2.94,-0.08 -4.23,0.81 -0.28,0.19 -0.5,0.68 -0.95,0.23 0.57,-0.73 1.34,-1.21 2.18,-1.64 1.09,-0.08 2.21,-0.5 3.36,-0.05 0.25,0.1 0.43,0.17 0.47,0.45 0,0.09 -0.01,0.18 -0.01,0.26 z"
       fill="#aec4da"
       id="path82" />
    <path
       d="m 77.35,24.5 c 0.34,0.28 0.85,0.08 1.17,0.42 -0.09,0.24 -0.27,0.45 -0.24,0.73 -0.35,-0.03 -0.36,-0.51 -0.75,-0.53 -0.73,0.71 -1.67,1.16 -2.38,1.93 -0.07,-0.31 -0.14,-0.61 -0.21,-0.92 0.12,0.01 0.32,0.05 0.34,0.01 0.37,-0.95 1.21,-1.3 2.07,-1.64 z"
       fill="#479781"
       id="path84" />
    <path
       d="M 2.68,14.85 C 2.59,14.59 2.41,14.44 2.16,14.34 c 0.02,-0.19 -0.01,-0.4 0.22,-0.63 1.06,-0.13 1.7,0.61 2.29,1.36 0.38,0.48 0.6,1.09 1.12,1.47 0,0.14 0,0.28 0.01,0.42 C 5.36,17.02 5.24,16.67 5.01,16.4 4.38,15.69 3.83,14.81 2.68,14.85 Z"
       fill="#aec4da"
       id="path86" />
    <path
       d="m 69.15,20.86 c 0.81,0.6 1.48,1.39 2.35,1.92 0.02,0.09 0.03,0.18 0.05,0.27 -0.03,0.23 0.11,0.52 -0.2,0.66 -1.14,-0.85 -2.17,-1.83 -3.19,-2.85 0.43,-0.36 0.69,0.05 0.99,0 z"
       fill="#039876"
       id="path88" />
    <path
       d="m 71.34,23.7 c 0.32,-0.14 0.17,-0.43 0.2,-0.66 0.96,1.02 1.84,2.1 2.34,3.43 -0.22,0.26 -0.32,0.02 -0.41,-0.11 -0.19,-0.28 -0.35,-0.23 -0.5,0.03 -0.48,-0.54 -0.65,-1.29 -1.2,-1.78 0.1,-0.42 -0.39,-0.55 -0.43,-0.91 z"
       fill="#479781"
       id="path90" />
    <path
       d="m 74.47,20.12 c 0.54,-0.02 0.41,-0.42 0.45,-0.75 0.06,-0.47 -0.22,-1 0.26,-1.39 -0.02,2.15 -0.04,4.31 -0.05,6.46 -0.01,0.19 -0.05,0.37 -0.21,0.49 -0.01,-0.16 -0.03,-0.33 -0.04,-0.49 0.01,-0.4 0.02,-0.8 0.04,-1.19 0.02,-0.3 -0.13,-0.44 -0.41,-0.48 -0.17,-0.88 -0.03,-1.76 -0.04,-2.65 z"
       fill="#479781"
       id="path92" />
    <path
       d="m 16.87,24.19 c -0.18,0.01 -0.37,0.02 -0.55,0.03 -1.25,-0.26 -2.36,-0.8 -3.4,-1.52 -0.15,-0.1 -0.14,-0.27 -0.15,-0.43 1.46,0.43 2.79,1.14 4.1,1.92 z"
       fill="#b9cbdc"
       id="path94" />
    <path
       d="m 73.69,49.18 c -0.27,-0.05 -0.45,0.13 -0.67,0.22 -0.69,-0.27 -0.77,-1.1 -1.35,-1.47 0.31,-0.2 0.67,-0.34 0.9,-0.65 0.19,0.74 0.79,1.24 1.12,1.9 z"
       fill="#479781"
       id="path96" />
    <path
       d="m 84.53,29.96 c -0.34,-0.39 -0.8,-0.56 -1.29,-0.47 -0.71,0.13 -1.4,-0.03 -2.1,-0.01 0.93,-0.8 2.03,-0.31 3.12,-0.46 0.17,0.48 0.78,0.47 1,0.92 -0.24,0.01 -0.48,0.01 -0.73,0.02 z"
       fill="#75e3ce"
       id="path98" />
    <path
       d="M 11.57,21.57 C 10.36,21.29 9.46,20.46 8.48,19.78 8.27,19.64 8.2,19.42 8.2,19.17 c 0.16,0.01 0.38,-0.04 0.46,0.05 0.85,0.92 2.15,1.3 2.91,2.35 z"
       fill="#aec4da"
       id="path100" />
    <path
       d="m 81.65,20.41 c -0.03,0.2 -0.09,0.44 -0.33,0.41 -0.63,-0.09 -1.09,0.27 -1.59,0.53 -0.28,0 -0.56,0 -0.84,0.01 0.02,-0.72 0.93,-0.41 0.95,-0.94 0.71,-0.01 1.26,-0.01 1.81,-0.01 z"
       fill="#28deb7"
       id="path102" />
    <path
       d="m 75.13,24.44 c 0.02,-2.15 0.04,-4.31 0.05,-6.46 0.06,-0.02 0.12,-0.03 0.19,-0.02 -0.2,1.99 -0.02,4 -0.13,5.99 -0.01,0.16 0.16,0.39 -0.11,0.49 z"
       fill="#31dfbb"
       id="path104" />
    <path
       d="m 5.8,16.97 c 0,-0.14 0,-0.28 -0.01,-0.42 0.49,0.5 0.9,1.06 1.48,1.49 0.28,0.2 0.7,0.4 0.68,0.89 C 6.81,18.74 6.2,17.97 5.8,16.97 Z"
       fill="#b9cbdc"
       id="path106" />
    <path
       d="m 66.76,41.7 c 0,-0.09 0.01,-0.17 0.01,-0.26 1.09,0.16 1.83,0.83 2.41,1.71 -0.16,0 -0.31,0 -0.47,0 -0.56,-0.59 -1.24,-1.03 -1.95,-1.45 z"
       fill="#a8c2d8"
       id="path108" />
    <path
       d="m 76.89,56.09 c 0.24,0 0.47,0 0.61,-0.35 -0.04,-0.31 -0.1,-0.69 -0.15,-1.07 0.76,0.72 0.35,1.43 0.12,2.17 -0.68,-0.02 -0.58,-0.42 -0.58,-0.75 z"
       fill="#97b6d4"
       id="path110" />
    <path
       d="m 68.71,43.16 h 0.47 c 0.53,0.24 0.5,0.89 0.92,1.22 -0.23,0.25 -0.55,0.27 -0.86,0.3 0.1,-0.6 -0.41,-0.99 -0.53,-1.52 z"
       fill="#aec4da"
       id="path112" />
    <path
       d="m 5.8,34.52 c 0.66,-0.09 1.14,0.62 1.86,0.27 0.04,0.3 0.07,0.48 0.09,0.67 -0.1,0.01 -0.19,0.01 -0.29,0.02 C 7.14,35.03 6.65,35.35 6.26,35.22 6.36,34.82 5.89,34.8 5.8,34.52 Z"
       fill="#d2e8f6"
       id="path114" />
    <path
       d="m 72.51,35.95 c -0.1,-0.43 -0.1,-0.89 -0.48,-1.21 0,-0.15 0,-0.3 0,-0.45 h 0.25 c 0,0 -0.01,-0.01 -0.01,-0.01 0.12,0.32 0.42,0.2 0.64,0.28 -0.2,0.45 -0.05,0.99 -0.4,1.39 z"
       fill="#479781"
       id="path116" />
    <path
       d="m 74.52,22.77 c 0.28,0.04 0.42,0.18 0.41,0.48 -0.02,0.4 -0.03,0.8 -0.04,1.19 h -0.1 -0.1 C 74.62,24.19 74.36,24 74.48,23.7 74.46,23.39 74.37,23.08 74.52,22.77 Z"
       fill="#1d9377"
       id="path118" />
    <path
       d="m 6.26,35.22 c 0.39,0.13 0.88,-0.19 1.2,0.26 -0.62,0.21 -1.26,0.29 -1.91,0.25 0,-0.08 -0.01,-0.16 -0.01,-0.24 0.14,-0.02 0.22,-0.1 0.28,-0.22 0.14,-0.02 0.29,-0.04 0.44,-0.05 z"
       fill="#a2bed6"
       id="path120" />
    <path
       d="m 9.64,80.85 c 0.7,0.33 0.81,0.63 0.45,1.21 C 9.53,81.81 9.65,81.3 9.64,80.85 Z"
       fill="#b9cbdc"
       id="path122" />
    <path
       d="m 1.99,14.34 c -0.31,0.11 -0.24,0.48 -0.41,0.72 -0.21,0 -0.41,0 -0.6,0 0.23,-0.38 0.12,-1.26 1.01,-0.72 z"
       fill="#aec4da"
       id="path124" />
    <path
       d="m 80.92,29.47 c -0.43,0.36 -0.91,0.54 -1.48,0.47 0.41,-0.44 0.87,-0.69 1.48,-0.47 z"
       fill="#75e3ce"
       id="path126" />
    <path
       d="m 12.77,22.29 c -0.58,0.05 -0.98,-0.21 -1.21,-0.73 0.5,0.07 0.93,0.27 1.21,0.73 z"
       fill="#aec4da"
       id="path128" />
    <path
       d="m 74.48,23.7 c -0.12,0.3 0.13,0.5 0.21,0.74 -0.12,0.03 -0.21,0.11 -0.25,0.24 -0.35,-0.34 -0.39,-0.67 0.04,-0.98 z"
       fill="#479781"
       id="path130" />
    <path
       d="m 16.34,91.18 c 0.01,0.07 0.02,0.15 0.03,0.22 -0.33,-0.15 -0.63,0.51 -0.96,0.03 0.22,-0.42 0.61,-0.19 0.93,-0.25 z"
       fill="#d2e8f6"
       id="path132" />
    <path
       d="m 72.51,33.08 c 0,0.3 0.01,0.6 0.01,0.9 -0.08,0.1 -0.17,0.2 -0.25,0.3 l 0.01,0.01 c -0.03,-0.18 -0.07,-0.37 -0.1,-0.55 0.11,-0.22 0.22,-0.44 0.33,-0.66 z"
       fill="#479781"
       id="path134" />
    <path
       d="m 60.04,44.13 c -0.01,-0.16 -0.01,-0.32 -0.02,-0.49 0.11,-0.22 0.26,-0.41 0.5,-0.5 -0.03,0.39 -0.14,0.75 -0.48,0.99 z"
       fill="#b9cbdc"
       id="path136" />
    <path
       d="m 79.25,30 c -0.03,0.49 -0.39,0.45 -0.72,0.46 0.14,-0.31 0.34,-0.53 0.72,-0.46 z"
       fill="#75e3ce"
       id="path138" />
    <path
       d="m 22.84,52.53 c 0,-0.07 0,-0.15 0,-0.22 0.28,-0.06 0.48,0.15 0.72,0.22 -0.24,0.34 -0.48,0.33 -0.72,0 z"
       fill="#b9cbdc"
       id="path140" />
    <path
       d="m 21.64,62.35 c 0.32,0.05 0.71,-0.16 0.95,0.24 -0.35,-0.04 -0.66,0.09 -0.94,0.27 0,-0.17 0,-0.34 -0.01,-0.51 z"
       fill="#e5f3f9"
       id="path142" />
    <path
       d="m 73.46,50.13 h 0.66 c -0.08,0.22 -0.13,0.36 -0.18,0.5 -0.24,-0.09 -0.36,-0.29 -0.48,-0.5 z"
       fill="#479781"
       id="path144" />
    <path
       d="m 72.04,34.3 v 0.45 c -0.57,-0.2 -0.13,-0.63 -0.22,-0.95 0.07,0.01 0.14,0.01 0.2,0 0.01,0.16 0.01,0.33 0.02,0.5 z"
       fill="#a8c2d8"
       id="path146" />
    <path
       d="m 71.09,44.47 c 0.03,0.18 0.08,0.34 0.27,0.41 -0.09,0.12 -0.19,0.22 -0.35,0.19 -0.22,-0.08 -0.18,-0.27 -0.17,-0.44 0.01,-0.17 0.13,-0.17 0.25,-0.16 z"
       fill="#f9a383"
       id="path148" />
    <path
       d="m 75.13,34.27 c 0.19,0.09 0.3,0.2 0.14,0.41 -0.26,0.07 -0.31,-0.11 -0.34,-0.3 0.04,-0.07 0.11,-0.11 0.2,-0.11 z"
       fill="#039876"
       id="path150" />
    <path
       d="m 72.27,34.28 c 0.08,-0.1 0.17,-0.2 0.25,-0.3 0.14,0.08 0.27,0.17 0.41,0.25 -0.01,0.11 -0.01,0.22 -0.02,0.33 -0.22,-0.08 -0.52,0.04 -0.64,-0.28 z"
       fill="#75e3ce"
       id="path152" />
    <path
       d="m 0.97,15.06 c 0.05,0.33 -0.09,0.5 -0.43,0.51 -0.03,-0.32 0.11,-0.49 0.43,-0.51 z"
       fill="#aec4da"
       id="path154" />
    <path
       d="m 24.57,25.41 c 0.28,0.19 0.17,0.47 0.17,0.73 -0.08,-0.09 -0.17,-0.17 -0.25,-0.26 0.03,-0.16 0.06,-0.31 0.08,-0.47 z"
       fill="#a8c2d8"
       id="path156" />
    <path
       d="m 60.29,26.62 c -0.1,0.16 -0.2,0.32 -0.29,0.48 -0.14,-0.1 -0.19,-0.22 -0.12,-0.39 0.11,-0.11 0.25,-0.12 0.41,-0.09 z"
       fill="#75e3ce"
       id="path158" />
    <path
       d="m 75.4,17.93 c -0.01,-0.15 -0.02,-0.29 -0.03,-0.44 0.18,-0.04 0.28,0.1 0.4,0.19 -0.05,0.21 -0.21,0.23 -0.37,0.25 z"
       fill="#31dfbb"
       id="path160" />
    <path
       d="M 7.25,41.23 C 7.49,41.29 7.81,41.15 7.93,41.5 7.68,41.46 7.37,41.58 7.25,41.23 Z"
       fill="#e5f3f9"
       id="path162" />
    <path
       d="m 74.65,27.98 c -0.01,-0.25 -0.05,-0.52 0.25,-0.66 -0.03,0.24 0.05,0.52 -0.25,0.66 z"
       fill="#75e3ce"
       id="path164" />
    <path
       d="m 75.14,50.72 c -0.01,0.07 -0.03,0.14 -0.05,0.24 -0.3,-0.11 -0.11,-0.39 -0.19,-0.56 0.2,0.02 0.25,0.15 0.24,0.32 z"
       fill="#479781"
       id="path166" />
    <path
       d="m 82.61,20.37 c -0.15,0.31 -0.32,0 -0.48,0.01 0.16,-0.2 0.32,-0.18 0.48,-0.01 z"
       fill="#2cdfb9"
       id="path168" />
    <path
       d="m 76.08,17.37 c 0.02,-0.15 0.05,-0.3 0.23,-0.36 -0.04,0.14 0.05,0.36 -0.23,0.36 z"
       fill="#31dfbb"
       id="path170" />
    <path
       d="M 5.81,35.26 C 5.76,35.38 5.67,35.46 5.53,35.48 5.36,35.07 5.72,35.33 5.81,35.26 Z"
       fill="#d2e8f6"
       id="path172" />
    <path
       d="m 72.04,34.3 c -0.01,-0.17 -0.01,-0.33 -0.02,-0.5 0.05,-0.03 0.1,-0.05 0.16,-0.06 0.03,0.18 0.07,0.37 0.1,0.55 -0.08,0 -0.16,0.01 -0.24,0.01 z"
       fill="#75e3ce"
       id="path174" />
    <path
       d="M 1.21,20.87 C 1.08,20.84 1,20.76 0.99,20.62 L 1,20.61 c 0.08,0.08 0.16,0.16 0.24,0.24 z"
       fill="#a0bcd6"
       id="path176" />
    <path
       d="m 70.85,24.65 c 0.02,-0.12 0.09,-0.19 0.2,-0.21 0.03,0.17 -0.07,0.21 -0.2,0.21 z"
       fill="#31dfbb"
       id="path178" />
    <path
       d="m 73.28,18.65 c 0.04,-0.03 0.09,-0.03 0.14,-0.02 0.03,0.09 0.06,0.19 -0.09,0.19 -0.02,-0.01 -0.03,-0.12 -0.05,-0.17 z"
       fill="#9cbad3"
       id="path180" />
    <path
       d="m 73.03,18.43 c 0.13,0.01 0.22,0.07 0.24,0.21 -0.17,0.03 -0.24,-0.05 -0.24,-0.21 z"
       fill="#9cbad3"
       id="path182" />
    <path
       d="m 75.91,17.6 c 0.01,-0.04 0.03,-0.08 0.07,-0.1 0.01,0.02 0.04,0.05 0.04,0.07 -0.02,0.08 -0.06,0.09 -0.11,0.03 z"
       fill="#31dfbb"
       id="path184" />
    <path
       d="m 74.91,27.3 c 0.02,-0.14 0.12,-0.18 0.23,-0.21 -0.01,0.14 -0.09,0.21 -0.23,0.21 z"
       fill="#75e3ce"
       id="path186" />
    <path
       d="m 64.13,49.18 c -1.72,0.03 -2.53,-1.07 -3.13,-2.5 0.22,-0.44 0.66,-0.76 0.66,-1.2 0.56,-0.24 1,-0.15 1.49,-0.14 0.48,0.39 0.92,0.92 1.52,1.05 0.61,1.09 0.51,1.98 -0.54,2.79 z"
       fill="#f9a383"
       id="path188" />
    <path
       d="m 55.01,53.01 c 0.26,0.11 0.29,0.56 0.7,0.47 0,0.08 0.01,0.16 0.01,0.25 -0.09,0.83 -0.66,1.44 -1.09,2.07 -1.35,1.98 -2.72,3.95 -4.29,5.76 -0.57,0.66 -1.25,1.18 -2.05,1.54 -0.2,-0.02 -0.4,-0.01 -0.49,-0.25 1.13,-1.04 2.28,-2.08 3.05,-3.43 0.63,-1.11 1.57,-1.97 2.27,-3.04 0.71,-1.09 1.31,-2.22 1.89,-3.37 z"
       fill="#a2bed6"
       id="path190" />
    <path
       d="m 22.82,72.66 c -0.5,-0.25 -0.96,-0.39 -1.42,-0.88 1.64,-0.71 3.22,-1.06 5.07,-0.65 -0.96,1.32 -2.46,0.99 -3.65,1.53 z"
       fill="#a2bed6"
       id="path192" />
    <path
       d="m 63.66,44.53 c -0.04,-0.58 0.29,-0.79 0.34,-1.03 0.46,-0.22 0.8,-0.11 1.14,0 0.42,0.52 0.9,1 0.56,1.82 -0.4,0.5 -0.94,0.27 -1.47,0.17 -0.25,-0.32 -0.48,-0.64 -0.57,-0.96 z"
       fill="#0c3c33"
       id="path194" />
    <path
       d="m 27.74,70.12 c 0.87,-0.06 1.74,-1.02 2.82,-0.14 -0.99,0.95 -1.9,1.7 -3.26,1.06 -0.01,-0.41 0.16,-0.66 0.44,-0.92 z"
       fill="#a8c2d8"
       id="path196" />
    <path
       d="m 23,92.85 c 0.36,0.18 0.4,0.47 0.58,0.78 -0.52,0.59 0.19,1.85 -1.1,2.13 -0.86,-1.03 -0.64,-2.21 0.52,-2.91 z"
       fill="#a4bed7"
       id="path198" />
    <path
       d="m 17.49,71.77 c 0.72,0.29 1.61,0.08 2.08,0.87 -1.14,0.77 -1.83,0.75 -2.67,-0.08 -0.02,-0.38 0.25,-0.55 0.59,-0.79 z"
       fill="#a8c2d8"
       id="path200" />
    <path
       d="m 28.63,73.65 c -0.35,0.25 -0.64,0.46 -0.9,0.65 -0.38,0.07 -0.73,0.08 -1.09,-0.01 -0.25,-0.28 -0.21,-0.57 -0.05,-0.86 1.19,-0.73 1.48,-0.71 2.04,0.22 z"
       fill="#a8c2d8"
       id="path202" />
    <path
       d="m 51.68,64.79 c -0.15,1.18 -1.05,1.71 -2.4,1.53 0.39,-1.21 1.56,-1.1 2.4,-1.53 z"
       fill="#aec4da"
       id="path204" />
    <path
       d="m 18.93,87.24 c -0.18,-0.97 0.34,-2.05 1.3,-2.71 0.3,0.95 -0.25,2.08 -1.3,2.71 z"
       fill="#aec4da"
       id="path206" />
    <path
       d="m 55.72,63.7 c -0.62,0.15 -0.8,0.91 -1.49,0.79 -0.08,-0.58 -0.08,-0.58 0.26,-1.24 0.53,-0.12 1.06,-0.35 1.13,-1.14 0.66,0.58 0.04,1.02 0.1,1.59 z"
       fill="#aec4da"
       id="path208" />
    <path
       d="m 21.16,75.82 c -0.31,-0.23 -0.68,-0.17 -0.88,-0.45 0.55,-0.87 0.94,-0.99 2.19,-0.68 -0.07,0.77 -0.8,0.76 -1.31,1.13 z"
       fill="#a8c2d8"
       id="path210" />
    <path
       d="m 47.8,62.85 c 0.09,0.23 0.29,0.23 0.49,0.25 -0.81,1 -1.95,1.49 -3.11,1.94 -0.09,-0.17 -0.18,-0.34 -0.27,-0.51 1.06,-0.42 2.05,-0.92 2.89,-1.68 z"
       fill="#b9cbdc"
       id="path212" />
    <path
       d="m 52.66,61.43 c 0.18,1.03 -0.01,1.29 -1.31,1.82 -0.09,-0.5 -0.08,-0.61 0.11,-1.22 0.39,-0.19 0.65,-0.66 1.2,-0.6 z"
       fill="#aec4da"
       id="path214" />
    <path
       d="m 57.18,55.97 c 0.32,0.98 0.18,1.78 -0.83,2.34 -0.39,-1.11 0.24,-1.71 0.83,-2.34 z"
       fill="#aec4da"
       id="path216" />
    <path
       d="m 54.05,61.91 c 0.06,-0.99 0.36,-1.61 1.16,-1.97 0.24,0.77 -0.04,1.28 -1.16,1.97 z"
       fill="#b9cbdc"
       id="path218" />
    <path
       d="m 32.1,93.11 c -0.18,-0.61 -0.3,-1.07 0.22,-1.4 0.28,-0.04 0.41,0.1 0.56,0.34 -0.08,0.38 -0.2,0.76 -0.78,1.06 z"
       fill="#b9cbdc"
       id="path220" />
    <path
       d="m 57.97,59.31 c 0.45,0.26 0.44,0.59 0.33,0.95 -0.22,0.23 -0.47,0.2 -0.81,0.07 -0.03,-0.43 0.18,-0.74 0.48,-1.02 z"
       fill="#b9cbdc"
       id="path222" />
    <path
       d="m 55.72,53.73 c 0,-0.08 -0.01,-0.16 -0.01,-0.25 0,-0.33 0.16,-0.49 0.5,-0.47 -0.18,0.23 -0.21,0.56 -0.49,0.72 z"
       fill="#a8c2d8"
       id="path224" />
    <path
       d="m 29.8,90.69 c 0.03,-0.04 0.07,-0.08 0.04,-0.06 0.03,-0.02 -0.01,0.01 -0.05,0.05 0,0 0.01,0.01 0.01,0.01 z"
       fill="#9cbad3"
       id="path226" />
    <path
       d="m 69.22,44.69 c -0.06,0.13 -0.16,0.15 -0.28,0.11 0.05,-0.13 0.14,-0.17 0.28,-0.11 z"
       fill="#aec4da"
       id="path228" />
    <path
       d="m 60.04,44.13 c -0.04,0.04 -0.08,0.08 0,0 -0.09,0.07 -0.05,0.03 0,0 z"
       fill="#b9cbdc"
       id="path230" />
    <path
       d="m 37.49,35 c 1.11,0.94 2.08,2.03 3.17,2.96 1.19,1.01 1.92,2.39 3.17,3.31 0.51,0.38 0.73,1.03 0.68,1.76 -2.74,-2.55 -5.09,-5.32 -7.75,-7.78 0.15,-0.33 0.46,-0.22 0.73,-0.25 z"
       fill="#aec4da"
       id="path232" />
    <path
       d="m 34.6,33.33 c -0.19,0.34 -0.47,0.26 -0.7,0.09 -0.44,-0.33 -0.95,-0.56 -1.13,-0.78 -2.4,-0.97 -4.6,-1.73 -6.81,-2.47 0,-0.22 0,-0.44 0,-0.66 2.87,0.59 5.58,1.63 8.18,3 0.17,0.09 0.38,0.14 0.46,0.35 z"
       fill="#a8c2d8"
       id="path234" />
    <path
       d="M 9.27,37.57 C 9.15,37.25 9.16,37.05 9.24,36.83 9.32,36.79 9.43,36.7 9.53,36.71 c 1.01,0.06 2.04,-0.27 3.01,0.4 0.39,0.27 1.03,0.08 1.56,-0.01 -1.53,1.04 -3.14,0.95 -4.83,0.47 z"
       fill="#a4bed7"
       id="path236" />
    <path
       d="m 23.34,54.12 c 1.46,-0.22 3.03,0.52 3.5,1.6 -1.34,0.32 -3.06,-0.43 -3.5,-1.6 z"
       fill="#aec4da"
       id="path238" />
    <path
       d="m 15.88,40.28 c -0.59,0.04 -1.12,-0.04 -1.37,-0.67 1.36,-0.7 3.45,0.08 4.01,1.7 -0.96,-0.41 -1.91,-0.36 -2.64,-1.03 0.06,-0.04 0.22,-0.02 0.09,-0.17 -0.03,0.07 -0.06,0.12 -0.09,0.17 z m 0.07,-0.6 0.06,0.04 0.01,-0.06 z"
       fill="#aec4da"
       id="path240" />
    <path
       d="m 18.89,44.79 c 0.63,0.45 1.52,0.27 1.99,1.01 -0.95,0.32 -2.92,0.34 -4.01,0.05 -0.04,-0.61 0.45,-0.81 0.83,-0.72 0.48,0.12 0.76,-0.11 1.19,-0.34 z"
       fill="#a4bed7"
       id="path242" />
    <path
       d="m 4.68,25.06 c 1.08,0.69 2.25,0.93 2.71,2.17 C 5.88,27.36 4.7,26.52 4.68,25.06 Z"
       fill="#aec4da"
       id="path244" />
    <path
       d="m 29.4,62.79 c 0,-0.14 -0.03,-0.23 0.01,-0.29 0.05,-0.1 0.14,-0.18 0.2,-0.25 0.54,-0.18 2.23,0.98 2.79,1.93 -1.43,0.33 -2.07,-0.86 -3,-1.39 z"
       fill="#a8c2d8"
       id="path246" />
    <path
       d="M 9.12,22.22 C 7.67,22.02 7,21.47 6.64,20.24 c 0.88,0.09 2.25,1.14 2.48,1.98 z"
       fill="#aec4da"
       id="path248" />
    <path
       d="m 34.6,33.33 c 0,-0.16 0,-0.32 -0.01,-0.48 1.09,0.55 2.09,1.21 2.89,2.15 -0.26,0.03 -0.58,-0.09 -0.73,0.25 -0.29,-0.19 -0.58,-0.38 -0.86,-0.56 -0.54,-0.35 -1.03,-0.75 -1.29,-1.36 z"
       fill="#b9cbdc"
       id="path250" />
    <path
       d="m 50.99,51.26 c 0.8,0.08 0.95,0.58 1.1,1.22 -1.18,0.04 -1.54,-0.85 -2.07,-1.48 0.02,-0.37 0.13,-0.63 0.44,-0.81 0.33,0.27 0.48,0.61 0.53,1.07 z"
       fill="#aec4da"
       id="path252" />
    <path
       d="m 46.12,47.5 h 0.73 c 0.33,0.31 0.5,0.69 0.47,1.15 0.63,0.3 0.63,0.3 0.84,1.13 -0.81,-0.06 -1.84,-1.21 -2.04,-2.28 z"
       fill="#aec4da"
       id="path254" />
    <path
       d="m 24.76,29.94 c -0.9,-0.48 -2.04,-0.38 -2.81,-1.22 0.98,0.09 2.04,-0.15 2.8,0.77 0.01,0.15 0.01,0.3 0.01,0.45 z"
       fill="#b9cbdc"
       id="path256" />
    <path
       d="m 24.04,59.96 c 0.82,0.15 1.34,0.7 1.84,1.29 -1,-0.05 -2.02,0.02 -2.55,-1.03 0.14,0.04 0.28,0.09 0.46,0.14 0.08,-0.14 0.16,-0.27 0.25,-0.4 z"
       fill="#aec4da"
       id="path258" />
    <path
       d="m 4.27,16.85 c -0.04,1.02 1.02,1.29 1.05,2.22 -1.6,-0.74 -1.98,-1.4 -1.05,-2.22 z"
       fill="#aec4da"
       id="path260" />
    <path
       d="m 15.49,44.38 c -0.33,-0.1 -0.55,-0.29 -0.55,-0.42 0.03,-0.57 0.37,-0.5 0.49,-0.72 0.32,0.28 0.46,0.72 0.93,0.66 -0.02,0.64 -0.52,0.42 -0.87,0.48 z"
       fill="#c7e1f6"
       id="path262" />
    <path
       d="m 25,51.81 h 0.47 c 0.08,0.17 0.16,0.33 0.22,0.48 -0.17,0.5 -0.55,0.49 -0.94,0.48 l 0.01,0.01 c 0.17,-0.31 0.31,-0.61 0.24,-0.97 z"
       fill="#b9cbdc"
       id="path264" />
    <path
       d="m 24.75,26.14 c 0.42,0.11 1.04,-0.36 1.22,0.43 -0.48,0.04 -0.96,0.12 -1.22,-0.43 z"
       fill="#a8c2d8"
       id="path266" />
    <path
       d="m 24.76,29.94 c 0,-0.15 -0.01,-0.3 -0.01,-0.45 0.24,-0.03 0.47,-0.46 0.73,-0.02 -0.01,0.2 -0.01,0.4 -0.24,0.49 -0.15,0 -0.31,-0.01 -0.48,-0.02 z"
       fill="#a8c2d8"
       id="path268" />
    <path
       d="m 24.04,59.96 c -0.08,0.13 -0.17,0.26 -0.26,0.4 -0.17,-0.05 -0.31,-0.1 -0.46,-0.14 0.08,-0.55 0.3,-0.67 0.72,-0.26 z"
       fill="#c7e1f6"
       id="path270" />
    <path
       d="m 25.25,29.96 c 0.23,-0.09 0.23,-0.29 0.24,-0.49 0.16,0.01 0.32,0.02 0.48,0.03 v 0.66 c -0.27,0.01 -0.56,0.13 -0.72,-0.2 z"
       fill="#aec4da"
       id="path272" />
    <path
       d="m 44.2,64.53 c 0.02,0.46 -0.32,0.49 -0.63,0.64 -0.05,-0.18 -0.07,-0.29 -0.1,-0.39 0.24,-0.1 0.44,-0.29 0.73,-0.25 z"
       fill="#b9cbdc"
       id="path274" />
    <path
       d="m 54.26,52.05 c 0.51,-0.04 0.5,0.31 0.5,0.66 -0.36,-0.07 -0.47,-0.33 -0.5,-0.66 z"
       fill="#a2bed6"
       id="path276" />
    <path
       d="m 24.75,52.76 c -0.19,0.39 -0.49,0.19 -0.77,0.15 0.23,-0.21 0.52,-0.12 0.77,-0.15 z"
       fill="#aec4da"
       id="path278" />
    <path
       d="m 44.92,64.52 c -0.08,0 -0.17,0 -0.25,-0.01 0.04,-0.05 0.09,-0.1 0.13,-0.15 0.04,0.06 0.08,0.11 0.12,0.16 z"
       fill="#b9cbdc"
       id="path280" />
    <path
       d="m 44.44,64.52 c -0.08,0 -0.16,0 -0.24,0.01 0.04,-0.05 0.08,-0.11 0.12,-0.16 0.04,0.05 0.08,0.1 0.12,0.15 z"
       fill="#b9cbdc"
       id="path282" />
    <path
       d="M 46.12,47.49 C 46.08,47.45 46.04,47.41 46,47.37 l 0.07,-0.07 c 0.04,0.04 0.08,0.09 0.11,0.13 -0.03,0.02 -0.04,0.04 -0.06,0.06 z"
       fill="#aec4da"
       id="path284" />
    <g
       fill="#d2e8f6"
       id="g300">
      <path
         d="m 57.72,41.2 c -0.8,0.52 0.21,0.92 -0.25,1.44 -0.1,0.1 -0.33,0.04 -0.63,-0.01 -0.76,-1.14 -1.44,-2.36 -2.17,-3.77 0.86,0.16 1.34,0.51 1.78,0.96 0.42,0.42 0.5,1.1 1.27,1.38 z"
         id="path286" />
      <path
         d="M 38.57,4.34 C 38.84,4.28 39.06,4.23 39.29,4.18 39.61,4.69 38.89,6.94 38.2,7.57 37.48,6.58 37.49,6.51 38.57,4.34 Z"
         id="path288" />
      <path
         d="m 45.36,32.32 c 1.89,0.11 2.63,1.26 3.46,2.71 -1.58,-0.49 -2.65,-1.22 -3.46,-2.71 z"
         id="path290" />
      <path
         d="m 30.07,15.53 c 0.27,-0.39 0.49,-0.72 0.82,-1.2 0.45,1.26 0.5,2.4 0.6,3.58 -0.93,-0.23 -1.38,-1.06 -1.42,-2.38 z"
         id="path292" />
      <path
         d="m 33.97,12.69 c -0.9,-0.87 -0.7,-2.46 0.49,-3.66 0.31,1.36 -0.09,2.47 -0.49,3.66 z"
         id="path294" />
      <path
         d="m 50.44,36.21 c 1.11,-0.27 1.57,-0.12 2.12,0.81 0.13,0.22 0.21,0.24 0.42,0.25 0.15,0.01 0.24,0.19 0.29,0.41 -0.33,0.35 -0.77,0.17 -1.24,0.19 -0.37,-0.68 -1.58,-0.57 -1.59,-1.66 z"
         id="path296" />
      <path
         d="m 36.98,11.22 c 0.03,-1.04 0.8,-1.53 1.5,-2.09 0.28,1.06 -0.45,1.77 -0.78,2.59 -0.2,0.05 -0.36,0.29 -0.66,0.09 C 37.03,11.65 37,11.43 36.98,11.22 Z"
         id="path298" />
    </g>
    <path
       d="m 28.55,17.04 v 2.23 c -0.36,0.09 -0.68,0.04 -0.99,-0.07 -0.14,-1.32 0.1,-1.92 0.99,-2.16 z"
       fill="#c7e1f6"
       id="path302" />
    <path
       d="M 33.32,18.35 C 32.8,17.28 32.46,16.41 32.8,15.4 c 0.75,0.53 1,1.76 0.52,2.95 z"
       fill="#d2e8f6"
       id="path304" />
    <path
       d="m 30.01,20.43 c 0.15,-0.29 0.24,-0.46 0.57,-0.49 0.53,0.64 0.73,1.42 0.84,2.33 -1.01,-0.28 -1.13,-1.09 -1.41,-1.84 z"
       fill="#c7e1f6"
       id="path306" />
    <path
       d="m 36.98,11.22 c 0.02,0.21 0.05,0.43 0.06,0.6 0.3,0.2 0.46,-0.05 0.66,-0.09 -0.06,0.82 -0.71,1.27 -1.07,2 -0.53,-0.5 -0.3,-0.99 -0.37,-1.48 0.23,-0.33 0.47,-0.68 0.72,-1.03 z"
       fill="#c7e1f6"
       id="path308" />
    <path
       d="M 41.25,4.85 C 40.83,5.19 41.05,5.6 41.08,6.02 40.84,6.31 40.61,6.6 40.26,7.02 40.05,6.13 40.02,5.47 40.48,4.86 40.69,4.73 40.92,4.73 41.25,4.85 Z"
       fill="#c7e1f6"
       id="path310" />
    <path
       d="m 50.44,36.21 c -0.11,0.04 -0.22,0.07 -0.42,0.14 -0.07,-0.29 -0.13,-0.54 0.14,-0.79 0.4,0.09 0.24,0.41 0.28,0.65 z"
       fill="#b9cbdc"
       id="path312" />
    <path
       d="m 27.98,20.03 c 0.13,-0.17 0.31,-0.22 0.5,-0.27 0.19,0.21 0.16,0.38 -0.06,0.54 -0.24,0.05 -0.34,-0.12 -0.44,-0.27 z"
       fill="#c7e1f6"
       id="path314" />
    <path
       d="m 70.68,71.17 c -0.32,-1.16 0.62,-1.73 0.93,-2.56 0.94,0.25 0.58,0.91 0.68,1.44 -0.48,0.41 -0.48,1.43 -1.61,1.12 z"
       fill="#d2e8f6"
       id="path316" />
    <path
       d="m 64.57,81.17 c -0.51,0.3 -0.98,0.58 -1.4,0.83 -0.51,0.04 -0.55,-0.43 -0.94,-0.62 0.36,-0.34 0.68,-0.63 1,-0.92 0.4,-0.14 0.79,-0.1 1.18,-0.04 0.25,0.18 0.2,0.42 0.16,0.75 z"
       fill="#d2e8f6"
       id="path318" />
    <path
       d="m 67.85,78.73 c -0.43,-0.5 -0.43,-0.5 -0.58,-1.08 0.3,-0.27 0.61,-0.56 0.91,-0.84 0.41,-0.04 0.7,0.13 0.96,0.41 0.03,0.93 -1.02,0.85 -1.29,1.51 z"
       fill="#d2e8f6"
       id="path320" />
    <path
       d="m 72.95,67.74 c -0.25,-0.83 -0.82,-1.5 -0.04,-2.21 0.87,0.67 0.92,1.43 0.04,2.21 z"
       fill="#d2e8f6"
       id="path322" />
    <path
       d="m 67.57,75.99 c -0.28,0 -0.38,-0.12 -0.5,-0.28 -0.1,-0.35 0.21,-0.63 0.24,-0.98 0.41,-0.26 0.8,-0.58 1.34,-0.2 -0.02,0.78 -0.66,1.07 -1.08,1.46 z"
       fill="#d2e8f6"
       id="path324" />
    <path
       d="m 70.45,74.77 c -0.18,-0.6 0.22,-0.78 0.46,-1.06 0.24,0.11 0.49,0.13 0.62,0.46 -0.24,0.34 -0.44,0.76 -1.08,0.6 z"
       fill="#c7e1f6"
       id="path326" />
    <path
       d="m 71.97,72.49 c 0.07,0.71 -0.17,0.96 -0.83,0.85 -0.1,-0.63 0.13,-0.88 0.83,-0.85 z"
       fill="#c7e1f6"
       id="path328" />
    <path
       d="m 20.32,91.48 0.03,0.07 -0.07,-0.01 z"
       fill="#c7e1f6"
       id="path330" />
    <path
       d="m 20.09,91.96 0.02,0.07 -0.06,-0.01 z"
       fill="#c7e1f6"
       id="path332" />
    <path
       d="m 12.99,46.05 c 0,-0.49 0.42,-0.54 0.73,-0.71 -0.01,0.48 -0.26,0.7 -0.73,0.71 z"
       fill="#b9cbdc"
       id="path334" />
    <path
       d="m 76.39,34.24 c -0.02,-0.15 0,-0.29 0.13,-0.38 0.17,-0.04 0.27,0.05 0.33,0.19 -0.09,0.21 -0.27,0.23 -0.46,0.19 z"
       fill="#039876"
       id="path336" />
    <path
       d="m 85.26,34.79 c 0.19,0 0.4,-0.07 0.58,0.06 -0.23,0.29 -0.41,0.24 -0.56,-0.07 z"
       fill="#c7e1f6"
       id="path338" />
    <path
       d="m 76.85,33.06 c 0.65,-0.19 1.34,-0.29 1.91,-0.69 1.15,0.13 2.28,-0.3 3.44,-0.19 0.25,0.02 0.43,0.14 0.65,0.18 0.12,0.14 0.24,0.28 0.47,0.55 -1.2,0.27 -2.3,0.17 -3.69,0.09 -0.42,0.13 -1.02,0.69 -1.82,0.57 -0.17,-0.46 -0.82,-0.02 -0.96,-0.51 z"
       fill="#039876"
       id="path340" />
    <path
       d="m 84.06,32.36 c -0.03,-0.54 0.35,-0.47 0.69,-0.45 -0.13,0.3 -0.36,0.45 -0.69,0.45 z"
       fill="#75e3ce"
       id="path342" />
    <path
       d="m 70.87,12.3 c 0.22,0.06 0.33,0.12 0.29,0.29 -0.18,0.07 -0.25,-0.02 -0.29,-0.29 z"
       fill="#31dfbb"
       id="path344" />
    <path
       d="m 64.88,28.52 c -0.52,0 -1.04,0 -1.65,0 -0.31,-0.21 -0.64,-0.59 -1.11,-0.53 -0.41,-0.67 0.13,-0.9 0.45,-1.26 0.68,0.15 1.34,0.47 2.06,0.37 0.22,0.36 0.72,0.46 0.71,0.94 l -0.03,0.03 c -0.33,-0.02 -0.47,0.14 -0.43,0.45 z"
       fill="#07f9d7"
       id="path346" />
    <path
       d="m 65.33,28.04 c 0.15,0.02 0.3,0.01 0.39,0.16 0.05,0.35 -0.25,0.29 -0.43,0.36 v -0.01 c 0.01,-0.16 0.01,-0.32 0.02,-0.48 z"
       fill="#07f9d7"
       id="path348" />
    <path
       d="m 65.3,28.07 c -0.01,0.16 -0.01,0.32 -0.02,0.48 h -0.07 l -0.07,0.01 c -0.09,-0.01 -0.17,-0.03 -0.26,-0.04 -0.04,-0.31 0.1,-0.47 0.42,-0.45 z"
       fill="#75e3ce"
       id="path350" />
    <path
       d="m 64.05,29.09 c 0.07,0.33 -0.02,0.42 -0.27,0.32 -0.05,-0.19 0.06,-0.25 0.27,-0.32 z"
       fill="#75e3ce"
       id="path352" />
    <path
       d="M 1.24,20.85 C 1.16,20.77 1.08,20.69 1,20.61 1.02,20.5 1.05,20.4 1.07,20.3 c 0.29,-0.07 0.42,0.13 0.58,0.2 -0.01,0.34 -0.23,0.32 -0.41,0.35 z"
       fill="#c7e1f6"
       id="path354" />
    <path
       d="m 80.31,25.52 c 0.11,-0.2 0.2,-0.43 0.55,-0.2 -0.09,0.33 -0.25,0.4 -0.55,0.2 z"
       fill="#31dfbb"
       id="path356" />
    <path
       d="m 79.27,24.46 c 0.16,-0.01 0.31,-0.02 0.47,-0.02 -0.15,0.24 -0.3,0.33 -0.47,0.02 z"
       fill="#28deb7"
       id="path358" />
    <path
       d="m 69.15,20.85 c 0.01,-0.36 -0.18,-0.46 -0.52,-0.49 -1.14,-0.1 -1.7,-1 -2.32,-1.79 -0.07,-0.09 0.01,-0.3 0.02,-0.43 0.34,-0.29 0.71,-0.12 1.1,-0.2 0.57,0.72 1.61,0.79 2.2,1.78 0.06,0.19 0.03,0.59 0.24,0.89 -0.24,0.3 -0.49,0.22 -0.72,0.24 z"
       fill="#07f9d7"
       id="path360" />
    <path
       d="m 82.58,23.23 c 0,-0.07 -0.01,-0.13 -0.03,-0.19 0.08,-0.07 0.15,-0.17 0.24,-0.21 0.04,-0.02 0.13,0.04 0.2,0.07 0.08,0.38 -0.2,0.31 -0.41,0.33 z"
       fill="#75e3ce"
       id="path362" />
    <path
       d="m 69.06,24.38 c -0.09,-0.03 -0.14,-0.13 -0.1,-0.24 0.04,-0.12 0.16,-0.16 0.27,-0.11 0.05,0.02 0.1,0.12 0.09,0.18 -0.01,0.12 -0.08,0.2 -0.26,0.17 z"
       fill="#c7e1f6"
       id="path364" />
    <path
       d="M 73.94,11.01 C 73.38,10.49 73.34,9.58 72.62,9.24 72.5,8.81 72.79,8.63 72.93,8.38 c 1.74,0.52 2.69,1.72 3.2,3.34 -0.03,0.37 -0.19,0.66 -0.43,0.91 -0.72,0.2 -1.07,-0.32 -1.21,-0.79 -0.11,-0.38 -0.37,-0.55 -0.55,-0.83 z"
       fill="#07f9d7"
       id="path366" />
    <path
       d="m 73.94,11.01 c 0.18,0.27 0.44,0.45 0.55,0.83 0.14,0.47 0.49,0.99 1.21,0.79 0.24,-0.25 0.4,-0.55 0.43,-0.91 0.08,0.01 0.17,0.01 0.25,0.02 0.4,0.41 -0.28,1.09 0.38,1.39 -0.11,0.35 -0.33,0.16 -0.56,0.19 -0.16,0.51 -0.54,1 -0.17,1.63 -0.29,0.44 -0.59,0.89 -0.88,1.34 0.02,-0.42 0.01,-0.84 -0.25,-1.2 0.39,-0.62 0.36,-0.74 -0.25,-0.92 -0.11,-0.04 -0.21,-0.07 -0.31,-0.11 -0.04,-0.33 0.29,-0.33 0.39,-0.49 -0.24,-0.63 -0.7,-1.06 -1.26,-1.39 0.12,-0.41 0.18,-0.83 0.47,-1.17 z"
       fill="#28deb7"
       id="path368" />
    <path
       d="m 74.66,14.16 c 0.61,0.18 0.64,0.31 0.25,0.92 -0.39,-0.22 -0.17,-0.61 -0.25,-0.92 z"
       fill="#1dad8a"
       id="path370" />
    <path
       d="m 15.88,40.28 c 0.03,-0.05 0.06,-0.11 0.09,-0.17 0.13,0.15 -0.03,0.14 -0.09,0.17 z"
       fill="#e5f3f9"
       id="path372" />
    <path
       d="m 15.95,39.68 0.07,-0.02 -0.01,0.06 z"
       fill="#e5f3f9"
       id="path374" />
  </g>
</svg>
