<svg enable-background="new 0 0 105.62 96.47" viewBox="0 0 105.62 96.47" xmlns="http://www.w3.org/2000/svg"><path d="m73.91 4.73c4.24.5 7.02 3.18 9.26 6.46.68 1 .95 1.17 1.86.46 2.47-1.91 3.79.34 5.3 1.6 1.81 1.51 2.12 3.48 1.92 5.82-.06.74 1.86 1.57 2.76 2.48 2.25 2.27 4.17 4.78 5.1 7.9.9 3.03-1.4 3.72-3.46 4.6-1.48.63-2.91 1.4-4.39 2.03-.5.21-.53.42-.4.87.14.49.32.39.68.21 2.47-1.23 3.23-.47 2.43 2.11-.12.38-.14.78-.2 1.18-.06.46-.1.92-.15 1.37.38-.2.74-.47 1.14-.58.48-.13 1.09-.31 1.46-.12.51.27.31.94.15 1.42-.14.4-.46.74-.65 1.13-.23.48-.4.99-.6 1.48.39-.12.78-.24 1.18-.36.87-.26 1.73-.51 2.6-.77.76-.23 1.64-.95 2.3-.33.72.69-.13 1.59-.27 2.4-.06.37-.3.71-.46 1.06.37-.07.74-.17 1.12-.2.82-.08 1.76-.76 2.43-.11.94.91.1 1.99-.23 2.89-.76 2.03-1.12 4.13-1.24 6.27-.19 3.17-3.13 3.14-4.98 4.27-2.24 1.37-4.8 2.22-7.02 3.62-1.54.97-1 3.24-2.04 4.65-.91-.13-.42 1.38-1.39 1.19 1.75-4.53 2.67-9.2 2.35-14.08-.02-.26-.07-.53-.11-.79-.14.05-.3.07-.4.16-.87.74-1.74 1.49-2.6 2.24-1.16.69-2.3 1.41-3.49 2.05-1.03.56-2.12 1.33-3.31.51-1.12-.77-1.14-1.93-.97-3.21.21-1.59.92-2.93 1.75-4.22.73-1.14 1.57-2.22 2.35-3.32-1.44-.86-2.88-.01-4.29.09-3.41.24-6.74 1.08-9.84 2.53-2.35 1.1-4.59 2.44-6.88 3.68-.18-.09-.35-.19-.53-.28.09-.15.17-.3.26-.45.3-.21.59-.43.89-.64-.14-.05-.28-.09-.42-.14.93-1.54 2.85-1.39 4.09-2.38.75.16 1.17-.11 1.16-.91 1.03.26 2.03-1.65 3.08-.06.15-.11.44-.24.43-.34-.14-1.19 1.07-1.19 1.46-1.14 2.4.33 3.06-1.43 3.57-3.03.35-1.12.52-1.29 1.32-.48-.12.81-1.25 1.43-.76 2.2.2.31 1.38-.01 2.11-.05.67-.04.88-.56 1.13-1.06.93-1.85 1.13-4.04 2.57-5.65.25.01.49.01.74.02-.63 1.86-1.26 3.72-1.88 5.58-.09.29-.25.8-.16.85.42.25.89.27 1.25-.18 1.17.55 2.19.5 3.24-.43.96-.85 2.1-1.49 3.2-2.16 1.5-.91 3.65-1.18 3.42-3.69.08-.16.16-.33.24-.49.06-.31.13-.63.19-.94-.1-.42.66-1.26.14-1.14-2.22.52-4.37 1.37-6.54 2.1-.56-.08-.66-.52-.74-.97.37-.18.73-.46 1.12-.53 2.25-.39 3.96-1.1 3.26-3.99-.17-.72-.18-.95-.86-.56-3 1.74-6.98 1.97-8.79 5.59-.24-.17-.48-.34-.72-.51-.01-.16-.02-.31-.02-.47l.02-.02c.07-.09.15-.18.22-.27 1.18-1.53 1.53-4.49 4.67-2.67.29.17.35-.4.36-.72.17-.23.33-.45.5-.68-.24 0-.48.01-.72.01-.16-.68-.46-1.36-.07-2.06.12-.19.24-.38.36-.56.07-.08.14-.17.22-.25.86.07 1.34.81.91 1.31-.53.61-.46.78.1 1.12-.02.74.52.54.8.36.6-.38 1.79.07 1.79-1.2.16-.05.32-.09.48-.14.12 1.35 1.46-.42 1.69.66.47-.39.13-.74-.07-1.08.25-.18.51-.36.76-.54 1.57.13 2.94-.69 3.81-1.66.46-.52-1.22-1.32-1.8-2.11-.02-.03-.07-.03-.11-.04-.16-.17-.31-.33-.47-.5-.08-.08-.16-.16-.24-.23h-.01c-.72-1.04-1.43-2.08-2.15-3.12-.29-.55-.61-1.57-.87-1.56-.97.06-.31 1.14-.73 1.62-1.05 1.2.21 3.83-2.48 4.01-.01-.18-.02-.36-.04-.54.16-.52.31-1.03.47-1.55.75-1.95 1.36-3.97 2.28-5.83.62-1.26.19-1.47-.89-1.88-1.81-.68-3.13-1.98-3.75-3.88.56-.72-.14-.82-.53-.93-1.82-.54-3.35.68-5.04.9.08-.16.16-.33.25-.49-.14-.03-.27-.07-.41-.1-2.35-.99-4.84-1.79-6.25-4.19.75-.75 1.07-.13 1.42.43.43.64 1.03 1.04 1.79 1.18-.05-.21-.1-.42-.16-.63 1.54 1.05 3.24 1.7 5.1 1.89.47.01 1.12.06 1.21-.46.14-.85-.86-1.08-1.2-1.7-.17-.34-.34-.68-.5-1.02-.07-.15-.15-.29-.22-.44 0 0 .02.02.02.02-.3-.2-.29-.81-.86-.67.07.13.13.26.2.4-1.62-.25-1.94-2.2-3.43-2.63.13-.06.25-.12.38-.19-.54-.36-1.09-.62-1.74-.26-.43-.46-.86-.94-1.29-1.42zm22.57 20.37c.08.13.15.27.23.4.04-.05.09-.1.13-.15-.12-.08-.25-.15-.37-.23-.04-.13-.08-.27-.12-.4-.06.03-.11.06-.17.09.09.1.19.2.3.29zm-1.92-2.64c.06.16.13.32.19.48.08-.06.16-.12.23-.17-.15-.1-.3-.19-.44-.29.06-.51-.26-.61-.67-.62-.24-.76-1-.86-1.57-1.14-.21-.11-.76.16-.97.42-.18.22-.14.65-.13.99 0 .04.52.17.58.09.71-.91 1.44-.14 2.16-.05.21.09.42.19.62.29zm-4.52-7.7c.04.27.09.56.14.84.22-.12.45-.24.67-.37-.58-.7-1.16-1.41-1.76-2.1-.02-.03-.19.07-.3.11.32.42.65.85.97 1.27.09.09.18.17.28.25zm-5.11 34.8c-.09.08-.18.16-.27.24-.46.58-.91 1.17-1.37 1.75-.18.29-.35.58-.53.86l-.03.02c-1.11 1.05-1.53 2.4-1.94 3.84-.55 1.95-.51 2.72 1.93 2.31 1.29-.22 1.65-1.23 2.54-1.74 4.63-2.66 7.94-6.5 9.42-11.76.21-.73.59-1.41.9-2.12-.74.33-1.54.56-2.21 1-2.16 1.43-5.08 1.43-6.8 3.67-.55.64-1.1 1.28-1.65 1.92zm11.78-3.32c-.77-.13-1.27.12-1.55.92-.77 2.23-1.77 4.33-3.49 6.01-.89.88-.75 1.9-.26 2.92-.21 1.69.5 1.55 1.61.86.52-.33 1.25-.35 1.72-.72.85-.67 2.27-.31 2.73-1.61 1.01-2.84 2.03-5.68 3.08-8.5.34-.92-.18-.97-.78-.81-1.03.26-2.04.61-3.06.93zm-5.27 14.15c-.03 1.89 0 1.94 1.55 1.19 2.24-1.06 4.48-2.12 6.63-3.36.97-.56 2.33-.77 2.56-2.33.38-2.53.38-5.16 1.64-7.52.24-.44-.25-.36-.58-.39-2.42-.27-2.84 1.6-3.12 3.19-.7 4.06-2.99 6.35-6.99 7.11-1.18.22-2.14.79-1.69 2.11zm-3.98-44.17c-.08.07-.27.2-.26.24.37.97 1.33 1.22 2.13 1.66.06.03.26-.17.39-.26-.73-.54-1.46-1.07-2.26-1.64zm3.19 1.44c.34-.01.55-.15.38-.51-.12-.25-.3-.48-.46-.71-.18.24-.47.46-.53.73-.08.4.26.5.61.49zm4.06 10.25c.12-.3.24-.46.2-.52-.2-.29-.43-.55-.66-.82-.06.11-.2.25-.17.31.15.3.34.58.63 1.03zm-1.19 13.32c-.04-.07-.07-.13-.1-.19-.05.03-.11.06-.15.1-.01 0 .03.08.05.09.06.01.12 0 .2 0zm-3.42-23.23c-.03.06-.07.12-.08.19-.01.02.04.05.07.08.03-.06.07-.12.09-.18-.01-.02-.05-.06-.08-.09z" fill="#0a0606"/><path d="m9.32 67.12c-3.72-1.48-6.27-4.34-7.62-7.86-3.11-8.12-2.19-15.99 3.07-23.01 2.24-2.99 4.93-5.64 7.73-8.23 4.93-4.57 10.68-7.09 16.93-8.91 1.14-.33 1.38-1.42 1.68-2.32 1.34-4 2.86-7.95 5.3-11.37.9-1.26 2.81-1.86 4.34-2.61 1.85-.9 3.81-1.58 5.66-2.46 1.17-.56 1.6-.1 1.76.97.06.39.07.79.05 1.19-.06 1.8-.02 3.36 2.53 2.07.93-.47 1.69-.08 1.39 1.13-.29 1.2-.73 2.36-1.1 3.53-.29-.15-.57-.31-.86-.46.04-.15.1-.29.12-.44.13-.77.25-1.55.38-2.33-.65.15-1.32.23-1.94.46-2.13.77-4.29 1.49-6.35 2.42-1 .45-2.56.15-2.83 1.79-.15.01-.31.02-.46.03-.09-.55-.24-1.17.38-1.49 1.8-.93 3.56-2.3 5.47-2.61 3.3-.54 1.91-2.76 2.04-4.44.04-.54-.14-.55-2.62.4-.19.07-.37.15-.56.21-7.69 2.22-9.93 8.69-11.93 15.34-.1.04-.2.08-.3.12.02.03.06.09.07.08l.27-.15c2.01-.54 4.58.1 5.3-2.99.36-1.54.48-3.31 1.88-4.47.01.4.02.8.03 1.2-.34 1.51-.67 3.03-1.01 4.54-.16.24-.49.76-.13.71 1.4-.2 3.02.79 4.16-.24 1.55-1.4 3.26-2.42 5.11-3.3.01.4-.09.87.52.95-.84 1.26-2.51.79-3.55 1.8-3.5 3.38-6.38 7.14-7.75 11.89-.12.43.03 1.06.28 1.44.33.49.89.12 1.31-.05.91-.37 1.79-.79 2.69-1.19.09.41.18.81.26 1.22-.24.08-.48.16-.72.24-.19-.11-.38-.22-.57-.33-.05.26-.1.52-.16.78-.98.6-2.01 1.09-3.16.66-.9-.34-1.32-1.08-1.2-2.07.45-3.58 2.17-6.52 4.56-9.13.3-.33.47-.78.7-1.18-.4-.08-.81-.27-1.2-.24-6.64.46-12.8 2.53-18.69 5.52-4.06 2.07-7.57 4.87-10.53 8.37-.07 0-.14.02-.2.05-.18.3-.37.59-.55.89-7.27 5.86-12 20.8-3.79 29.32.99 1.79 3.03 2.38 4.33 3.81-.17.24-.34.5-.52.75z" fill="#0f0708"/><path d="m48.99 82.23c-1.13-.29-1.55.82-2.31 1.24-3.09 1.69-6.13 3.5-9.19 5.25-.07.04-.24-.11-.36-.17-.07.02-.15.04-.22.06.07-.01.15-.01.22-.02-.25 1.29-1.53.91-2.28 1.27-5.72 2.73-11.5 5.31-17.82 6.43-2.69.48-3.33.07-3.15-2.6.49-6.94 2.98-13.3 5.61-19.62.06-.06.12-.13.17-.19.06-.05.12-.07.2-.06.33.01.65.01.98.02-.39 1.12-.79 2.24-1.18 3.36-.08.08-.16.16-.24.24-.48 1.5-.96 3-1.44 4.5-.68.24-.41.94-.67 1.39-.25.69-.5 1.37-.75 2.06-.02.4-.04.79-.05 1.19-.45 2.61-1.55 5.1-1.43 7.83.04.83.24 1.05 1.02.8 2.08-.66 4.17-1.3 6.25-1.95.76-.09 1.61-.06 1.67-1.16l2.07-1.2c.28 1.38.92.32 1.42.21 5.09-1.21 9.49-3.91 13.99-6.39.81-.45 2.12-.58 2.05-2 1.03.51.86-.94 1.57-.96.18.7.74.57 1.11.36.79-.45 1.51-1.03 2.25-1.56.14-.14.28-.28.42-.42-.14-.1-.29-.2-.43-.3 0-1.28 0-2.56 0-3.84.5-.67.15-1.43.23-2.14.01-.18.01-.35.02-.53.7-.35.57-.95.47-1.54 0-.34 0-.67 0-1.01.55-.63.68-1.34.43-2.13 1.34-1.07 1.99-2.63 2.87-4.03.49-.22.99-.44 1.48-.66.01.1.02.2.03.3-2.51 3.53-3.95 7.5-4.8 11.71 0 .43.01.85.01 1.28.02.04.02.09 0 .13.16.98-.49 2.06.4 2.94.04.21.08.42.12.62-.19.46.26 1.29-.74 1.29z" fill="#050606"/><path d="m64.23 17.95c-.33 1.35-.65 2.69-.98 4.04-.29.07-.48.19-.17.47-.05.37-.1.74-.14 1.12.25-.08.49-.15.74-.23.46-.14.5-.46.63-.91.61-2.08 1.28-4.17 2.13-6.16 1.5-3.53 3.17-6.98 4.73-10.49.42-.95 1.15-1.07 2.02-1.07.22.89-1.48 1.68-.22 2.57.63.45.93.95.59 1.56-.37.67-.86-.33-1.34-.07-.14-.28-.25-.58-.43-.83-.12-.17-.3-.81-.49-.33-1.98 4.85-3.88 9.73-5.8 14.6-.02.03-.03.07-.05.1.02-.03.04-.06.06-.09 1.29-.81 2.57-1.62 3.86-2.44 1.01-.05 1.78-.65 2.59-1.15 1.96-1.51 4.12-2.67 6.4-3.61.35.51.71-.17 1.07.02-.79 2.02-2.98 2.05-4.48 3.05-2.59 1.73-5.45 3.05-8.02 4.81-2.02 1.38-4.29 2.35-6.14 4.05-1.29 1.19-3.15 1.79-4.35 3.04-.81.84-1.37.83-2.23.58.27-.31.55-.62.82-.93l.07.01.07-.03c.67-.16 1.08-.63 1.44-1.17.39-.25.77-.5 1.16-.75.42-.38.84-.77 1.26-1.15.68-.85 2.37-.79 2.18-2.42.6-.12.41-.59.44-.97.01-.16.02-.31.03-.47.47-.06.46-.4.44-.75.02-.31.03-.62.05-.94.07-.08.13-.16.2-.25 0 0-.01.01-.01.01.08-.32.17-.64.25-.96 1.18-.27.15-1.18.48-1.69.02-.23.03-.47.05-.7.37.19.73.36 1.09.53z" fill="#0a0606"/><path d="m48.99 82.23c1 0 .55-.83.74-1.29.63 1.55 1.26 3.09 1.9 4.64 1.11 1.83 2.58 3.25 4.51 4.24 9.2 4.75 19.39-2.3 24.26-7.64 2.4-2.63 4.27-5.63 6.22-8.58.17.18.35.36.52.54.02.08 0 .14-.08.18-.49.06-.41.42-.41.75-2.11 4.19-4.88 7.93-8.5 10.87-4.65 3.79-9.65 7.24-16.02 6.89-7.62-.44-10.91-3.28-13.14-10.6z" fill="#0f0708"/><path d="m64.23 17.95c-.36-.17-.72-.35-1.08-.52-.06-.23-.12-.46-.17-.69-1.26.35-2.96.13-3.59 1.45-1.03 2.18-1.9 4.48-2.42 6.82-.38 1.69-1.41 2.13-2.73 2.5-.52-.3-.76-.15-.73.45-.15.01-.3.02-.45.04-.39.03-.89-.17-.98.48v-.01c-.16.1-.32.2-.47.29-.47.23-.94.45-1.41.68-.18.15-.35.29-.53.44-.77-.12-.99.43-1.21.99-.08.32-.15.64-.23.96-.01.24-.02.48-.03.72-.07.08-.14.16-.21.24-.08.09-.16.18-.24.27v.85c-.27-.22-.54-.44-.8-.66.03-.32.06-.63.09-.95.07-.09.14-.19.21-.28-.01-.23-.02-.46-.03-.69.04-.23.09-.45.13-.68.9-1.58.16-3.29.36-4.92 0-.19.01-.38.01-.57-.08-.14-.16-.28-.24-.42-.07.11-.15.23-.22.34-.05.04-.11.05-.18.05-.27-.11-.55-.21-.82-.32.01-.22.03-.44.04-.66.16-.15.31-.3.47-.45.16-.17.31-.34.47-.52.16-.16.33-.32.49-.48.24-.32.47-.64.71-.96.73.07.76-.4.73-.92.03-.04.08-.06.13-.05.12-.15.23-.31.35-.46.48-.03.49-.38.48-.73.17-.23.34-.46.5-.7.46.07.88.2.96.76-.02.22-.04.45-.06.67-.62-.39-1.07-.46-.91.52-.17.31-.34.62-.51.92-.15.16-.31.31-.46.47-.16.16-.31.33-.47.49-.49.03-.49.38-.48.74-.16.22-.32.44-.48.66 0 1.24.01 2.48-.02 3.72-.03 1.19.45 1.43 1.44.84.08-.07.16-.14.23-.21.33 0 .67.03.73-.42.07-.04.14-.06.22-.06.34.01.68.03.74-.43.07-.03.14-.05.22-.05.44-.08 1.05.29 1.22-.48.35.01.68.01.73-.46.67-.38 1.59-.5 1.88-1.32 1.24-3.44 2.43-6.89 3.59-10.35.17-.52.62-1.5-.79-.93-1.3.53-2.68.86-4.03 1.28-.3.07-.6.14-.9.21 0-.14 0-.29 0-.43.19-.07.59-.01.26-.41l-.03-.07c1.87-.76 3.69-1.66 5.62-2.22 1.7-.5 1.58.61 1.18 1.78-.24.73-.34 1.51-.51 2.26.73-.27 1.46-.52 2.19-.8.86-.33 1.91-1.08 2.59-.21.66.79-.17 1.76-.55 2.6z" fill="#0f0708"/><path d="m20.85 73.83c-.33-.01-.65-.01-.98-.02-.08-1.67 1.28-2.79 1.66-4.29.15-.57.43-1.11.65-1.66-.51.15-1.01.3-1.52.44-.25.07-.51.14-.77.2-.16.03-.32.05-.49.08-1.31.56-2.68.53-4.06.38-.11-.16-.23-.33-.34-.49-.05.17-.09.33-.14.5-1.91-.44-3.89-.66-5.55-1.86.17-.25.35-.51.52-.76.32.02.63.04.95.06.5.88 1.31 1.03 2.22.9.54.08 1.08.16 1.63.24.49.09.97.17 1.46.26h.44c.79-.23 1.77.53 2.42-.47.08 0 .16-.01.24-.01.55-.18 1.33.43 1.67-.48.34-.12 1.03.47.96-.47.07-.02.14-.03.21-.03.09.1.19.19.28.29.07.23.14.47.21.7.13-.16.3-.3.39-.48.28-.54.54-1.1.81-1.65.1-.18.2-.37.3-.55.31-.55.62-1.11.94-1.66 0 0-.02.02-.02.02.07-.15.14-.29.21-.44.06-.03.1-.08.13-.14l.03-.02c.21-.44.42-.88.64-1.31.71-1.01 1.42-2.02 2.12-3.05.07-.11.02-.3.02-.46-.11.08-.21.16-.32.24-.23-.13-.45-.26-.68-.39.16-.23.32-.46.48-.69 1.72.85 2.01-.43 2.38-1.6.26.13.52.26.79.39-.85 1.22-1.98 2.34-2.46 3.7-.46 1.3-1.84 2.05-1.84 3.52-.08.23-.16.46-.24.69-.19.24-.41.46-.55.73-1.61 3.24-3.21 6.44-4.8 9.64z" fill="#060b07"/><path d="m72.23 8.79c.47-.27.97.73 1.34.07.34-.61.04-1.11-.59-1.56-1.26-.89.44-1.68.22-2.57h.72c.43.48.86.96 1.28 1.44.45.15.9.3 1.36.44 1.49.42 1.81 2.37 3.43 2.63.22.09.44.18.66.27 0 0-.02-.02-.02-.02.07.15.15.29.22.44.17.34.34.68.5 1.02-.71.72.31 1.44 0 2.16-1.86-.2-3.55-.85-5.1-1.89-.54-.18-1.09-.37-1.63-.55-.35-.56-.67-1.18-1.42-.43-.32-.49-.65-.97-.97-1.45z" fill="#060b07"/><path d="m50.19 8.79c.29.15.57.31.86.46.05.28.23.6-.23.72-.04.07-.08.14-.12.2.13.49.27.98.4 1.47.07.13.14.25.22.38.17-.19.34-.39.51-.58.22-.1.44-.19.66-.29.62-.02 1.43-.4 1.47.74-.08.32-.17.65-.25.97-.67.27-.57.9-.67 1.44-.16-.17-.33-.33-.49-.5.06-.24.13-.48.19-.72.43-.3.41-.61.03-.94-.06.01-.12.02-.17.01-.16.1-.33.2-.49.3-.14.06-.29.13-.43.19-.18.13-.37.26-.55.39-.15.02-.3.05-.46.07-.17.14-.34.29-.5.43-.07.03-.14.05-.22.04-.33-.01-.67-.04-.74.41-.15.02-.3.05-.45.07-.17.14-.34.29-.51.43-.15.02-.29.04-.44.06-.61-.08-.51-.55-.52-.95.07-.03.14-.05.21-.05.24-.09.49-.19.73-.28.41-.34.77-.81 1.41-.69.17-.12.49-.28.47-.36-.06-.21-.25-.39-.39-.58 0-.24 0-.48-.01-.72.07-.08.13-.17.2-.25 0 0-.01.01-.01.01.08-.4.16-.81.25-1.21-.02-.08-.03-.16-.05-.24.02-.12.05-.27.09-.43z" fill="#050606"/><path d="m87.13 74.13c-.17-.18-.35-.36-.52-.54.5-1.28 1-2.57 1.5-3.85.97.19.47-1.32 1.39-1.19-.79 1.86-1.58 3.72-2.37 5.58z" fill="#1c1715"/><path d="m53.96 11.9c-.04-1.14-.85-.76-1.47-.74.46-.25.82-.97 1.46-.43.36.32.38.78.01 1.17z" fill="#0f0708"/><path d="m53.03 14.31c.1-.54 0-1.17.67-1.44.18.55-.93 1.14.05 1.68 0 0 .03.07.03.07-.09.14-.17.27-.26.41-.16-.08-.32-.16-.48-.24-.01-.16-.01-.32-.01-.48z" fill="#0f0708"/><path d="m51.83 11.45c-.17.19-.34.39-.51.58-.07-.13-.14-.25-.22-.38.25-.06.49-.13.73-.2z" fill="#0f0708"/><path d="m86.64 75.05c0-.32-.08-.69.41-.75-.14.26-.27.5-.41.75z" fill="#1c1715"/><path d="m14.87 68.99c.05-.17.09-.33.14-.5.11.16.23.33.34.49-.16 0-.32 0-.48.01z" fill="#0f0708"/><path d="m19.41 68.6c.16-.03.32-.05.49-.08-.16.02-.33.05-.49.08z" fill="#0f0708"/><path d="m63.09 22.46c-.31-.29-.12-.4.17-.47-.06.16-.12.32-.17.47z" fill="#0f0708"/><path d="m50.7 10.18c.04-.07.08-.14.12-.2-.05.06-.09.13-.12.2z" fill="#0f0708"/><path d="m19.67 73.88c-.06.06-.12.13-.17.19.05-.07.11-.13.17-.19z" fill="#060b07"/><path d="m37.13 88.58c-.07.01-.15.01-.22.02.07-.02.15-.04.22-.06z" fill="#1c1715"/><path d="m88.11 69.74c-.5 1.28-1 2.57-1.5 3.85-1.95 2.95-3.82 5.95-6.22 8.58-4.87 5.34-15.06 12.39-24.26 7.64-1.92-.99-3.39-2.41-4.51-4.24 4.6-.16 8.51-2.27 12.36-4.49.71-.41 1.82-.19 2.14-1.26 1.51 1.15 2.93 2.45 4.55 3.39 1.18.68 1.87 2.53 3.87 1.59 3.37-1.58 5.33-4.4 6.98-7.5.95-1.8 2-3.78-.87-5.07-.6-.27-.99-.98-1.48-1.49 2.11-2.27 4.9-3.99 5.8-7.23.07.36-.18.91.36.98.22.03.64-.38.73-.66.33-1.05.55-2.14.81-3.21.45-1.08 1.24-2.11.48-3.36.87-.75 1.73-1.5 2.6-2.24.11-.09.27-.11.4-.16.04.26.1.53.11.79.32 4.88-.6 9.55-2.35 14.09zm-1.51-1.56c-.2-.26-.58-.76-.6-.75-1.06.73-1.24 2-1.75 3.07-.12.26.02.8.42.65 1.32-.47 1.27-1.89 1.93-2.97zm1.94-7.73c-1.14 1.06-.66 2.47-1.14 3.56-.03.07.33.46.41.43 1.61-.64.52-2.34 1.27-3.34.03-.05-.29-.36-.54-.65z" fill="#691506"/><path d="m87.35 57.27c.76 1.25-.03 2.28-.48 3.36-.44-.26-.93-.21-1.1.23-.34.86-.54 1.77-.8 2.67-.9 3.24-3.69 4.96-5.8 7.23-.07-.02-.14-.04-.21-.05-.48-.48-.97-.95-1.45-1.43-.63-.49-1.26-.97-1.89-1.46-.22-.45-1.06-.8-.21-1.4.14-.19.27-.38.41-.57.1-.21.21-.43.31-.64l-.02.02c.08-.25.17-.5.25-.75.06-.18.12-.36.18-.54.05-.02.1-.04.16-.06-.05-.03-.1-.05-.15-.08-.08-.25-.16-.51-.24-.76-.31-.65-.62-1.3-.93-1.94-.35-.31-.71-.62-1.06-.93-.27-.39-.54-.77-1.1-.7-.16-.09-.33-.18-.49-.27-.32-.06-.64-.12-.96-.17-.17-.53-.64-.21-.96-.34.72-1.59 1.16-3.4-.42-4.5-1.61-1.12-3.36-.12-4.87.81-1.7 1.05-3.37 2.15-5.05 3.23-.08-.15-.15-.3-.23-.44.81-.8 1.63-1.61 2.44-2.41 2.29-1.23 4.53-2.58 6.88-3.68 3.1-1.45 6.43-2.29 9.84-2.53 1.41-.1 2.85-.95 4.29-.09-.79 1.1-1.62 2.18-2.35 3.32-.83 1.29-1.53 2.63-1.75 4.22-.17 1.28-.15 2.44.97 3.21 1.19.82 2.28.05 3.31-.51 1.18-.64 2.32-1.36 3.48-2.05z" fill="#931e02"/><path d="m54.22 30.6c.86.24 1.42.26 2.23-.58 1.2-1.25 3.06-1.85 4.35-3.04 1.84-1.7 4.11-2.67 6.14-4.05 2.57-1.75 5.43-3.08 8.02-4.81 1.5-1 3.69-1.03 4.48-3.05.06-.04.12-.06.18-.05 1.7-.23 3.22-1.44 5.04-.9.38.11 1.08.21.53.93-.36-.58-.97-.46-1.34-.24-1.98 1.15-3.91 2.39-5.86 3.6-.66-.13-1.1.17-1.42.72-1.06.81-2.59.9-3.38 2.14-.7.06-1.38.14-1.61.97-1.43 1.09-2.78 2.32-4.31 3.24-1.39.83-2.3 2.46-4.14 2.53-.5-.07-1.05-.18-1.37.3-.33.49.28.6.49.87-2.61 2.09-5.22 4.18-7.81 6.3-.15.13-1.05.33-.13.71.89.37 1.81.67 2.7 1.04 4.02 1.65 7.43 4.09 10.25 7.47.8.96 1.24 3.36 3.61 2.08 1.57-.84 3.26-1.33 3.9-3.39.37-1.18 1.41-2.14 2.15-3.2.15.22.33.43.44.68s.08.58.23.79c.17.24.2 1.24.81.3.42-.64.3-1.26-.15-1.84-.24-.3-.48-.6-.72-.91 1.59-2.95 4.16-4.83 6.98-6.44.21-.03.41-.06.62-.1-.38.7-.08 1.38.07 2.06-.13.29-.59.69.22.66 0 .31-.07.88-.36.72-3.14-1.81-3.49 1.14-4.67 2.67-.07.09-.15.18-.22.27 0 0-.02.02-.02.02-.27.17-.24.33.02.47l.72.51c-.82 1.59-1.63 3.18-2.45 4.77-.45.06-.45.39-.44.73-.81-.81-.97-.64-1.32.48-.5 1.6-1.17 3.36-3.57 3.03-.4-.05-1.6-.06-1.46 1.14.01.1-.28.23-.43.34-1.06-1.59-2.05.32-3.08.06-.08 0-.15-.02-.22-.05-.31-.47-.62-.93-.94-1.4-.01-.08-.01-.16-.02-.24.03-.02.09-.05.08-.07-.01-.06-.05-.12-.07-.17v-.01c-.65-.87-1.3-1.74-1.94-2.61-.72-.72-1.43-1.45-2.15-2.17-.75-1.29-1.91-2.18-3.03-3.12-.86-.63-1.72-1.25-2.58-1.88-2.2-1.62-5.18-1.74-7.16-3.77.31-.28.6-.58.93-.83 1.04-.79 2.21-1.48 2.46-2.93.1-.23.2-.46.31-.69.13-.04.27-.05.41-.06zm25.43 9.47c.03-.07.06-.13.09-.18-.06-.01-.12-.02-.19-.01-.02 0-.05.08-.04.09.04.03.09.06.14.1z" fill="#030906"/><path d="m72.23 8.79c.32.48.65.96.97 1.44 1.41 2.4 3.9 3.19 6.25 4.19-.36.21-.73.41-1.09.62-2.28.94-4.44 2.1-6.4 3.61-1.11-.19-1.77.67-2.59 1.15-1.29.81-2.57 1.62-3.86 2.44l-.01-.01c1.92-4.87 3.82-9.75 5.8-14.6.2-.48.38.16.49.33.18.26.3.55.44.83zm.07 3.15c-.56.47-1.39 1-1.99 1.72-.82 1-1.07 2.27-1.05 3.57 0 .07.41.22.62.19 1.1-.15 1.86-.8 2.37-1.75.42-.78.71-1.63 1.16-2.39.64-1.04-.12-1.11-1.11-1.34z" fill="#01271e"/><path d="m77.99 18.39c1.95-1.21 3.88-2.45 5.86-3.6.37-.22.99-.34 1.34.24.62 1.9 1.94 3.2 3.75 3.88 1.08.4 1.51.61.89 1.88-.92 1.87-1.54 3.88-2.28 5.83-.62-.75-1.24-1.49-1.87-2.24-1.01-1.02-2.02-2.05-3.03-3.07.85-.63.98-1.42.49-2.31-1.36-2.49-2.81-.9-4.25-.09-.3-.17-.6-.34-.9-.52z" fill="#01281f"/><path d="m91.44 60.39c-.45-1.32.52-1.89 1.69-2.11 4-.76 6.29-3.05 6.99-7.11.28-1.59.7-3.47 3.12-3.19.33.04.81-.05.58.39-1.26 2.36-1.26 4.99-1.64 7.52-.23 1.56-1.59 1.77-2.56 2.33-2.14 1.24-4.39 2.29-6.63 3.36-1.56.74-1.58.7-1.55-1.19z" fill="#671507"/><path d="m78.44 44.79c.82-1.59 1.63-3.18 2.45-4.77 1.81-3.62 5.79-3.84 8.79-5.59.68-.39.68-.16.86.56.7 2.88-1.01 3.59-3.26 3.99-.39.07-.75.35-1.12.53-1.14.25-2.2.66-3.1 1.44-1.44 1.62-1.64 3.8-2.57 5.65-.25.51-.46 1.03-1.13 1.06-.73.04-1.92.36-2.11.05-.49-.77.64-1.39.76-2.2.13-.23.28-.48.43-.72z" fill="#671507"/><path d="m86.57 47.64c1.71-2.24 4.64-2.24 6.8-3.67.67-.44 1.47-.67 2.21-1-.3.7-.69 1.39-.9 2.12-1.48 5.26-4.78 9.1-9.42 11.76-.89.51-1.25 1.52-2.54 1.74-2.44.41-2.48-.36-1.93-2.31.41-1.44.83-2.79 1.94-3.84.24.98-.82 2.17.44 2.96.61.38 1.34.11 1.78-.25 2.02-1.71 4.1-3.39 5.89-5.33.79-.86 1.91-2.2 1.22-3.49-.46-.86-1.75-.28-2.65-.05-.4.1-.74.44-1.1.67-.44.03-.68.26-.72.7-.23.01-.46.02-.69.04-.11-.02-.22-.03-.33-.05z" fill="#911e03"/><path d="m52.49 64.61c-.88 1.4-1.53 2.96-2.87 4.03-.48-.6-.95-1.19-1.43-1.79-.05-.15-.1-.31-.16-.46.86-1.06 1.73-2.12 2.59-3.18 2.06-.84 3.81-1.94 3.85-4.51 1.13-1.32 2.26-2.64 3.39-3.96.12.03.25.06.37.09.11-.03.21-.07.32-.1.06-.04.13-.08.19-.12l.04-.01c2.01-.09 2.91-1.48 3.62-3.09 1.2-.65 2.41-1.3 3.61-1.95l-.01.01c.3.48.59.96.89 1.44.02.15.05.31.07.46-1.25.99-3.17.84-4.09 2.38-.24.26-.49.51-.73.77-.24.16-.48.33-.72.49 0 0 .01-.01.01-.01-1.37 1.2-3.02 2.12-3.85 3.86l.02-.02c-1.06.09-1.54.84-1.93 1.7-.08.16-.17.31-.25.47-1.39.83-2.2 2.13-2.93 3.5z" fill="#030906"/><path d="m96.71 46.24c1.02-.32 2.02-.67 3.05-.93.61-.15 1.13-.1.78.81-1.05 2.83-2.06 5.66-3.08 8.5-.46 1.3-1.89.94-2.73 1.61-.47.37-1.2.39-1.72.72-1.11.7-1.82.84-1.61-.86.1-.41.06-.99.32-1.19 2.81-2.24 4.39-5.17 4.99-8.66z" fill="#911e03"/><path d="m86.89 47.69c.23-.01.46-.02.69-.04.24-.23.48-.46.72-.7.37-.23.71-.57 1.1-.67.9-.23 2.19-.82 2.65.05.69 1.29-.43 2.62-1.22 3.49-1.78 1.94-3.86 3.62-5.89 5.33-.44.37-1.17.64-1.78.25-1.26-.79-.2-1.98-.44-2.96 0 0 .03-.02.03-.02.67.02.47-.51.53-.86.46-.58.91-1.17 1.37-1.75.09-.08.18-.16.27-.24h-.01c1.06-.22 2.23-.31 1.98-1.88z" fill="#c32e02"/><path d="m86.89 40.48c2.17-.73 4.32-1.58 6.54-2.1.52-.12-.24.71-.14 1.14-.06.31-.13.63-.19.94-.08.16-.16.33-.24.49-1.61.03-2.81 1.05-4.03 1.84-2.04 1.33-3.9 2.94-5.83 4.44-.36.45-.83.43-1.25.18-.09-.05.06-.57.16-.85.62-1.86 1.25-3.72 1.88-5.58 1.1.24 2.1-.15 3.1-.5z" fill="#911e03"/><path d="m85.69 31.83c-.07.08-.14.17-.22.25-.74-1.12-1.47-2.25-2.21-3.37-.72-.8-1.44-1.6-2.16-2.39-.56-.48-1.12-.96-1.68-1.44.5-1.14 1.14-2.11 2.53-2.23.94.89 1.87 1.78 2.81 2.67.77.95 1.54 1.9 2.3 2.85.01.18.02.36.04.54-.46 1.04-.94 2.08-1.41 3.12z" fill="#032921"/><path d="m85.69 31.83c.47-1.04.95-2.08 1.42-3.12 2.69-.18 1.43-2.81 2.48-4.01.42-.48-.24-1.57.73-1.62.26-.01.58 1.01.87 1.56.19 1.26-.49 2.27-.97 3.34-.25.8-.5 1.6-.75 2.39-.52 1.45-.68 2.68 1.52 2.45-.41.15-.82.29-1.22.44-.16.05-.32.09-.48.14-.86.28-1.72.56-2.58.84-.56-.34-.63-.51-.1-1.12.41-.48-.06-1.22-.92-1.29zm2.38-1.86c-.11-.07-.2-.12-.28-.17-.05.09-.14.19-.13.27.01.07.14.13.22.19.05-.08.11-.17.19-.29z" fill="#030906"/><path d="m83 47.23c1.93-1.49 3.79-3.1 5.83-4.44 1.22-.8 2.42-1.82 4.03-1.84.24 2.51-1.92 2.78-3.42 3.69-1.1.67-2.25 1.32-3.2 2.16-1.06.92-2.07.98-3.24.43z" fill="#691506"/><path d="m89.47 30.38c.25-.8.5-1.6.75-2.39 1.04-.07 2.08-.15 3.11-.22h.01c.08.08.16.16.24.23.16.17.31.33.47.5.42 1.75-.43 2.82-1.91 3.55-1.15-.14-2.3-.28-2.67-1.67z" fill="#063f32"/><path d="m96.71 46.24c-.61 3.49-2.18 6.42-4.98 8.66-.26.21-.22.79-.32 1.19-.49-1.03-.63-2.05.26-2.92 1.72-1.69 2.73-3.78 3.49-6.01.28-.8.78-1.05 1.55-.92z" fill="#691506"/><path d="m55.41 61.12c.08-.16.17-.31.25-.47 1.16.02 1.34-1.07 1.93-1.7 0 0-.02.02-.02.02 1.42-1.15 2.98-2.16 3.85-3.86 0 0-.01.01-.01.01.24-.01.48-.02.72-.03.18.09.35.19.53.28-.81.8-1.63 1.61-2.44 2.41-.48.47-.96.94-1.44 1.41-2.05 1.26-2.99 3.57-4.79 5.06-.01-.1-.02-.2-.03-.3-.05-.18-.65-.09-.12-.58.67-.6 1.07-1.49 1.57-2.25z" fill="#0f0708"/><path d="m92.14 32.05c1.48-.73 2.33-1.8 1.91-3.55.04.01.09.02.11.04.58.79 2.26 1.6 1.8 2.11-.87.97-2.24 1.79-3.81 1.66 0-.08-.01-.17-.01-.26z" fill="#01281f"/><path d="m83.27 28.71c.74 1.12 1.47 2.25 2.21 3.37-.12.19-.24.38-.36.56-.21.03-.41.06-.62.1-.76-1.08-1.51-2.16-2.27-3.24.34-.26.69-.52 1.04-.79z" fill="#7896ad"/><path d="m93.34 27.76c-1.04.07-2.08.15-3.11.22.48-1.07 1.16-2.08.97-3.34.71 1.04 1.42 2.08 2.14 3.12z" fill="#01271e"/><path d="m87.08 28.17c-.77-.95-1.54-1.9-2.3-2.85.76.13.74-.49.91-.94.62.75 1.24 1.49 1.87 2.24-.17.52-.33 1.03-.48 1.55z" fill="#7896ad"/><path d="m92.14 32.05c0 .09.01.17.01.26-.25.18-.51.36-.76.54-.13-.01-.26-.01-.4-.02-2.19.23-2.04-1-1.52-2.45.37 1.39 1.52 1.53 2.67 1.67z" fill="#01271e"/><path d="m86.89 40.48c-1.01.35-2 .74-3.1.49-.25-.01-.49-.01-.74-.02.89-.78 1.96-1.19 3.1-1.44.08.45.18.89.74.97z" fill="#110404"/><path d="m93.95 22.17c-.72-.09-1.45-.86-2.16.05-.06.08-.58-.05-.58-.09-.01-.34-.06-.77.13-.99.21-.25.76-.52.97-.42.57.29 1.34.38 1.57 1.14.02.1.04.2.07.31z" fill="#01271e"/><path d="m81.35 13.11c.32-.72-.71-1.44 0-2.16.34.62 1.35.85 1.2 1.7-.08.52-.73.47-1.2.46z" fill="#01271e"/><path d="m86.89 47.69c.25 1.58-.92 1.67-1.98 1.88.55-.64 1.1-1.28 1.65-1.92.12.01.23.02.33.04z" fill="#952004"/><path d="m87.46 16.22c.8.58 1.53 1.11 2.26 1.64-.13.09-.33.3-.39.26-.8-.44-1.75-.69-2.13-1.66-.01-.05.19-.17.26-.24z" fill="#9a837d"/><path d="m86.7 34.26c.86-.28 1.72-.56 2.58-.84.01 1.27-1.18.82-1.79 1.2-.27.17-.81.38-.79-.36z" fill="#9a837d"/><path d="m90.99 32.83c.13.01.27.01.4.02.2.35.54.69.07 1.08-.23-1.08-1.57.69-1.69-.66.4-.14.81-.29 1.22-.44z" fill="#9a837d"/><path d="m89.76 14.52c-.32-.42-.65-.85-.97-1.27.1-.04.27-.14.3-.11.6.69 1.18 1.4 1.76 2.1-.27-.16-.54-.32-.82-.48v.01c-.09-.09-.18-.17-.27-.25z" fill="#9a837d"/><path d="m90.65 17.66c-.35.01-.7-.09-.61-.5.06-.27.34-.49.53-.73.16.24.34.46.46.71.17.37-.04.51-.38.52z" fill="#1c1715"/><path d="m74.62 10.67c.54.18 1.09.37 1.63.55.05.21.1.42.16.63-.77-.15-1.36-.54-1.79-1.18z" fill="#9a837d"/><path d="m66.97 51.47c-.02-.15-.05-.31-.07-.46.34-.17.68-.33 1.01-.5.07.03.14.05.22.05.01.81-.41 1.07-1.16.91z" fill="#9a837d"/><path d="m76.55 6.62c-.45-.15-.9-.3-1.36-.44.65-.36 1.2-.1 1.74.26-.13.06-.25.12-.38.18z" fill="#9a837d"/><path d="m85.41 35.37c-.81.02-.36-.37-.22-.66.24 0 .48-.01.72-.01-.17.21-.33.44-.5.67z" fill="#9a837d"/><path d="m78.37 15.04c.36-.21.73-.41 1.09-.62.14.03.27.07.41.1-.08.16-.16.33-.25.49-.07-.01-.13.01-.18.05-.36-.19-.73.49-1.07-.02z" fill="#9a837d"/><path d="m94.71 27.91c-.28-.45-.48-.73-.63-1.03-.03-.06.11-.2.17-.31.22.27.46.53.66.82.04.06-.08.22-.2.52z" fill="#064133"/><path d="m90.03 14.75c.27.16.54.32.82.48-.22.12-.45.25-.67.37-.05-.28-.1-.56-.15-.85z" fill="#1c1715"/><path d="m62.14 54.62c.24-.26.49-.51.73-.77.14.05.28.09.42.14-.3.21-.59.43-.89.64-.09 0-.18 0-.26-.01z" fill="#f7baa5"/><path d="m80.65 9.52c-.22-.09-.44-.18-.66-.27-.07-.13-.13-.26-.2-.4.56-.14.55.46.86.67z" fill="#9a837d"/><path d="m93.95 22.17c-.02-.1-.05-.2-.07-.3.41.01.73.11.67.62 0 0 .02-.02.02-.02-.21-.11-.42-.21-.62-.3z" fill="#9a837d"/><path d="m83.29 51.55c-.06.36.14.88-.53.86.18-.28.35-.57.53-.86z" fill="#911e03"/><path d="m62.14 54.62c.09 0 .17.01.26.01-.09.15-.17.3-.26.45-.24.01-.48.02-.72.03.24-.16.48-.32.72-.49z" fill="#9a837d"/><path d="m94.54 22.48c.15.1.3.19.44.29-.08.06-.16.12-.23.17-.06-.16-.13-.32-.19-.48 0 0-.02.02-.02.02z" fill="#9a837d"/><path d="m96.48 25.1c-.1-.1-.21-.19-.31-.29.06-.03.11-.06.17-.09.04.13.08.27.12.4 0 0 .02-.02.02-.02z" fill="#9a837d"/><path d="m96.46 25.12c.12.08.25.15.37.23-.04.05-.09.1-.13.15-.08-.13-.15-.27-.23-.4.01 0-.01.02-.01.02z" fill="#9a837d"/><path d="m93.1 40.45c.07-.31.13-.63.19-.94-.06.32-.13.63-.19.94z" fill="#691506"/><path d="m93.52 41.23c-.07 0-.14.01-.2 0-.02-.01-.06-.08-.05-.09.05-.04.1-.07.15-.1.03.06.06.12.1.19z" fill="#691506"/><path d="m90.1 18c.02.03.07.06.06.09-.02.06-.06.12-.09.18-.02-.03-.07-.06-.07-.08.04-.07.07-.13.1-.19z" fill="#9a837d"/><path d="m80.85 9.94c-.07-.15-.15-.29-.22-.44.07.14.14.29.22.44z" fill="#9a837d"/><path d="m80.17 39.51c-.26-.14-.29-.3-.02-.47 0 .16.01.32.02.47z" fill="#1c1715"/><path d="m80.16 39.02c.07-.09.15-.18.22-.27-.07.09-.15.18-.22.27z" fill="#1c1715"/><path d="m89.76 14.52c.09.08.18.16.27.24-.09-.08-.18-.16-.27-.24z" fill="#1c1715"/><path d="m93.58 28c-.08-.08-.16-.16-.24-.23.08.07.16.15.24.23z" fill="#01271e"/><path d="m84.93 49.56c-.09.08-.18.16-.27.24z" fill="#952004"/><path d="m47.73 25.17c0 .19-.01.38-.01.57-.12 1.64-.24 3.28-.36 4.92-.04.23-.09.45-.13.68-1.37-.07-1.98.61-1.9 1.95-.63.08-1.26.16-1.89.23-.16.08-.33.16-.49.24-.13.08-.26.17-.39.25-.91.88-1.82 1.76-2.74 2.64-.62.66-1.78 1.04-1.18 2.32.07 1.33-1.27 1.31-1.89 1.99-1.08-.31-1.63.7-2.47.99-.29-1.23-1.5-1.53-2.29-2.26-.66-.72-1.8-1.25-1.27-2.53 1.07-2.56 0-4.24-2.19-5.49-.15-.11-.31-.22-.46-.33-.16-.06-.32-.13-.48-.19-.32-.09-.65-.19-.97-.28-.72-.16-1.44-.32-2.17-.48-.42-.14-.83-.27-1.25-.41-.43-1.63-1.29-2.4-3.16-2.21-2.59.26-4.07 2.28-6.05 3.46-3.97 2.35-6.76 5.78-8.71 10.07-1.94 4.25-3.13 8.5-2.4 13.14.5 3.15 2.35 4.6 5.52 4.47.98-.04 1.73-.6 2.02-1.67.64-2.38.34-4.8.37-7.21 1.69 1.67 3.41 3.74 6.07 2.54 1.88-.85 3.17-.69 4.47.74 1.78 1.4 3.55 2.79 5.33 4.19-1.54.97-3.11 2.2-4.64 2.8-3.56 1.4-7.21 3.03-11.25 2.74-.56.13-1.12.41-1.67 0-1.2-.16-2.4-.32-3.6-.48-8.2-8.52-3.48-23.46 3.79-29.32.66 0 .49-.51.55-.89.06-.03.13-.05.2-.05.74-.42 1.51-.79 2.2-1.28 2.7-1.9 5.28-4.02 8.63-4.73 1.91-.57 3.81-1.16 5.28-2.61 1.49-1.38 3.55-1.18 5.28-1.9.47-.01.96.05 1.41-.06.63-.15 2.03.56 1.44-1.15.72-.51 1.52-.32 2.29-.22.06.01.18.35.12.47-.46 1.01-1.02 1.98-1.43 3.01-.66 1.69-1.29 3.41-.05 5.13-.12.99.3 1.73 1.2 2.07 1.15.43 2.19-.06 3.16-.66.24-.15.49-.3.73-.45.24-.08.48-.16.72-.24 2.32-1.11 4.42-2.52 6.06-4.54.07.01.13-.01.18-.05.17.02.32.05.47.08zm-15.97-1.18c-.29-.21-.43-.34-.59-.42-.93-.48-4.83 1.27-5.05 2.27-.04.16.09.36.13.54.21-.06.42-.12.62-.2 1.32-.52 2.63-1.03 3.94-1.58.3-.12.55-.35.95-.61z" fill="#931e02"/><path d="m10.78 63.03c4.03.29 7.68-1.34 11.25-2.74 1.53-.6 3.1-1.83 4.64-2.8.14 0 .28-.01.42-.01.23.13.45.26.68.39-.47 1.16-1.74 1.88-1.82 3.27-.21.44-.42.88-.64 1.31 0 0-.03.02-.03.02-.02.06-.07.11-.13.14-.07.15-.14.3-.21.44 0 0 .02-.02.02-.02-.76.3-.8 1.01-.94 1.66-.1.18-.2.37-.3.55-.3.15-.6.3-.9.44-.26.23-.53.46-.79.69-.07 0-.14.01-.21.03-.32.16-.64.31-.96.47-.56.16-1.12.32-1.67.48-.08 0-.16.01-.24.01-.81.16-1.61.31-2.42.47-.15 0-.29 0-.44 0-.49-.09-.97-.17-1.46-.26-.54-.08-1.08-.16-1.63-.24-.74-.3-1.48-.6-2.22-.91-.32-.02-.63-.04-.95-.06-1.3-1.43-3.34-2.02-4.33-3.81 1.2.16 2.4.32 3.6.48-.17.71.35 1.16.83 1.18.27.02.57-.76.85-1.18z" fill="#691506"/><path d="m31.88 18.12c2.01-6.64 4.25-13.11 11.94-15.34.19-.06.37-.14.56-.21 2.48-.95 2.67-.94 2.62-.4-.13 1.68 1.27 3.9-2.04 4.44-1.92.31-3.67 1.68-5.47 2.61-.62.32-.47.94-.38 1.49-1.4 1.16-1.52 2.93-1.88 4.47-.72 3.09-3.29 2.45-5.3 2.99z" fill="#671507"/><path d="m48.73 14.08c.15-.02.3-.05.45-.07.25-.14.49-.27.74-.41.08 0 .15-.01.22-.04.17-.14.34-.29.5-.43.15-.02.3-.05.46-.07.18-.13.37-.26.55-.39.14-.06.29-.13.43-.19.16-.1.33-.2.49-.3.06.01.12 0 .17-.01-.01.31-.02.63-.03.94-.06.24-.13.48-.19.72-1.06 1.53-1.31 3.36-1.9 5.06-.17.23-.34.46-.5.7s-.32.49-.48.73c-.12.15-.23.31-.35.46-.05 0-.1.01-.13.05-.24.31-.49.62-.73.92-.24.32-.47.64-.71.96-.16.16-.33.32-.49.48-.16.17-.31.34-.47.52-.16.15-.31.3-.47.45-.01.22-.03.44-.04.66-.37-.02-.68-.13-1.07.19-1.44 1.2-2.95 2.31-4.44 3.45-.89.4-1.78.82-2.69 1.19-.42.17-.97.54-1.31.05-.26-.38-.41-1.01-.28-1.44 1.37-4.74 4.24-8.51 7.75-11.89 1.05-1.01 2.72-.54 3.55-1.8.15-.02.29-.04.44-.06.2-.14.37-.28.53-.43zm-9.24 13.96c.2-.06.7-.06 1.02-.3 2.76-2.06 5.16-4.54 6.96-7.45.44-.71 1.63-2.33.31-3.31-1.05-.78-2.34.16-3.03.92-2.24 2.47-4.29 5.11-6.36 7.73-.4.51-.65 1.2-.33 1.9.24.55.71.58 1.43.51z" fill="#911e03"/><path d="m35.23 28.96c-1.24-1.72-.61-3.44.05-5.13.4-1.03.96-2 1.43-3.01.05-.12-.06-.46-.12-.47-.78-.1-1.57-.29-2.29.22-.85-.01-1.7-.09-2.54-.01-.83.08-2.15.1-2.11 1.02.05.92 1.18-.11 1.79.2-1.73.72-3.79.52-5.28 1.9-.65-.67-3.12-.06-4.67 1.22-.39.32-1.17.61-.61 1.4-3.35.71-5.93 2.83-8.63 4.73-.69.49-1.47.85-2.2 1.28 2.95-3.49 6.46-6.29 10.54-8.37 5.89-2.99 12.06-5.06 18.69-5.52.39-.03.8.15 1.2.24-.23.4-.4.85-.7 1.18-2.38 2.6-4.1 5.54-4.55 9.12z" fill="#671507"/><path d="m50.19 8.79c-.03.15-.06.31-.09.46-1.07.54-2.17 1.02-3.19 1.65-2.46 1.5-5.18 2.65-6.54 5.54-.4.86-1.47.84-2.23.02.34-1.51.67-3.03 1.01-4.54.14-.41.28-.82.43-1.23.27-1.64 1.83-1.34 2.83-1.79 2.06-.93 4.22-1.65 6.35-2.42.62-.22 1.29-.31 1.94-.46-.13.78-.25 1.55-.38 2.33-.04.15-.09.3-.13.44z" fill="#911e03"/><path d="m38.14 16.46c.76.82 1.82.85 2.23-.02 1.35-2.89 4.08-4.04 6.54-5.54 1.02-.62 2.12-1.1 3.19-1.65.02.08.03.16.05.24-.08.4-.16.81-.25 1.21 0 0 .01-.01.01-.01-.07.08-.13.17-.2.25 0 .24 0 .48.01.72-.03.31-.06.63-.08.94-.64-.12-.99.35-1.41.69-.24.09-.49.19-.73.28-.07 0-.14.01-.21.05-1.85.88-3.56 1.91-5.11 3.3-1.15 1.03-2.76.05-4.16.24-.37.06-.05-.47.12-.7z" fill="#691506"/><path d="m40.77 28.46c1.48-1.14 3-2.25 4.44-3.45.39-.33.7-.21 1.07-.19.27.11.54.21.82.32-1.63 2.03-3.73 3.44-6.06 4.54-.09-.41-.18-.81-.27-1.22z" fill="#110404"/><path d="m40.32 29.92c-.24.15-.49.3-.73.45.05-.26.1-.52.16-.78.19.11.38.22.57.33z" fill="#110404"/><path d="m39.57 10.68c-.14.41-.28.82-.43 1.23-.01-.4-.02-.8-.03-1.2.15-.01.31-.02.46-.03z" fill="#671507"/><path d="m9.85 32.35c-.06.37.11.89-.55.89.19-.3.37-.6.55-.89z" fill="#671507"/><path d="m31.93 18.17c-.09.05-.18.11-.27.15-.01 0-.04-.05-.07-.08l.3-.12c-.01 0 .04.05.04.05z" fill="#671507"/><path d="m20.85 73.83c1.6-3.2 3.19-6.41 4.8-9.61.13-.27.36-.49.55-.73 1.26.33 2.53.66 3.79.99 1.21.46 2.42.91 3.63 1.37 2.08.96 3.97 2.17 5.5 3.9 1.75 2.15 3.29 4.41 3.88 7.18-.92 2.36-2.61 4.04-4.69 5.41-.91.6-1.71 1.38-2.59 2.02-2.61 1.91-4.95 4.26-8.24 5.08-.35-.89-.71-1.78-1.06-2.67-.36-.54-.73-1.07-1.09-1.61.91-1.68 1.77-3.4 2.75-5.04 1.71-2.88 2.89-5.95 3.3-9.26.15-1.21-.49-2.35-1.59-2.99-1.19-.69-2.17-.37-3.06.78-1.18 1.54-2.15 3.12-2.92 4.93-1.21 2.88-2.75 5.63-4.14 8.44-.56-.03-1.12-.06-1.68-.09l1.44-4.5c.08-.08.16-.16.24-.24.39-1.12.78-2.24 1.18-3.36zm14.7-2.89c-1.13.05-1.95.51-.84 2.12.79 1.14 1.47 2.33 2.05 3.6.37.82 1.27 1.65 2.36 1.43 1.03-.21 1.47-1.08 1.56-2.13.23-2.59-2-4.98-5.13-5.02z" fill="#01281f"/><path d="m54 64.26c1.8-1.5 2.74-3.81 4.79-5.06v.95c-1.77 2.54-3.56 5.06-5.3 7.62-2.64 3.89-3.45 8.03-1.4 12.42.73 1.57 1.81 2.85 3.82 1.59.38.52.6.46.96-.26 0-.08.01-.16.01-.24.15-.16.31-.33.46-.49 0-.16.01-.31.01-.47.83-.26.34-.95.47-1.44.5-.05.47-.43.48-.79 1.45 1.36 2.88 3.3 5.1 1.68 1.2-.88 1.91-.58 2.83.07-.04-.03-.07-.03-.11-.01-.32 1.07-1.42.85-2.14 1.26-3.85 2.22-7.76 4.32-12.36 4.49-.63-1.54-1.26-3.09-1.9-4.64-.04-.21-.08-.42-.12-.63-.13-.98-.27-1.96-.4-2.94.02-.04.02-.09 0-.13.28-.43.33-.86-.01-1.28.86-4.21 2.3-8.18 4.81-11.7z" fill="#931e02"/><path d="m48.47 75.99v3.84.72c-.75.53-1.46 1.1-2.25 1.56-.37.21-.93.35-1.11-.36-.28-2.08-.11-4.24-.96-6.23-.76-1.67-1.28-3.47-2.63-4.82-.32-.48-.64-.97-.96-1.45.24-.31.48-.63.71-.94.79.59 1.43 1.23 1.72 2.26.19.68.72 1.27 1.09 1.9.32-.51.63-1.03.95-1.53.7-1.08 1.18-2.38 2.69-2.63.49.82.98 1.64 1.46 2.45v1.01c-.16.51-.31 1.03-.47 1.54-.01.18-.01.35-.02.53-.06.72-.14 1.44-.22 2.15z" fill="#030906"/><path d="m27.47 89.44c3.28-.82 5.63-3.17 8.24-5.08.88-.65 1.68-1.43 2.59-2.02 2.09-1.36 3.77-3.04 4.69-5.41.06.01.11.02.17.04.11 1.92.79 3.79.39 5.74.07 1.43-1.23 1.56-2.05 2-4.5 2.49-8.9 5.19-13.98 6.38.01-.28.01-.56.02-.83-.01-.18-.02-.37-.03-.55-.02-.09-.03-.18-.04-.27z" fill="#030906"/><path d="m22.36 93.24c-2.08.65-4.17 1.29-6.25 1.95-.78.25-.98.03-1.02-.8-.13-2.73.97-5.22 1.43-7.83.22-.02.44-.04.67-.06.41.11 1.04-.11 1.04.65 0 .11-.01.27-.07.31-.59.35-.59.34-.51.78.41 2.37 1.76 2.74 4.23 1.18.06 0 .12.01.17.04.31 1.24.49 2.49.31 3.78z" fill="#01271e"/><path d="m26.1 90.88c-.69.4-1.38.8-2.07 1.2-.12-.94-.06-1.93-.87-2.64.41-.46-.08-.8-.15-1.19.81-.32 1.22-.97 1.49-1.75l1.14 1.29c.26 1.01.69 2 .46 3.09z" fill="#032921"/><path d="m43.54 82.72c.4-1.95-.28-3.83-.39-5.74.33-.48.66-.97.99-1.45.86 1.99.69 4.15.96 6.23-.69.02-.53 1.46-1.56.96z" fill="#7896ad"/><path d="m23.16 89.43c.81.71.75 1.71.87 2.64-.06 1.1-.91 1.07-1.67 1.16.18-1.29.01-2.54-.32-3.79.38.58.75.06 1.12-.01z" fill="#7896ad"/><path d="m26.1 90.88c.24-1.09-.19-2.08-.46-3.1.26-.34.51-.67.77-1.01.35.89.71 1.78 1.06 2.67.01.09.03.17.04.26.01.18.02.37.03.55-.01.28-.01.56-.02.83-.5.12-1.14 1.18-1.42-.2z" fill="#7896ad"/><path d="m49.19 70.77c-.49-.82-.98-1.64-1.46-2.45-.08-.23-.15-.46-.23-.69.04-.43.25-.71.69-.77.48.6.95 1.19 1.43 1.79.25.78.12 1.5-.43 2.12z" fill="#7896ad"/><path d="m17.98 81.93 1.68.09c.17.08.33.17.5.25-.17.39-.33.79-.5 1.18-.32 0-.64 0-.95 0-.46-.04-.93-.09-1.39-.13.25-.45-.02-1.15.66-1.39z" fill="#7896ad"/><path d="m17.18 86.5c-.22.02-.44.04-.67.06.02-.4.04-.79.05-1.19.32-.11.64-.22.95-.34l.36-.09c.19-.03.39-.07.58-.1.17.1.33.19.5.29-.08.46-.15.91-.23 1.37-.51-.16-1.02-.35-1.54 0z" fill="#7896ad"/><path d="m17.52 85.04c-.32.11-.64.22-.95.34.25-.69.5-1.37.75-2.06.46.04.93.09 1.39.13-.08.47-.16.94-.25 1.41-.19.03-.39.07-.58.1-.12.02-.24.05-.36.08z" fill="#032921"/><path d="m55.41 61.12c-.51.77-.9 1.66-1.56 2.26-.54.49.06.4.12.58-.49.22-.99.44-1.48.66.73-1.38 1.54-2.68 2.92-3.5z" fill="#9a837d"/><path d="m49.22 77.37c.13.98.27 1.96.4 2.94-.9-.87-.24-1.96-.4-2.94z" fill="#0f0708"/><path d="m48.72 73.32c.16-.51.31-1.03.47-1.54.1.59.23 1.19-.47 1.54z" fill="#9a837d"/><path d="m48.47 75.99c.08-.71.15-1.43.23-2.14-.07.71.27 1.47-.23 2.14z" fill="#063f32"/><path d="m48.47 80.56c0-.24 0-.48 0-.72.14.1.29.2.43.3-.14.14-.28.28-.43.42z" fill="#0f0708"/><path d="m49.2 75.96c.34.42.29.85.01 1.28 0-.42 0-.85-.01-1.28z" fill="#0f0708"/><path d="m19.66 77.19c-.08.08-.16.16-.24.24z" fill="#060b07"/><path d="m53.79 30.62c-.1.23-.2.46-.31.69-1.07-.17-1.44 1.05-2.36 1.19-.49.48-.97.96-1.46 1.43-.26.2-.52.4-.78.6-.38-.2-.76-.41-1.13-.61 0-.28 0-.57 0-.85.08-.09.16-.18.24-.27.07-.08.14-.16.21-.24.01-.24.02-.48.03-.72.08-.32.15-.64.23-.96.22-.56.45-1.1 1.21-.99.18-.15.35-.3.53-.44.47-.23.94-.45 1.41-.68.16-.1.32-.2.47-.29 0 0 0 .01 0 0 .33-.16.65-.32.98-.48.15-.01.3-.02.45-.04.24-.15.49-.3.73-.45 1.33-.37 2.36-.81 2.73-2.5.52-2.34 1.39-4.65 2.42-6.82.62-1.32 2.32-1.1 3.59-1.45.06.23.11.46.17.69-.02.23-.03.47-.05.7-.51.47-.46 1.09-.48 1.69-.08.32-.17.64-.25.96 0 0 .01-.01.01-.01-.07.08-.13.16-.2.25-.02.31-.03.62-.05.94-.15.25-.29.5-.44.75-.01.16-.02.31-.03.47-.15.32-.3.65-.44.97.2 1.64-1.5 1.57-2.18 2.42-.75.02-1.34.22-1.26 1.15-.39.25-.77.5-1.16.75-.93-.16-1.24.44-1.44 1.17l-.07.03s-.07-.01-.08-.01c-.51.19-1.19.16-1.24.96z" fill="#671507"/><path d="m69.38 19.8c.82-.48 1.47-1.33 2.59-1.15-.82.5-1.58 1.1-2.59 1.15z" fill="#9a837d"/><path d="m55.19 29.65c.2-.74.51-1.34 1.44-1.17-.36.53-.77 1.01-1.44 1.17z" fill="#9a837d"/><path d="m62.62 19.83c.02-.6-.03-1.23.48-1.69-.33.51.71 1.41-.48 1.69z" fill="#0f0708"/><path d="m57.79 27.73c-.08-.93.51-1.13 1.26-1.15-.42.38-.84.76-1.26 1.15z" fill="#9a837d"/><path d="m53.79 30.62c.04-.81.73-.78 1.25-.96-.27.31-.55.62-.82.93-.14.02-.28.03-.43.03z" fill="#9a837d"/><path d="m61.22 24.15c.15-.32.3-.65.44-.97-.03.38.16.85-.44.97z" fill="#0f0708"/><path d="m61.69 22.71c.15-.25.3-.5.44-.75.02.35.04.69-.44.75z" fill="#0f0708"/><path d="m62.37 20.79c.08-.32.17-.64.25-.96-.08.32-.16.64-.25.96z" fill="#0f0708"/><path d="m62.18 21.02c.07-.08.13-.16.2-.25-.07.09-.13.17-.2.25z" fill="#0f0708"/><path d="m65.52 22.24c-.02.03-.04.06-.06.09.02-.03.03-.07.05-.1-.01 0 .01.01.01.01z" fill="#01271e"/><path d="m50.85 27.98c-.08 0-.15.02-.22.06-.24.14-.49.28-.73.42-.08.07-.16.14-.23.21-2.01-.21-.49-1.78-.99-2.57 2.02-1.62 3.52-3.72 4.66-5.97.73-1.44 2.64-2.86 1.07-4.89 1.35-.42 2.73-.75 4.03-1.28 1.41-.57.97.41.79.93-1.16 3.46-2.36 6.91-3.59 10.35-.29.81-1.21.94-1.88 1.32-.24.15-.49.31-.73.46-.41.16-.81.32-1.22.48-.08 0-.15.01-.22.05-.25.15-.49.29-.74.43z" fill="#911e03"/><path d="m47.76 33.91c.38.2.76.41 1.14.61.15.07.31.14.46.21.11.07.21.14.32.21.14.04.29.09.43.13 1.98 2.03 4.96 2.15 7.16 3.77.86.63 1.72 1.25 2.58 1.88-.75.13-1.52-1.12-2.26.02-1.97-.38-3.58-5.06-5.97-.51-.4 0-.8.01-.97-.47.82-1.12.72-2.3-.38-3-1.82-1.15-3.71-2.26-5.97-2.41-.03-.54-.15-.98-.84-.85.63-.08 1.26-.16 1.89-.23.54.08 1.09.42 1.62-.03.25.23.52.45.79.67z" fill="#b9c9d8"/><path d="m54.4 15.26c1.57 2.03-.34 3.44-1.07 4.89-1.14 2.25-2.64 4.34-4.66 5.97-.14-.66-.28-1.32-.43-1.99.16-.22.32-.44.48-.66.16-.25.32-.49.48-.74.16-.16.31-.33.47-.49.15-.16.31-.31.46-.47.17-.31.34-.62.51-.92.3-.17.61-.35.91-.52.02-.22.04-.45.06-.67 1.01-1.18.64-2.85 1.45-4.11.15-.02.3-.04.45-.06.29-.1.59-.16.89-.23z" fill="#691506"/><path d="m53.06 15.52c-.8 1.26-.43 2.93-1.45 4.11-.08-.56-.5-.68-.96-.76.59-1.7.84-3.53 1.9-5.06.16.17.33.33.49.5v.48c-.32.27-1.13.16-.89.83.24.66.56-.31.91-.1z" fill="#110404"/><path d="m46.95 33.26c-.53.44-1.08.1-1.62.03-.08-1.34.53-2.02 1.9-1.95.01.23.02.46.03.69-.07.09-.14.19-.21.28-.03.31-.07.63-.1.95z" fill="#671507"/><path d="m48.24 24.12c.14.66.28 1.32.43 1.99.5.79-1.01 2.36.99 2.57-.99.59-1.46.35-1.44-.84.03-1.24.02-2.48.02-3.72z" fill="#110404"/><path d="m47.36 30.65c.12-1.64.24-3.28.36-4.92-.2 1.64.54 3.34-.36 4.92z" fill="#110404"/><path d="m53.06 15.52c-.34-.21-.67.76-.91.1-.24-.67.57-.56.89-.83.16.08.32.16.48.24v.43c-.16.02-.31.04-.46.06z" fill="#050606"/><g fill="#110404"><path d="m51.55 20.31c-.3.17-.61.35-.91.52-.16-.99.29-.91.91-.52z"/><path d="m51.81 27.5c.41-.16.81-.32 1.22-.48-.17.77-.78.4-1.22.48z"/><path d="m53.06 28c-.33.16-.65.32-.98.48.08-.64.59-.45.98-.48z"/><path d="m48.46 21.75c.24-.31.49-.62.73-.92.03.52-.01.99-.73.92z"/><path d="m54.24 27.52c-.24.15-.49.3-.73.45-.03-.6.21-.75.73-.45z"/><path d="m49.2 22.72c-.16.25-.32.49-.48.74-.01-.36-.01-.71.48-.74z"/><path d="m49.66 20.31c.16-.24.32-.49.48-.73.02.35.01.7-.48.73z"/><path d="m50.85 27.98c.25-.14.49-.29.74-.43-.06.46-.41.44-.74.43z"/><path d="m49.9 28.47c.24-.14.49-.28.73-.42-.07.45-.41.42-.73.42z"/><path d="m47.73 25.17c-.15-.03-.31-.05-.46-.08.07-.11.15-.23.22-.34.08.14.16.28.24.42z"/><path d="m50.13 21.75c-.15.16-.31.31-.46.47.15-.15.31-.31.46-.47z"/><path d="m48.46 30.88c-.08.32-.15.64-.23.96.08-.32.15-.64.23-.96z"/><path d="m53.02 27.03c.24-.15.49-.31.73-.46-.05.46-.38.47-.73.46z"/><path d="m50.2 29.45c-.18.15-.35.3-.53.44.18-.14.35-.29.53-.44z"/><path d="m49.66 22.23c-.16.16-.31.33-.47.49.16-.16.32-.33.47-.49z"/><path d="m46.32 24.15c.16-.15.31-.3.47-.45-.16.16-.32.3-.47.45z"/></g><path d="m53.51 15.03c.09-.14.17-.27.26-.41.33.4-.06.34-.26.41z" fill="#050606"/><path d="m47.26 23.19c.16-.16.33-.32.49-.48-.16.16-.33.32-.49.48z" fill="#110404"/><path d="m52.08 28.48c-.16.1-.32.2-.47.29.15-.09.31-.19.47-.29z" fill="#110404"/><path d="m49.32 20.77c.12-.15.23-.31.35-.46-.12.15-.23.31-.35.46z" fill="#110404"/><path d="m48 32.79c-.08.09-.16.18-.24.27.08-.09.16-.18.24-.27z" fill="#110404"/><path d="m48.2 32.56c-.07.08-.14.16-.21.24z" fill="#110404"/><path d="m47.05 32.31c.07-.09.14-.19.21-.28-.07.09-.14.18-.21.28z" fill="#110404"/><path d="m47.5 67.62c.08.23.15.46.23.69-1.51.24-2 1.55-2.69 2.63-.33.51-.64 1.02-.95 1.53-.38-.63-.9-1.22-1.09-1.9-.29-1.02-.93-1.67-1.72-2.26-1.86-3.59-8.6-6.82-12.37-6.4-.55.06-1.66-.39-1.77.84-.23.01-.46.03-.69.04 0-1.47 1.38-2.23 1.84-3.52.48-1.35 1.61-2.47 2.46-3.7.42.06.86.06 1.26.19 2.67.86 5.01 2.37 7.36 3.84.15.23.3.46.45.69-2.55-.35-4.4-2.8-7.3-2.3-.74.13-1.27.39-1.4.85-.17.64.15 1.31.97 1.53.79.22 1.59.3 2.34.78 2.18 1.42 4.44 2.73 6.7 4.03.28.16.8.16 1.09.01.17-.09.13-.63.12-.97-.05-1.8-1.97-2.43-2.5-3.94 2.33.79 3.64 2.83 5.33 4.39.77 1 1.55 1.98 2.33 2.95z" fill="#032921"/><path d="m39.36 59.61c-2.35-1.47-4.69-2.98-7.36-3.84-.4-.13-.84-.13-1.26-.19-.26-.13-.52-.26-.79-.39-.77-.49-1.55.05-2.33-.04-.18-.02-.37-.04-.55-.06-.13 0-.26 0-.38 0-.67-1.68 1.15-4.41 3.03-4.52 1.93.99 1.84-1.17 2.71-1.81.81-.6.45-1.13-.51-1.22-.62-.43-.87-.93-.28-1.58.84.96.98-1.13 1.76-.4-.59.72-.17 1.15.46 1.44 1.28.58 1 1.28.23 2.08-.55.57-1.16 1.11-1.57 1.78-.73 1.18-1.52 1.86-2.96 1.11-.41-.21-.97-.13-1.25.37-.23.42-.37.9-.56 1.35.42.07.83.14 1.25.2.63.09 1.34.01 1.87.28 3.09 1.62 5.75 1.52 7.77-1.68 1.04.65 1.34-.81 2.17-.76 0 .78-.73.99-1.16 1.43-.99 1.02-2.76 1.92-2.87 3-.12 1.19 2.06 1.38 3.08 2.25.09.07.14.18.22.28-.24.32-.48.62-.72.92z" fill="#b9c9d8"/><path d="m27.09 57.48c-.14 0-.28.01-.42.01-1.78-1.4-3.55-2.79-5.33-4.19.25-.28.51-.57.76-.85 1.82 1.37 3.65 2.74 5.47 4.11v.23c-.16.23-.32.46-.48.69z" fill="#cc7459"/><path d="m26.44 62.8c.23-.01.46-.03.69-.04 1.2.25 2.4.49 3.61.74-.55.1-.68.52-.74.99-1.26-.33-2.53-.66-3.79-.99.06-.23.14-.47.23-.7z" fill="#7896ad"/><path d="m27.57 56.79c0-.08 0-.15 0-.23-.18-.47 1.79-.87.05-1.4.77.09 1.56-.45 2.33.04-.37 1.15-.66 2.44-2.38 1.59z" fill="#671507"/><path d="m25.95 61.13c.08-1.38 1.35-2.1 1.82-3.27.11-.08.21-.16.32-.24 0 .16.05.35-.02.46-.7 1.03-1.41 2.04-2.12 3.05z" fill="#9a837d"/><path d="m22.83 65.68c.3-.15.6-.3.9-.44-.27.55-.52 1.11-.81 1.65-.09.18-.26.32-.39.48-.07-.23-.14-.47-.21-.71.17-.33.34-.65.51-.98z" fill="#9a837d"/><path d="m10.79 66.42c.74.3 1.48.6 2.22.91-.91.11-1.72-.03-2.22-.91z" fill="#0f0708"/><path d="m16.54 67.83c.81-.16 1.61-.31 2.42-.47-.65.99-1.63.24-2.42.47z" fill="#0f0708"/><path d="m24.03 64.69c.13-.65.18-1.36.94-1.66-.32.55-.63 1.1-.94 1.66z" fill="#9a837d"/><path d="m19.19 67.35c.56-.16 1.12-.32 1.67-.48-.33.91-1.11.31-1.67.48z" fill="#0f0708"/><path d="m22.83 65.68c-.17.33-.34.65-.51.98-.09-.1-.19-.19-.28-.29.26-.23.53-.46.79-.69z" fill="#0f0708"/><path d="m20.87 66.87c.32-.16.64-.31.96-.47.06.94-.62.35-.96.47z" fill="#0f0708"/><path d="m14.64 67.57c.49.09.97.17 1.46.26-.49-.09-.98-.18-1.46-.26z" fill="#0f0708"/><path d="m24.94 63.05c.07-.15.14-.3.21-.44-.07.14-.14.29-.21.44z" fill="#9a837d"/><path d="m25.28 62.46s.04-.02.03-.02c0 .01-.03.02-.03.02z" fill="#9a837d"/><path d="m49.62 12.61c.03-.31.06-.63.08-.94.14.19.33.37.39.58.02.07-.3.24-.47.36z" fill="#0f0708"/><path d="m49.89 10.71c.08-.4.16-.81.25-1.21-.08.4-.17.8-.25 1.21z" fill="#0f0708"/><path d="m52.73 13.1c.01-.31.02-.63.03-.94.38.32.4.64-.03.94z" fill="#110404"/><path d="m49.93 13.6c-.25.14-.49.28-.74.41.07-.45.41-.42.74-.41z" fill="#0f0708"/><path d="m48.73 14.08c-.17.14-.34.29-.51.43.18-.14.35-.28.51-.43z" fill="#0f0708"/><path d="m50.65 13.12c-.17.14-.34.29-.5.43.17-.14.34-.28.5-.43z" fill="#0f0708"/><path d="m51.66 12.66c-.18.13-.37.26-.55.39.18-.13.37-.26.55-.39z" fill="#0f0708"/><path d="m47.48 13.58c.24-.09.49-.19.73-.28-.24.09-.48.18-.73.28z" fill="#0f0708"/><path d="m52.59 12.17c-.16.1-.33.2-.49.3.16-.1.32-.2.49-.3z" fill="#0f0708"/><path d="m49.7 10.95c.07-.08.13-.17.2-.25-.07.08-.13.16-.2.25z" fill="#0f0708"/><path d="m78.96 70.7c.07.01.14.03.21.05.49.51.89 1.22 1.48 1.49 2.87 1.29 1.83 3.27.87 5.07-1.64 3.1-3.61 5.92-6.98 7.5-2 .94-2.69-.91-3.87-1.59-1.63-.94-3.05-2.24-4.55-3.39.04-.02.08-.02.11.01.55-.08 1.09-.16 1.64-.24.79.56 1.56 1.16 2.39 1.66.75.45 1.43-.03 1.94-.47.57-.49-.37-.59-.42-.98-.03-.21-.12-.41-.18-.62.29.05.67-.01.86.16 1.1.94 2.39-.34 2.29-.52-1.58-2.59 1.19-1.43 1.77-2.03 1.47-1.54-.64-2.11-.67-3.2.09-.07.17-.14.26-.22.53.26 1.07 1.11 1.58.61.56-.55.75-1.48.32-2.34-.01-.07-.03-.14-.04-.21.33-.24.66-.49.99-.74zm-.9 8.4c-.21 1.01-.76.69-1.28.45-.37-.17-.7-.41-1.03.09-.28.43-.69.77-.9 1.22-.11.23.71.49.29.83-.22.18-.78.09-1.12-.05-.87-.35-1.4.38-2.09.58-.01 0 .01.32.08.35.77.3 1.21 1.48 2.26.98.44-.21 1.22-.25 1.1-1.06-.02-.13-.65-.02-.32-.45.07-.09.56-.05.63.07.31.51.47.15.71-.05 2.21-1.86 3.59-4.28 4.76-6.88.46-1.04-.15-1.39-.83-1.75-.25-.13-.64-.6-.86.01-.24.67-.78 1.41.29 1.94.18.09.35.64.25.78-.17.23-.63.5-.85.42-1.4-.52-1.57.63-1.85 1.41-.07.26.52.76.76 1.11z" fill="#cc7459"/><path d="m84.97 63.52c.26-.89.45-1.81.8-2.67.17-.44.66-.49 1.1-.23-.26 1.07-.49 2.16-.81 3.21-.09.28-.51.69-.73.66-.54-.06-.29-.61-.36-.97z" fill="#110404"/><path d="m86.6 68.18c-.66 1.08-.61 2.49-1.92 2.97-.41.15-.55-.39-.42-.65.5-1.07.68-2.33 1.75-3.07.01-.01.38.5.59.75z" fill="#110404"/><path d="m88.54 60.45c.25.29.57.6.54.64-.75 1 .33 2.71-1.27 3.34-.07.03-.44-.35-.41-.43.48-1.08.01-2.49 1.14-3.55z" fill="#110404"/><path d="m56.88 81.27c0 .08-.01.16-.01.24-.32.09-.64.17-.96.26-2.01 1.26-3.09-.02-3.82-1.59-2.04-4.39-1.24-8.53 1.4-12.42 1.74-2.56 3.53-5.08 5.3-7.62.78-.44 1.42-1.01 1.67-1.92 1.68-1.08 3.35-2.18 5.05-3.23 1.51-.93 3.26-1.93 4.87-.81 1.58 1.1 1.13 2.91.42 4.5-.09.01-.18.03-.26.04-1.21-.37-2.4-.35-3.56.18-.17-.04-.34-.08-.51-.12-.55.14-1.11.28-1.66.42-.24.08-.48.16-.73.25-.16.08-.31.16-.47.24-5.44 1.89-7.75 6.15-7.17 13.2.06.16.13.33.19.49.41 1.27.82 2.54 1.23 3.81 0 .56-.01 1.13-.01 1.69-.65.32-.44.92-.47 1.44 0 .16-.01.31-.01.47-.18.16-.33.32-.49.48z" fill="#c32e02"/><path d="m70.53 58.72c.09-.01.18-.03.26-.04.31.13.79-.19.96.34.32.06.64.12.96.17.16.09.33.18.49.27.37.23.25 1.23 1.1.7.35.31.71.62 1.06.93.13 1.05-.41.8-.98.51-.01-.46-.27-.33-.52-.22-.46-.32-.93-.64-1.39-.97-.12-.35-.34-.46-.68-.28l-.03-.02c-.13-.56-.51-.11-.76-.18-.07.01-.14 0-.21-.04-.16-.07-.33-.14-.49-.22-.16 0-.31 0-.47 0-.08-.55.28-.77.7-.95z" fill="#f7baa5"/><path d="m76.29 63.03c.08.25.16.51.24.76v.14c-.06.18-.12.36-.18.54-.08.25-.17.5-.25.75 0 0 .02-.02.02-.02-.1.21-.21.43-.31.64-.14.19-.27.38-.41.57-.41.15-.82.3-1.23.45.18-.41.37-.81.55-1.22.05-.07.1-.14.15-.2v-.02c.08-.16.15-.33.23-.49.12-.54.25-1.08.37-1.62.28-.08.55-.18.82-.28z" fill="#f7baa5"/><path d="m75.62 67.82c.63.49 1.26.97 1.89 1.46-.03.54-.36.73-.86.71-.52-.63-1.04-1.25-1.55-1.88.17-.1.35-.19.52-.29z" fill="#f7baa5"/><path d="m76.65 69.99c.5.02.83-.17.86-.71.48.48.97.95 1.45 1.43-.33.25-.66.5-.99.75-.44-.49-.88-.98-1.32-1.47z" fill="#f7b59f"/><path d="m60.46 58.22c-.24.91-.89 1.47-1.67 1.92 0-.32 0-.63 0-.95.48-.47.96-.94 1.44-1.41.08.15.15.3.23.44z" fill="#962105"/><path d="m76.29 63.03c-.27.1-.54.19-.81.29-.81-.29-.56-1.26-1.1-1.72.57.29 1.11.54.98-.51.31.65.62 1.3.93 1.94zm-.88-.33c.02-.06.08-.14.07-.18-.02-.04-.11-.06-.18-.08-.03.06-.09.14-.07.18s.11.05.18.08z" fill="#f7b59f"/><path d="m75.62 67.82c-.17.1-.35.19-.52.29-.31-.41-.61-.83-.92-1.24.41-.15.82-.3 1.23-.45-.85.6-.01.95.21 1.4z" fill="#f7b59f"/><path d="m74.3 60.16c-.85.53-.73-.46-1.1-.7.56-.07.83.31 1.1.7z" fill="#f7b59f"/><path d="m72.71 59.19c-.32-.06-.64-.12-.96-.17.32.06.64.11.96.17z" fill="#f7b59f"/><path d="m75.81 65.85c.1-.21.21-.43.31-.64-.1.21-.21.42-.31.64z" fill="#f7b59f"/><path d="m76.1 65.23c.08-.25.17-.5.25-.75-.08.25-.16.5-.25.75z" fill="#f7b59f"/><path d="m76.53 63.94c0-.05 0-.09 0-.14.05.03.1.05.15.08-.04.01-.09.03-.15.06z" fill="#f7b59f"/><path d="m82.23 29.51c.76 1.08 1.51 2.16 2.27 3.24-2.82 1.61-5.39 3.49-6.98 6.44-1.18-.27-.34.7-.61.99-.74 1.06-1.79 2.02-2.15 3.2-.64 2.05-2.33 2.54-3.9 3.39-2.37 1.27-2.81-1.13-3.61-2.08-2.82-3.38-6.23-5.81-10.25-7.47-.89-.37-1.81-.67-2.7-1.04-.91-.38-.02-.58.13-.71 2.59-2.11 5.2-4.2 7.81-6.3.84.43 1.69.85 2.53 1.28-1.09 1.44-2.18 2.88-3.29 4.3-.39.5-.45 1.06-.16 1.56.28.5.79.5 1.36.38 2.4-.53 4.15-2.1 5.94-3.61.95.06 1.09 2.1 2.23 1.15.64-.53-.46-1.24-.83-1.84.51-.46 1.01-.94 1.55-1.38 2.15-1.74 4.32-3.47 6.48-5.21.24.09.48.17.72.26.01.64.71.55.98.91.11.1.22.19.33.29.72.74 1.44 1.49 2.15 2.25zm-6.41 8.53c.05-.07.1-.14.15-.21-.2-1.22-.95-1.96-2.06-2.4-.41-.56-1.01-.71-1.51-.33-.39.29.1.48.36.63.21.24.42.48.63.72l-.02-.05.33.21c.14.11.27.23.41.34.4.38.8.76 1.2 1.14.18.24.35.32.48-.03.01 0 .03-.02.03-.02z" fill="#01271e"/><path d="m63.13 27.99c1.84-.08 2.75-1.7 4.14-2.53 1.53-.92 2.88-2.14 4.31-3.24.61.26 1.22.52 1.84.78-.98 2.17-3.21 3.05-4.81 4.56-.86.82-1.66 1.98-3.07 2.11-.5-1-1.69-1.01-2.41-1.68z" fill="#01281f"/><path d="m57.58 40.74c.74-1.14 1.51.12 2.26-.02 1.12.93 2.28 1.83 3.03 3.12.07.75-.43.74-.95.71-1.45-1.27-2.89-2.54-4.34-3.81z" fill="#d0e4ea"/><path d="m73.18 21.25c.8-1.24 2.32-1.32 3.38-2.14.31.17.63.34.94.51.1.05.2.1.3.15h.06c-.84.96-1.81 1.75-3 2.23-.56-.25-1.12-.5-1.68-.75z" fill="#01281f"/><path d="m49.35 34.74c-.15-.07-.31-.14-.46-.21.26-.2.52-.4.78-.6.58-.39 1.4-.52 1.46-1.43.92-.13 1.28-1.36 2.36-1.19-.25 1.46-1.42 2.14-2.46 2.93-.33.25-.62.55-.93.83-.14-.04-.29-.09-.43-.13-.11-.06-.21-.13-.32-.2z" fill="#0a0606"/><path d="m63.13 27.99c.73.67 1.91.68 2.41 1.68-.06.44-.33.68-.75.77-.84-.43-1.69-.85-2.53-1.28-.21-.27-.82-.38-.49-.87.31-.48.86-.37 1.36-.3z" fill="#7896ad"/><path d="m65.02 46.01c.65.87 1.3 1.74 1.94 2.61-.4.22-.8.44-1.19.66-.49-.69-.97-1.37-1.46-2.06-.2-.66.55-.76.71-1.21z" fill="#7896ad"/><path d="m65.02 46.01c-.16.45-.91.55-.71 1.21-.8-.89-1.59-1.78-2.39-2.67.51.03 1.02.04.95-.71.72.72 1.43 1.45 2.15 2.17z" fill="#b9c9d8"/><path d="m73.18 21.25 1.68.75c.03.07.03.14.01.21-.25.34-.5.68-.76 1.02-.24-.08-.47-.15-.71-.23-.61-.26-1.22-.52-1.84-.78.24-.84.93-.92 1.62-.97z" fill="#7896ad"/><path d="m76.91 40.17c.26-.29-.57-1.26.61-.99.24.3.48.6.72.91.45.58.57 1.2.15 1.84-.61.94-.64-.06-.81-.3-.15-.21-.12-.54-.23-.79-.11-.24-.29-.45-.44-.67z" fill="#7896ad"/><path d="m77.51 19.61c-.31-.17-.63-.34-.94-.51.32-.55.76-.85 1.42-.72.3.17.61.35.91.52.02.07.04.13.06.2-.2.35-.39.7-.59 1.04-.17-.13-.33-.26-.5-.39h-.06c-.1-.03-.2-.08-.3-.14z" fill="#7896ad"/><path d="m67.91 50.51c-.34.17-.68.33-1.01.5-.3-.48-.59-.96-.89-1.44.32-.15.64-.31.97-.46.31.47.62.94.93 1.4z" fill="#0a0606"/><path d="m66.97 49.11c-.32.15-.64.31-.97.46 0 0 .01-.01.01-.01-.08-.1-.17-.19-.25-.29.4-.22.8-.44 1.19-.66v.01c0 .08-.01.16-.01.25.02.08.03.16.03.24z" fill="#aec6d5"/><path d="m78.44 44.79c-.15.24-.29.48-.44.73-.01-.34-.02-.67.44-.73z" fill="#0a0606"/><path d="m79.65 40.07c-.05-.04-.1-.07-.13-.11-.01-.01.03-.08.04-.09.06-.01.12.01.19.01-.03.06-.06.12-.1.19z" fill="#1c1715"/><path d="m66.95 48.87c0-.08.01-.16.01-.25.03.06.06.11.07.17.01.02-.05.05-.08.08z" fill="#7896ad"/><path d="m72.3 11.94c.99.23 1.75.3 1.12 1.34-.46.76-.74 1.61-1.16 2.39-.51.94-1.28 1.6-2.37 1.75-.2.03-.62-.12-.62-.19-.02-1.29.23-2.56 1.05-3.57.59-.72 1.42-1.25 1.98-1.72z" fill="#063f32"/><path d="m85.68 24.38c-.17.44-.15 1.07-.91.94-.94-.89-1.87-1.78-2.81-2.67-.69-.52-1.38-1.04-2.08-1.56.04-.68.51-.79 1.05-.81.57.34 1.14.69 1.71 1.03 1.02 1.03 2.03 2.05 3.04 3.07z" fill="#d0e4ea"/><path d="m82.65 21.31c-.57-.34-1.14-.69-1.71-1.03-.66-.39-1.32-.78-1.99-1.16-.02-.07-.04-.13-.06-.2 1.43-.82 2.89-2.41 4.25.09.49.88.36 1.68-.49 2.3z" fill="#064133"/><path d="m88.31 46.95c-.24.23-.48.47-.72.7.04-.44.28-.67.72-.7z" fill="#962105"/><path d="m65.77 49.28c.08.1.17.19.25.29-1.2.65-2.41 1.3-3.61 1.95-.12-1.17-.12-2.38-1.23-3.17-.05-.06-.1-.12-.14-.18-.11-.08-.22-.16-.33-.24l-.01-.01c-.07-.05-.14-.1-.21-.15-.49-.69-1.36-.33-1.92-.4-1.13-.15-2.57.29-3.04 1.53-.53 1.43-1.67 3.05.15 4.47.2.2.41.4.61.6.53.26 1.05.52 1.58.78-1.13 1.32-2.26 2.64-3.39 3.96-.08-1.49-.77-2.6-2.19-3.12-1.31-.47-2.62-.59-3.75.49-.26.24-.51.49-.77.73-.14.24-.28.47-.42.71-.21.59-.42 1.18-.63 1.77.01.23.03.47.04.7.09.37.19.75.28 1.12.08.16.16.31.24.47.03.08.05.16.08.23.35.62.86.98 1.6.95.39.1.78.21 1.17.31.17.05.33.1.5.15-.86 1.06-1.73 2.12-2.59 3.18-.66-.88-1.31-1.75-1.97-2.63-.17-.16-.33-.32-.5-.48-.15-.17-.3-.34-.45-.51-1.47-1.62-3.19-2.92-5.04-4.07-.07-.09-.13-.2-.22-.28-1.01-.87-3.2-1.06-3.08-2.25.11-1.08 1.88-1.97 2.87-3 .42-.44 1.16-.64 1.16-1.43 3.6-3.84 7.2-7.68 10.8-11.52 2.39-4.56 4 .12 5.97.51 1.45 1.27 2.9 2.54 4.34 3.81.8.89 1.59 1.78 2.39 2.67.49.69.97 1.37 1.46 2.06zm-17.75.41c-.09 0-.13.05-.13.14-.13.23-.26.47-.39.7-.19.06-.37.12-.56.17-.06.03-.08.08-.05.15-.29.36-1.01.6-.5 1.21.3.36.54.04.65-.3 1.57-.31 2.11-1.93 3.36-2.65.49.49-.09.61-.28.92-.51.84-.99 1.7-1.35 2.6-.1.24.19.82.46 1 1.22.8 1.14-.83 1.66-.98 2.14-.6 2.55-2.52 3.44-4.07.13-.23-.03-.66-.13-.98-.02-.07-.36-.1-.52-.05-.95.34-1.89.7-2.84 1.06.58-.67 1.17-1.32 1.74-2 .25-.3.55-.68.2-1.04-.32-.33-.66-.16-1.03.12-1.43 1.07-2.47 2.48-3.52 3.88-.06.01-.12.02-.17.03zm10.22-4.39c.61-.16 1.46.31 1.68-.56.18-.73-.35-1.3-.83-1.86-1.36-1.61-3.44-.74-5.03-1.52-.22-.11-.79-.01-.82.11-.09.3-.09.75.09.97 1.28 1.56 2.74 2.85 4.91 2.86zm-14.89 11.47c.36.04.78-.09.77-.66-.02-1.19-.93-1.43-1.86-1.58-.76-.12-1.63.39-1.53.89.24 1.22 1.54 1.06 2.62 1.35z" fill="#032921"/><path d="m50.63 63.22c-.17-.05-.33-.1-.5-.15-.19-.83.97-.85.95-1.58 1.37-.82 2.45-1.81 1.72-3.6-.61-1.51-1.91-1.19-3.11-1.07.47-1.6-.77-.49-1.16-.73 1.13-1.08 2.45-.96 3.75-.49 1.42.51 2.11 1.62 2.19 3.12-.03 2.56-1.79 3.66-3.84 4.5z" fill="#aec6d5"/><path d="m61.18 48.34c1.11.79 1.11 2 1.23 3.17-.71 1.61-1.61 3-3.62 3.09-.16-.46-.32-.92-.48-1.38.24-.09.48-.19.72-.28 2.05-.48 1.93-1.97 1.65-3.54.17-.35.34-.7.5-1.06z" fill="#aec6d5"/><path d="m46.07 63.76c.66.88 1.31 1.75 1.97 2.63.05.15.1.31.16.46-.45.06-.66.34-.69.77-.78-.98-1.56-1.95-2.34-2.93.38-.22 1.01-.2.9-.93z" fill="#aec6d5"/><path d="m58.31 53.23c.16.46.32.92.48 1.38 0 0-.04.01-.04.01-.82-.22-1.64-.43-2.46-.65-.2-.2-.41-.4-.61-.6.19-.52-.85-1.22.22-1.62.66.72 1.13 1.76 2.41 1.48z" fill="#d0e4ea"/><path d="m61.43 55.1c-.87 1.7-2.43 2.7-3.85 3.86.83-1.73 2.48-2.66 3.85-3.86z" fill="#9a837d"/><path d="m57.6 58.94c-.59.63-.77 1.72-1.93 1.7.39-.85.87-1.61 1.93-1.7z" fill="#9a837d"/><path d="m56.29 53.96c.82.22 1.64.43 2.46.65-.06.04-.13.08-.19.12-.11.03-.21.07-.32.1-.12-.03-.25-.06-.37-.09-.53-.25-1.06-.51-1.58-.78z" fill="#aec6d5"/><path d="m58.24 54.84c.11-.03.21-.07.32-.1-.11.03-.21.07-.32.1z" fill="#032921"/><path d="m79.88 21.09c.69.52 1.38 1.04 2.08 1.56-1.39.12-2.03 1.1-2.53 2.23-.48-.24-.95-.49-1.43-.73-.74-1.14-1.96-1.49-3.12-1.95.02-.07.01-.14-.01-.21 1.19-.48 2.16-1.27 3-2.23.17.13.33.26.5.39.5.32 1.01.63 1.51.94z" fill="#064133"/><path d="m78 24.15c.48.24.95.49 1.43.73.56.48 1.12.96 1.68 1.44-.31.34-1.07.2-1.01.93-.11-.1-.22-.19-.33-.29.41-1.1-.43-.85-.98-.91-.24-.09-.48-.17-.72-.26-.35-.29-.71-.57-1.06-.86-.1-.34-.19-.68-.29-1.02.42.08.85.16 1.28.24z" fill="#d0e4ea"/><path d="m80.09 27.25c-.05-.74.7-.6 1.01-.93.72.8 1.44 1.6 2.16 2.39-.35.26-.69.53-1.04.79-.7-.75-1.42-1.5-2.13-2.25z" fill="#aec6d5"/><path d="m88.07 29.97c-.08.13-.14.21-.2.3-.08-.06-.21-.12-.22-.19-.01-.08.08-.18.13-.27.09.04.18.09.29.16z" fill="#0a0606"/><path d="m10.8 50.02c-.03 2.41.26 4.83-.37 7.21-.29 1.08-1.04 1.63-2.02 1.67-3.17.13-5.03-1.32-5.52-4.47-.73-4.63.46-8.89 2.4-13.14 1.96-4.28 4.75-7.72 8.71-10.07 1.98-1.17 3.46-3.2 6.05-3.46 1.87-.18 2.73.59 3.16 2.21-2.05-.02-4.08.13-5.94 1.12-3.68 1.71-6.83 3.93-7.92 8.16-.05.16-.11.31-.16.47-.07.33-.14.67-.22 1 0 .3-.01.61-.01.91v1.22c-.25 2.63 1.24 4.79 1.84 7.17z" fill="#c32e02"/><path d="m8.97 40.74c.07-.33.14-.67.22-1 .05-.16.11-.31.16-.47 1.09-4.22 4.25-6.44 7.92-8.16 2.29-.42 4.56-1.1 6.94-.72.04.05.06.12.05.19.72.62 1.58.15 2.37.3.32.09.65.19.97.28.16.06.32.13.48.19.15.11.31.22.46.33-.02.95-.76.53-1.22.65-.07-.01-.14-.03-.21-.06-.23-.7-.81-.35-1.25-.41-.31-.08-.61-.16-.92-.24-.15-.09-.31-.17-.46-.26-.41.01-.81.03-1.22.04-.09-.05-.17-.1-.26-.14-.42-.57-.79-.23-1.17.07-.32 0-.65-.01-.97-.01-.08 0-.15 0-.23 0-.09.02-.17.03-.26.05-.48.13-1.13-.31-1.43.42-.08.02-.15.04-.23.06-.24.08-.47.16-.71.24-4.82 2.24-8.16 5.52-7.94 11.31 0 .05.01.1.04.14.03.19.05.38.08.57-.04.07-.08.14-.11.21l-.01.01c-.37.34-.7.62-.73-.23-.02-.43.25-.97-.38-1.22 0-.41 0-.82 0-1.22.02-.32.02-.62.02-.92zm.74-1.07c0 .05 0 .11-.01.16.02-.02.06-.05.06-.07 0-.03-.03-.06-.05-.09z" fill="#fabfab"/><path d="m8.96 42.87c.62.25.36.8.38 1.22.03.85.36.57.73.23.88.76.14 2.16 1.14 2.88.95 3.17 3.42 5.21 5.71 4.17 2.25-1.03 3.67-.28 5.18 1.08-.25.28-.51.57-.76.85-1.3-1.43-2.59-1.59-4.47-.74-2.65 1.2-4.38-.87-6.07-2.54-.6-2.38-2.09-4.54-1.84-7.15z" fill="#f7b59f"/><path d="m38.65 38.97c-.6-1.28.55-1.67 1.18-2.32.36.86.93.38 1.45.22-.53.88-1.76 1.76.01 2.66.12.06.21.35.19.52-.26 2.27-3.07 3.77-4.83 2.56-.38-.26-.6-.26-.89.02-1.26-1.46-1.24.87-2.06.7.06-.32.13-.64.19-.95.13-.14.26-.29.4-.43.84-.29 1.39-1.3 2.47-.99.49.49 1.12 1.52 1.59 1.16 1.03-.77 3.01-1.87.3-3.15zm-2.26 3.04c-.04-.1-.06-.22-.09-.22-.11 0-.21.04-.31.07.03.08.05.23.08.23.1 0 .2-.05.32-.08z" fill="#b9c9d8"/><path d="m27.32 32.32c.46-.11 1.2.3 1.22-.65 2.19 1.25 3.25 2.92 2.19 5.49-.53 1.28.6 1.8 1.27 2.53-.27.34-.54.68-.81 1.01-1.14-.68-2.55-1.66-2.03-2.94 1.04-2.54.4-4.17-1.84-5.44z" fill="#f7b59f"/><path d="m20.89 26.29c-.56-.79.22-1.08.61-1.4 1.55-1.28 4.02-1.89 4.67-1.22-1.47 1.46-3.37 2.06-5.28 2.62z" fill="#110404"/><path d="m31.76 23.99c-.39.26-.65.49-.95.61-1.31.54-2.62 1.06-3.94 1.58-.2.08-.41.13-.62.2-.05-.18-.17-.38-.13-.54.22-1 4.12-2.74 5.05-2.27.15.08.29.21.59.42z" fill="#110404"/><path d="m41.28 36.87c-.52.16-1.09.64-1.45-.22.91-.88 1.82-1.76 2.74-2.64.13-.08.5.2.39-.25.16-.08.33-.16.49-.24.7-.13.82.31.84.85 0 0-.02.02-.02.02-.12.1-.24.19-.36.29-.88.72-1.76 1.46-2.63 2.19z" fill="#d0e4ea"/><path d="m31.44 21.78c-.61-.3-1.74.72-1.79-.2s1.27-.94 2.11-1.02 1.69 0 2.54.01c.59 1.71-.8 1-1.44 1.15-.45.11-.94.05-1.42.06z" fill="#110404"/><path d="m38.65 38.97c2.72 1.28.73 2.37-.29 3.15-.47.36-1.1-.67-1.59-1.16.6-.68 1.95-.66 1.88-1.99z" fill="#671507"/><path d="m31.19 40.71c.27-.34.54-.68.81-1.01.78.73 1.99 1.03 2.29 2.26-.13.14-.26.29-.4.43-1.3.09-1.83-1.08-2.7-1.68z" fill="#cc7459"/><path d="m24.21 30.39c-2.38-.37-4.64.31-6.94.72 1.86-.99 3.89-1.14 5.94-1.12.41.14.83.27 1.24.41 0 0 .02-.01.02-.01-.08 0-.17 0-.26 0z" fill="#f7b59f"/><path d="m10.78 63.03c-.28.42-.58 1.2-.84 1.18-.48-.02-1-.47-.83-1.18.56.41 1.12.13 1.67 0z" fill="#911e03"/><path d="m26.63 30.87c-.78-.15-1.64.32-2.37-.3.07-.06.15-.13.22-.19 0 0-.02.01-.02.01.72.17 1.44.33 2.17.48z" fill="#f7b59f"/><path d="m42.95 33.76c.11.45-.26.17-.39.25.13-.08.26-.17.39-.25z" fill="#b9c9d8"/><path d="m28.08 31.35c-.16-.06-.32-.13-.48-.19.16.06.32.12.48.19z" fill="#f7b59f"/><path d="m39.49 28.04c-.72.06-1.19.04-1.43-.5-.31-.7-.07-1.39.33-1.9 2.07-2.62 4.12-5.26 6.36-7.73.68-.75 1.98-1.7 3.03-.92 1.32.98.13 2.6-.31 3.31-1.79 2.91-4.19 5.38-6.96 7.45-.32.23-.81.24-1.02.29z" fill="#c32e02"/><path d="m20.16 82.26c-.17-.08-.33-.17-.5-.25 1.4-2.81 2.93-5.55 4.14-8.44.76-1.81 1.74-3.39 2.92-4.93.88-1.15 1.86-1.48 3.06-.78 1.09.64 1.74 1.78 1.59 2.99-.41 3.31-1.59 6.38-3.3 9.26-.98 1.64-1.84 3.36-2.75 5.04-1.7-1-3.07-2.58-5.16-2.89z" fill="#064133"/><path d="m35.55 70.94c3.14.04 5.36 2.42 5.13 5.02-.09 1.05-.53 1.92-1.56 2.13-1.09.22-1.98-.61-2.36-1.43-.58-1.28-1.26-2.46-2.05-3.6-1.12-1.6-.29-2.07.84-2.12z" fill="#063f32"/><path d="m40.56 69.26c.32.48.64.97.96 1.45-1.06.34-1.43-1.08-2.41-.96-1.53-1.73-3.42-2.95-5.5-3.9.34-.32.69-.64 1.03-.96 2.34.97 4.18 2.59 5.92 4.37z" fill="#d0e4ea"/><path d="m39.11 69.75c.98-.13 1.34 1.29 2.41.96 1.35 1.35 1.87 3.15 2.63 4.82-.33.48-.66.97-.99 1.45-.06-.02-.11-.03-.17-.04-.59-2.78-2.13-5.04-3.88-7.19z" fill="#b9c9d8"/><path d="m20.16 82.26c2.09.3 3.46 1.89 5.15 2.9.36.54.73 1.07 1.09 1.61-.26.34-.51.67-.77 1.01-.38-.43-.76-.86-1.14-1.29-.03-.13-.06-.25-.1-.38.68-1.99-1.61-1.35-2.11-2.35-.14-.28-.65-.05-.72.42-.64-.25-1.27-.5-1.91-.75.18-.38.35-.77.51-1.17z" fill="#aec6d5"/><path d="m34.65 64.89c-.34.32-.69.64-1.03.96-1.21-.46-2.42-.91-3.63-1.37.07-.46.19-.89.74-.99 1.42.14 2.7.69 3.92 1.4z" fill="#aec6d5"/><path d="m57.84 77.18c-.41-1.27-.82-2.54-1.23-3.81.38-.01.72-.07.76-.55l1.11 2.52c.18.46.47.91.53 1.39.12.97 1.45 1.28 1.23 2.39-.05.05-.09.1-.14.14.04-.06.08-.11.12-.17.68-.05 1.61.16 2-.2 1.77-1.67 3.42-1.23 5.12 0l.54.69c-.55.08-1.09.16-1.64.24-.93-.64-1.63-.95-2.83-.07-2.21 1.62-3.65-.32-5.1-1.68-.15-.29-.31-.59-.47-.89z" fill="#f7b59f"/><path d="m57.84 77.18c.16.3.32.6.47.9-.01.36.02.74-.48.79 0-.56.01-1.12.01-1.69z" fill="#962105"/><path d="m57.36 80.31c.04-.52-.17-1.12.47-1.44-.14.49.35 1.18-.47 1.44z" fill="#962105"/><path d="m55.91 81.77c.32-.09.64-.17.96-.26-.36.71-.58.77-.96.26z" fill="#962105"/><path d="m56.88 81.27c.15-.16.31-.33.46-.49-.15.17-.3.33-.46.49z" fill="#962105"/><path d="m34.65 64.89c-1.22-.71-2.49-1.26-3.92-1.39-1.2-.25-2.4-.49-3.61-.74.11-1.23 1.23-.78 1.77-.84 3.78-.42 10.51 2.81 12.37 6.4-.24.31-.48.63-.71.94-1.73-1.78-3.57-3.4-5.9-4.37z" fill="#060b07"/><path d="m27.54 90.25c-.01-.18-.02-.37-.03-.55 0 .19.02.37.03.55z" fill="#01281f"/><path d="m17.18 86.5c.52-.36 1.04-.17 1.55 0 .23.1.46.2.7.3.66.55 1.32 1.1 1.98 1.66.15.32.31.63.46.95-2.48 1.56-3.83 1.19-4.23-1.18-.08-.44-.07-.43.51-.78.06-.04.07-.2.07-.31 0-.75-.63-.53-1.04-.64z" fill="#064133"/><path d="m21.87 89.42c-.15-.32-.31-.63-.46-.95.52.02 1.06.07 1.14-.67.16.15.31.3.47.45.07.4.56.74.15 1.19-.37.07-.74.58-1.12.02-.07-.03-.12-.05-.18-.04z" fill="#b9c9d8"/><path d="m23.01 88.24c-.16-.15-.31-.3-.47-.45-.61-.59-1.23-1.17-1.84-1.76-.51-.43-.98-.94-1.74-.9-.17-.1-.33-.19-.5-.29.08-.47.16-.94.25-1.41h.95c.64.25 1.27.5 1.91.75.94.64 1.89 1.28 2.83 1.93.03.13.06.25.1.38-.27.78-.68 1.43-1.49 1.75z" fill="#064133"/><path d="m18.96 85.14c.76-.05 1.23.47 1.74.9-.54.06-1.22-.1-1.28.77-.23-.1-.46-.2-.7-.3.09-.46.17-.92.24-1.37z" fill="#aec6d5"/><path d="m17.52 85.04c.12-.03.24-.06.36-.09-.12.03-.24.06-.36.09z" fill="#064133"/><path d="m51.13 32.5c-.06.91-.88 1.05-1.46 1.43.49-.48.98-.95 1.46-1.43z" fill="#9a837d"/><path d="m41.28 36.87c.88-.73 1.75-1.47 2.63-2.2.12-.1.24-.19.36-.29 0 0 .02-.02.02-.02 2.25.15 4.15 1.26 5.97 2.41 1.11.7 1.21 1.87.38 3-4 4.25-8 8.5-12 12.75-2.02 3.2-4.68 3.3-7.77 1.68-.53-.29-1.24-.2-1.87-.29-.42-.06-.83-.13-1.25-.2.18-.45.32-.93.56-1.35.27-.5.84-.58 1.25-.37 1.45.75 2.23.06 2.96-1.11.41-.66 1.02-1.2 1.57-1.78.76-.8 1.04-1.5-.23-2.08-.63-.29-1.05-.72-.46-1.44v-.01c.17-.15.35-.29.52-.44l-.05-.04.06.03c.06-.1.12-.21.18-.31.55-.72 1.1-1.45 1.65-2.17.29-.28.5-.29.89-.02 1.76 1.21 4.57-.29 4.83-2.56.02-.17-.07-.46-.19-.52-1.78-.9-.55-1.78-.01-2.67zm5.32 3.35c-.15-.24-.55-.44-1.25-.37-1.77.18-2.81 1.31-3.86 2.57-2.13 2.58-4.26 5.17-5.95 8.06-.25.43-.42 1.36-.23 1.5.6.43 1.15-.18 1.68-.5 2.6-1.59 4.5-3.96 6.58-6.1 1.31-1.34 2.94-2.63 3.03-5.16z" fill="#032921"/><path d="m38.64 52.51 12-12.75c.16.48.57.47.97.47-3.6 3.84-7.2 7.68-10.8 11.52-.83-.04-1.13 1.42-2.17.76z" fill="#d0e4ea"/><path d="m49.35 34.74c.11.07.21.14.32.21-.11-.07-.21-.14-.32-.21z" fill="#030906"/><path d="m39.82 60.3c.54 1.5 2.45 2.13 2.5 3.94.01.34.05.88-.12.97-.28.15-.8.16-1.09-.01-2.26-1.3-4.52-2.61-6.7-4.03-.75-.49-1.55-.57-2.34-.78-.82-.22-1.14-.89-.97-1.53.13-.46.65-.73 1.4-.85 2.9-.5 4.75 1.95 7.3 2.3.01-.01.02-.01.02-.01z" fill="#063f32"/><path d="m39.82 60.3h-.01c-.15-.23-.3-.46-.45-.69.24-.3.48-.6.71-.91 1.85 1.14 3.58 2.45 5.04 4.07.15.17.3.34.45.51.17.16.33.32.5.48.12.72-.52.71-.91.93-1.69-1.55-2.99-3.6-5.33-4.39z" fill="#d0e4ea"/><path d="m31.19 40.71c.87.61 1.4 1.77 2.7 1.68-.06.32-.13.64-.19.95-.06 0-.09.03-.09.09-.04.05-.09.1-.13.16-.06.08-.11.15-.17.23-.33.39-.65.79-.98 1.18-.23.33-.46.65-.69.98-.59.65-.34 1.15.28 1.58-.73 1.01-1.47 2.01-2.2 3.02-1.87.11-3.7 2.83-3.03 4.52.13.29.26.25.38 0 .18.02.37.04.55.06 1.74.53-.23.93-.05 1.4-1.82-1.37-3.65-2.74-5.47-4.11-1.51-1.37-2.93-2.11-5.18-1.08-2.29 1.05-4.75-1-5.71-4.17.13-.1.37-.19.39-.31.48-2.68 1.95-4.85 3.62-6.86 2.51-3.03 6.19-4.97 8.04-8.63.41-.01.81-.03 1.22-.04.15.09.31.17.46.26.31.08.61.16.92.24.42.14.83.28 1.25.41.07.03.14.05.21.06 2.24 1.27 2.87 2.89 1.83 5.44-.51 1.28.9 2.25 2.04 2.94zm-16.3 5.94.04.05c.06.24.12.47.19.71.73 1.07 1.77 1.56 3 1.29 1.19-.26 2.03-1.13 2.21-2.34.17-1.21-.24-2.3-1.32-3.04-.25-.12-.51-.24-.76-.36-1.83-.46-2.69.66-3.38 2.07-.05.15-.09.3-.14.46.02.28.03.56.05.83.04.11.07.22.11.33zm6.43-6.87c.87 1.96 2.34 2.55 4.12 1.4 1.93-1.25 1.54-3.18.7-4.85-.71-1.42-1.99-1.76-3.38-.68-.87.48-1.69 1.01-1.65 2.18-.51.72-.01 1.32.21 1.95zm1.75 9.3c.65 1.02 1.54 1.64 2.77 1.43 1.39-.24.71-1.37.74-2.14.03-.71.53-.82 1-.94 1.23-.32 1.92-1.05 1.93-2.36.02-1.31-.84-1.75-1.92-1.96-4.63-.15-6.29 2.04-4.52 5.97z" fill="#952004"/><path d="m33.3 43.82c.06-.08.11-.15.17-.23.07-.03.12-.08.13-.16 0-.06.03-.09.09-.09.82.16.79-2.16 2.06-.7-.55.72-1.1 1.45-1.65 2.17-.06.1-.12.21-.18.31l-.06-.03s.05.04.05.04c-.38-.1-.55.05-.52.44v.01c-.79-.73-.93 1.36-1.76.4.23-.33.46-.65.69-.98.66-.12 1.19-.35.98-1.18z" fill="#d0e4ea"/><path d="m29.72 50.58c.73-1.01 1.47-2.01 2.2-3.02.96.09 1.32.61.51 1.22-.87.63-.78 2.79-2.71 1.8z" fill="#671507"/><path d="m27.08 55.09c-.13.25-.26.29-.38 0z" fill="#671507"/><path d="m67.35 78.9c-1.7-1.23-3.35-1.67-5.12 0-.39.36-1.32.15-2 .2l.02.02c.22-1.11-1.11-1.42-1.23-2.39-.06-.48-.34-.93-.53-1.39.25-.23.61-.42.74-.7 1.61-3.66 4.07-6.73 6.58-9.79 1.32-1.61 2.52-3.3 3.78-4.95 0 0-.01.01-.01.01.09-.05.18-.1.27-.15l-.01-.08h.47c.16.07.33.14.49.22.07.04.13.05.21.04.26.06.51.12.77.18l.03.02c.23.09.45.19.68.28.46.32.93.64 1.39.97.17.07.35.15.52.22.54.46.29 1.43 1.1 1.72-.12.54-.25 1.08-.37 1.62-.08.16-.15.33-.23.49v.02c-.05.07-.1.14-.15.2-.18.41-.37.81-.55 1.22.31.41.61.83.92 1.24.52.63 1.04 1.25 1.55 1.88.44.49.88.98 1.32 1.46.01.07.02.14.04.21-.63.58-1.27 1.15-1.9 1.73-.09.07-.17.14-.26.22-.4.2-.87.32-1.2.61-.93.81-1.75 1.79-3.13 1.81-.28-.81-.13-1.14.85-1.35 1.21-.26 2.22-1.02 1.53-2.58-.69-1.57-2.02-1.85-3.51-1.58-2.31.42-2.7 2.05-2.41 4.06 0 .15.01.31.01.46.3 1 .67 1.95 1.85 2.21-.47 1.11-1.44 1.44-2.51 1.64zm1.7-15.05c-1.28.29-2.51 1.08-2.5 2.68.01 1.51.68 3.1 2.51 3.12 1.71.03 3.3-.74 3.32-2.77.03-1.89-1.15-2.88-3.33-3.03zm-2.57 9.02c.16-1.51-.68-2.47-1.98-2.53-1.99-.1-3.65.92-3.75 3.02-.07 1.49 1.1 2.59 2.76 2.66 2.19.1 2.74-1.4 2.97-3.15z" fill="#962105"/><path d="m67.35 78.9c1.07-.2 2.05-.53 2.49-1.66.93.1 1.48-.32 1.68-1.22 1.38-.02 2.2-1 3.13-1.81.33-.28.8-.41 1.2-.61.03 1.09 2.14 1.66.67 3.2-.57.6-3.35-.57-1.77 2.03.11.18-1.19 1.46-2.29.52-.19-.16-.57-.11-.86-.16.06.21.16.41.18.62.05.38.99.49.42.98-.51.44-1.2.92-1.94.47-.83-.5-1.59-1.1-2.39-1.66-.17-.24-.35-.47-.52-.7z" fill="#691506"/><path d="m78.06 79.1c-.24-.35-.83-.85-.73-1.11.27-.78.44-1.94 1.85-1.41.21.08.67-.18.85-.42.1-.14-.07-.69-.25-.78-1.07-.53-.53-1.28-.29-1.94.22-.61.61-.14.86-.01.68.36 1.3.71.83 1.75-1.16 2.6-2.55 5.02-4.76 6.88-.24.2-.4.56-.71.05-.07-.12-.56-.16-.63-.07-.34.43.3.32.32.45.12.81-.65.84-1.1 1.06-1.05.5-1.49-.68-2.26-.98-.06-.03-.09-.35-.08-.35.69-.2 1.21-.93 2.09-.58.34.14.9.23 1.12.05.42-.34-.4-.6-.29-.83.21-.45.62-.8.9-1.22.32-.5.66-.27 1.03-.09.49.24 1.04.56 1.25-.45z" fill="#691506"/><path d="m76.11 73.39c.63-.58 1.27-1.15 1.9-1.73.44.86.25 1.79-.32 2.34-.51.49-1.05-.36-1.58-.61z" fill="#691506"/><path d="m57.38 72.82c-.04.48-.39.54-.76.55-.06-.16-.13-.33-.19-.49-.58-7.05 1.74-11.31 7.17-13.2.26.13.47.16.47-.24.24-.08.48-.16.73-.25.55-.14 1.11-.28 1.66-.42l.51.12c.87.41.87.41.02 1.04v-.01c-.08.04-.17.08-.25.12-.38.04-.76.09-1.14.13-.38.01-.85-.21-1.04.37-.04.08-.1.11-.19.1-.25.1-.5.2-.75.29-2.64 1.33-4.91 2.95-5.87 6.02-.64 1.99-.25 3.92-.37 5.87z" fill="#fabfab"/><path d="m66.98 59.95c.86-.63.86-.63-.02-1.04 1.16-.53 2.35-.55 3.56-.18-.42.18-.78.4-.7.95 0 0 .01.08.01.08-.09.05-.18.1-.27.15 0 0 .01-.01.01-.01-.86-.56-1.71.23-2.59.05z" fill="#f7b59f"/><path d="m66.46 58.78c-.55.14-1.11.28-1.66.42.55-.14 1.11-.28 1.66-.42z" fill="#f7b59f"/><path d="m64.07 59.44c0 .4-.21.36-.47.24.16-.08.32-.16.47-.24z" fill="#f7b59f"/><path d="m56.43 72.88c.06.16.13.33.19.49-.07-.17-.13-.33-.19-.49z" fill="#f7b59f"/><path d="m71.77 60.11c-.26-.06-.51-.12-.77-.18.25.07.63-.38.77.18z" fill="#f7b59f"/><path d="m72.47 60.41c-.23-.09-.45-.19-.68-.28.34-.18.56-.07.68.28z" fill="#f7b59f"/><path d="m74.39 61.6c-.17-.07-.35-.15-.52-.22.25-.11.51-.24.52.22z" fill="#f7b59f"/><path d="m70.79 59.89c-.16-.07-.33-.14-.49-.22.16.08.32.15.49.22z" fill="#f7b59f"/><path d="m74.88 65.43c.08-.16.15-.33.23-.49-.08.16-.15.33-.23.49z" fill="#f7b59f"/><path d="m74.73 65.65c.05-.07.1-.14.15-.2-.05.07-.1.14-.15.2z" fill="#f7b59f"/><path d="m75.41 62.7c-.06-.03-.16-.04-.18-.09s.04-.12.07-.18c.06.03.16.04.18.08.02.05-.04.12-.07.19z" fill="#f7baa5"/><path d="m77 24.94c.35.29.71.57 1.06.86-2.16 1.73-4.33 3.46-6.48 5.21-.54.43-1.03.92-1.55 1.38-.64-.34-1.28-.68-1.92-1.02-.15-.06-.29-.13-.44-.19-.16-.01-.32-.01-.48-.02-.06.07-.13.13-.19.2.06.16.11.32.17.48.09.06.18.12.27.18.4.35.79.7 1.19 1.05-1.79 1.51-3.54 3.07-5.94 3.61-.57.13-1.08.13-1.36-.38-.28-.5-.22-1.06.16-1.56 1.1-1.43 2.19-2.87 3.29-4.3.42-.09.69-.32.75-.77 1.41-.13 2.2-1.29 3.07-2.11 1.6-1.51 3.83-2.39 4.81-4.56.24.08.47.15.71.23.96.57 1.92 1.14 2.88 1.71z" fill="#064133"/><path d="m67.18 31.84c-.06-.16-.11-.32-.17-.48.06-.07.13-.13.19-.2.16.01.32.01.48.02.15.06.29.13.44.19.64.34 1.28.68 1.92 1.02.37.6 1.47 1.31.83 1.84-1.15.95-1.28-1.09-2.23-1.15-.4-.35-.79-.7-1.19-1.05-.09-.07-.18-.13-.27-.19z" fill="#d0e4ea"/><path d="m73.4 36.45c-.21-.24-.42-.48-.63-.72.38-.1.77-.2 1.15-.29 1.11.44 1.86 1.18 2.06 2.4-.05.07-.1.14-.15.21 0 0-.02.02-.02.02-.16.01-.32.02-.48.03-.4-.38-.8-.76-1.2-1.14-.14-.11-.27-.23-.41-.34-.11-.07-.22-.14-.33-.21-.01-.01.01.04.01.04z" fill="#d0e4ea"/><path d="m73.91 35.43c-.38.1-.77.2-1.15.29-.26-.15-.75-.34-.36-.63.5-.37 1.11-.21 1.51.34z" fill="#aec6d5"/><path d="m78.78 26.06c.55.06 1.39-.19.98.91-.27-.37-.96-.27-.98-.91z" fill="#aec6d5"/><path d="m73.71 36.61c.14.11.27.23.41.34-.14-.11-.27-.22-.41-.34z" fill="#aec6d5"/><path d="m75.32 38.09.48-.03c-.14.35-.3.27-.48.03z" fill="#aec6d5"/><path d="m75.82 38.04c.05-.07.1-.14.15-.21-.05.07-.1.14-.15.21z" fill="#aec6d5"/><path d="m73.4 36.45s-.02-.05-.02-.05.02.05.02.05z" fill="#aec6d5"/><path d="m77.51 19.61c.1.05.2.1.3.15-.1-.04-.2-.09-.3-.15z" fill="#064133"/><path d="m77 24.94c-.96-.57-1.92-1.14-2.88-1.71.25-.34.5-.68.76-1.02 1.16.46 2.38.81 3.12 1.95-.43-.08-.86-.15-1.28-.23.09.33.18.67.28 1.01z" fill="#aec6d5"/><path d="m79.88 21.09c-.51-.31-1.01-.62-1.52-.93.2-.35.39-.7.59-1.04.66.39 1.32.78 1.99 1.16-.55.01-1.02.13-1.06.81z" fill="#b9c9d8"/><path d="m50.84 48.62c.94-.36 1.88-.72 2.84-1.06.16-.06.5-.02.52.05.1.32.26.75.13.98-.89 1.55-1.31 3.47-3.44 4.07-.52.15-.44 1.77-1.66.98-.27-.18-.55-.76-.46-1 .36-.9.85-1.76 1.35-2.6.18-.3.77-.42.28-.92.14-.17.29-.33.44-.5z" fill="#063f32"/><path d="m58.24 45.3c-2.16-.01-3.63-1.31-4.92-2.87-.18-.22-.18-.67-.09-.97.03-.11.6-.21.82-.11 1.59.79 3.67-.09 5.03 1.52.48.57 1.01 1.13.83 1.86-.21.89-1.06.41-1.67.57z" fill="#063f32"/><path d="m55.9 51.75c-1.08.4-.03 1.09-.22 1.62-1.82-1.42-.69-3.04-.15-4.47.46-1.24 1.91-1.68 3.04-1.53.56.07 1.43-.29 1.92.4.07.05.14.1.21.15 0 0 .01.01.01.01.11.08.22.16.33.24.05.06.1.12.14.18-.17.35-.33.71-.5 1.06-1.28-.56-2.57-1.29-3.76.18-.97.41-1.21 1.19-1.02 2.16z" fill="#b9c9d8"/><path d="m50.84 48.62c-.15.16-.3.33-.45.49-1.25.72-1.79 2.34-3.36 2.65-.05-.31-.1-.61-.15-.92-.03-.07-.01-.11.05-.15.25.15.54.41.56-.17.13-.23.26-.47.39-.7.08-.01.12-.06.13-.14 0 0 .05-.07.05-.07s.09 0 .09 0l.08-.03c1.05-1.4 2.09-2.81 3.52-3.88.37-.28.71-.45 1.03-.12.35.36.05.74-.2 1.04-.56.68-1.15 1.34-1.74 2z" fill="#d0e4ea"/><path d="m48.53 56.08c.39.24 1.63-.87 1.16.73h.01c-.08.08-.17.17-.25.25-.02.06-.03.11-.04.17-1.31.47-1.98 1.33-1.6 2.75.4 1.46 1.41 1.89 2.82 1.54.15-.01.3-.02.45-.03.02.73-1.14.75-.95 1.58-.39-.1-.78-.21-1.17-.31-.18-.91-.98-.78-1.6-.95-.03-.08-.05-.16-.08-.23-.08-.16-.16-.31-.24-.47-.09-.37-.19-.75-.28-1.12-.01-.23-.03-.47-.04-.7.21-.59.42-1.18.63-1.77.14-.24.28-.47.42-.71.25-.24.5-.48.76-.73z" fill="#d0e4ea"/><path d="m43.35 56.77c-1.08-.29-2.39-.14-2.63-1.35-.1-.5.77-1.01 1.53-.89.93.15 1.84.39 1.86 1.58.02.57-.4.71-.76.66z" fill="#063f32"/><path d="m46.89 50.85c.05.31.1.61.15.92-.11.34-.35.66-.65.3-.51-.62.21-.86.5-1.22z" fill="#aec6d5"/><path d="m47.36 61.82c.62.17 1.42.04 1.6.95-.74.02-1.25-.33-1.6-.95z" fill="#aec6d5"/><path d="m47.76 56.81c-.14.24-.28.47-.42.71.14-.23.28-.47.42-.71z" fill="#aec6d5"/><path d="m45.57 63.28c-.15-.17-.3-.34-.45-.51.15.17.3.34.45.51z" fill="#aec6d5"/><path d="m47.5 50.53c-.02.58-.31.33-.56.17.19-.05.37-.11.56-.17z" fill="#aec6d5"/><path d="m47.03 61.11c.08.16.16.31.24.47-.07-.15-.16-.31-.24-.47z" fill="#aec6d5"/><path d="m46.71 59.29c.01.23.03.47.04.7-.01-.23-.03-.47-.04-.7z" fill="#aec6d5"/><path d="m60.69 47.92c-.07-.05-.14-.1-.21-.15.07.05.14.1.21.15z" fill="#aec6d5"/><path d="m61.04 48.17c-.11-.08-.22-.16-.33-.24.11.08.22.16.33.24z" fill="#aec6d5"/><path d="m48.24 49.59-.08.03h-.09c.05-.01.11-.02.17-.03z" fill="#aec6d5"/><path d="m48.02 49.69c0 .08-.05.13-.13.14-.01-.09.04-.14.13-.14z" fill="#aec6d5"/><path d="m51.08 61.49c-.15.01-.3.02-.45.03.36-1.65.36-3.19-1.23-4.29 0-.06.02-.12.04-.17l.25-.25h-.01c1.2-.11 2.5-.44 3.11 1.07.75 1.8-.34 2.78-1.71 3.61z" fill="#032921"/><path d="m55.9 51.75c-.19-.97.04-1.75 1.02-2.17 1.66.52 3.2 1.12 2.1 3.36-.24.09-.48.19-.72.28-1.27.29-1.74-.75-2.4-1.47z" fill="#064133"/><path d="m59.03 52.95c1.1-2.24-.44-2.84-2.1-3.36 1.18-1.47 2.47-.74 3.76-.18.27 1.56.39 3.06-1.66 3.54z" fill="#032921"/><path d="m8.97 40.74c0 .3-.01.61-.01.91.01-.31.01-.61.01-.91z" fill="#f7b59f"/><path d="m9.35 39.27c-.05.16-.11.31-.16.47.05-.16.11-.31.16-.47z" fill="#f7b59f"/><path d="m23.26 31.39c-1.84 3.66-5.52 5.61-8.04 8.63-1.68 2.02-3.14 4.19-3.62 6.86-.02.12-.26.21-.39.31-1-.71-.26-2.12-1.14-2.88 0 0 .01-.01.01-.01.04-.07.08-.14.11-.21-.03-.19-.05-.38-.08-.57 0 0 .02-.08.02-.08l-.07-.06c-.23-5.78 3.12-9.06 7.94-11.31.24-.08.47-.16.71-.24.08-.02.15-.04.23-.06.48-.14.95-.28 1.43-.42.09-.02.17-.03.26-.05 0 0 .12.02.12.02s.12-.02.12-.02c.32 0 .65.01.97.01.39-.02.78-.04 1.17-.07.08.05.17.1.25.15z" fill="#c32e02"/><path d="m20.38 31.35c-.48.14-.95.28-1.43.42.3-.73.95-.3 1.43-.42z" fill="#f7b59f"/><path d="m27.11 32.27c-.42-.14-.83-.28-1.25-.41.44.05 1.02-.29 1.25.41z" fill="#f7b59f"/><path d="m23 31.24c-.39.02-.78.04-1.17.07.38-.3.75-.64 1.17-.07z" fill="#f7b59f"/><path d="m18.72 31.83c-.24.08-.47.16-.71.24.23-.07.47-.15.71-.24z" fill="#f7b59f"/><path d="m24.94 31.61c-.15-.09-.31-.17-.46-.26.16.08.31.17.46.26z" fill="#f7b59f"/><path d="m9.71 39.67c.02.03.05.06.05.09s-.04.05-.06.07c0-.05.01-.1.01-.16z" fill="#f7b59f"/><path d="m10.19 44.09c-.04.07-.08.14-.11.21.04-.07.08-.14.11-.21z" fill="#f7b59f"/><path d="m10.07 43.38.07.06s-.02.08-.02.08c-.03-.04-.05-.09-.05-.14z" fill="#f7b59f"/><path d="m20.87 31.3-.12.02s-.12-.02-.12-.02z" fill="#f7b59f"/><path d="m24.48 30.38c-.07.06-.15.13-.22.19.01-.07 0-.13-.05-.19.09.01.18.01.27 0z" fill="#931e02"/><path d="m36.39 42.01c-.11.03-.22.08-.32.07-.03 0-.05-.15-.08-.23.1-.03.21-.06.31-.07.02 0 .05.13.09.23z" fill="#d0e4ea"/><path d="m44.26 34.38c-.12.1-.24.19-.36.29.12-.1.24-.19.36-.29z" fill="#b9c9d8"/><path d="m24.4 86.12c-.94-.64-1.89-1.28-2.83-1.93.06-.47.58-.7.72-.42.5.99 2.79.36 2.11 2.35z" fill="#d0e4ea"/><path d="m66.98 59.95c.87.18 1.72-.61 2.6-.05-1.26 1.65-2.47 3.35-3.78 4.95-2.5 3.06-4.97 6.13-6.58 9.79-.13.29-.49.47-.74.7-.37-.84-.74-1.68-1.11-2.52.12-1.95-.26-3.88.36-5.86.97-3.07 3.23-4.68 5.87-6.02.25-.1.5-.2.75-.29.09.01.15-.02.19-.1.35-.12.69-.24 1.04-.37.38-.04.76-.09 1.14-.13.08-.04.17-.08.25-.12z" fill="#c32e02"/><path d="m60.23 79.1c-.04.06-.08.11-.12.17.05-.05.09-.1.14-.14-.01-.01-.02-.03-.02-.03z" fill="#962105"/><path d="m19.43 86.81c.05-.87.73-.71 1.28-.77.61.59 1.23 1.17 1.84 1.76-.07.74-.62.69-1.14.67-.66-.56-1.32-1.11-1.98-1.66z" fill="#d0e4ea"/><path d="m46.6 40.22c-.09 2.53-1.72 3.82-3.03 5.17-2.08 2.14-3.99 4.5-6.58 6.1-.52.32-1.08.92-1.68.5-.19-.14-.02-1.07.23-1.5 1.7-2.9 3.82-5.48 5.95-8.06 1.04-1.26 2.09-2.39 3.86-2.57.7-.08 1.1.12 1.25.36z" fill="#064133"/><path d="m33.4 45.57c-.03-.39.14-.54.52-.44-.17.15-.34.29-.52.44z" fill="#b9c9d8"/><path d="m33.93 45.12c.06-.1.12-.21.18-.31-.06.1-.12.2-.18.31z" fill="#b9c9d8"/><path d="m22.75 35.65c1.39-1.08 2.67-.74 3.38.68.84 1.67 1.23 3.6-.7 4.85-1.78 1.16-3.25.56-4.12-1.39 1.2.31 2.6 1.46 3.3-.65.6-1.79-.79-2.56-1.86-3.49z" fill="#fabfab"/><path d="m23.07 49.08c-1.77-3.93-.12-6.12 4.52-5.96.23 2.84-1.66 5.33-4.52 5.96zm-.14-2.5c-.18.72-.05 1.57.76 1.49 1.51-.14 1.06-1.69 1.47-2.62.15-.34.06-1.16-.43-1-.91.32-1.97.76-1.8 2.13z" fill="#fabfab"/><path d="m14.87 45.03c.68-1.41 1.54-2.53 3.37-2.07.25.12.51.24.76.36 1.08.73 1.5 1.83 1.32 3.04-.17 1.21-1.01 2.08-2.21 2.34-1.23.27-2.28-.23-3-1.29-.06-.24-.12-.47-.19-.71 0 0-.04-.05-.04-.05-.04-.11-.08-.22-.11-.33-.02-.28-.03-.56-.05-.83.06-.15.1-.31.15-.46zm2.66 2.67c1.37.19 1.21-1.18 1.27-1.92.08-1.04-.55-1.92-1.79-1.93-1.1-.01-1.48.8-1.39 1.68.12.99.2 2.19 1.91 2.17z" fill="#fabfab"/><path d="m23.07 49.08c2.85-.62 4.74-3.11 4.52-5.96 1.09.22 1.94.65 1.92 1.96s-.7 2.04-1.93 2.36c-.47.12-.97.23-1 .94-.03.77.65 1.89-.74 2.14-1.22.2-2.12-.43-2.77-1.44z" fill="#cc7459"/><path d="m22.75 35.65c1.07.93 2.46 1.7 1.86 3.49-.71 2.11-2.1.96-3.3.65 0 0 .01-.01.01-.01-.07-.65-.14-1.3-.22-1.95-.04-1.17.78-1.7 1.65-2.18z" fill="#fcd1c1"/><path d="m21.1 37.83c.07.65.14 1.3.22 1.95-.22-.63-.72-1.23-.22-1.95z" fill="#fabfab"/><path d="m33.3 43.82c.2.83-.32 1.06-.98 1.18.33-.4.66-.79.98-1.18z" fill="#b9c9d8"/><path d="m19.01 43.33c-.25-.12-.51-.24-.76-.36.25.12.5.24.76.36z" fill="#f7b59f"/><path d="m14.93 46.7c.06.24.12.47.19.71-.06-.23-.13-.47-.19-.71z" fill="#f7b59f"/><path d="m14.87 45.03c-.05.15-.09.3-.14.46.05-.15.09-.31.14-.46z" fill="#f7b59f"/><path d="m14.78 46.32c.04.11.08.22.11.33-.04-.11-.07-.22-.11-.33z" fill="#f7b59f"/><path d="m33.61 43.43c-.02.08-.06.13-.13.16.04-.05.09-.1.13-.16z" fill="#b9c9d8"/><path d="m71.52 76.01c-.2.9-.75 1.32-1.68 1.22-1.18-.27-1.55-1.21-1.85-2.21.32.22.91.46.9.66-.05.94.57.94 1.06.72.68-.3.89-.99.62-1.69-.23-.59-.45-1.15-.32-1.81.08-.45.35-1.16-.47-1.2-.72-.04-1.27.29-1.4 1.14-.08.58.38 1.29-.39 1.71-.29-2.01.1-3.64 2.41-4.06 1.49-.27 2.82.01 3.51 1.58.69 1.56-.32 2.32-1.53 2.58-.99.22-1.14.55-.86 1.36z" fill="#f7baa5"/><path d="m69.05 63.85c2.19.15 3.36 1.15 3.33 3.03-.03 2.03-1.61 2.8-3.32 2.77-1.84-.03-2.5-1.62-2.51-3.12-.01-1.61 1.22-2.39 2.5-2.68zm1.48 3.07c.11-1.54-.95-1.85-1.77-1.87-.99-.03-1.22.99-1.31 1.82-.14 1.24.9 1.48 1.71 1.53 1.05.06 1.23-.9 1.37-1.48z" fill="#f7baa5"/><path d="m66.48 72.87c-.23 1.75-.78 3.25-2.96 3.15-1.66-.07-2.83-1.17-2.76-2.66.1-2.1 1.76-3.11 3.75-3.02 1.29.06 2.13 1.02 1.97 2.53zm-3.52 2.18c1.25.01 1.58-.83 1.52-1.56-.07-.9-.54-1.96-1.61-1.93-.98.03-1.41.98-1.41 1.92 0 1.04.77 1.4 1.5 1.57z" fill="#f7baa5"/><path d="m67.98 74.56c.77-.42.31-1.14.39-1.71.12-.85.68-1.18 1.4-1.14.83.04.56.75.47 1.2-.12.67.09 1.22.32 1.81.27.7.06 1.39-.62 1.69-.49.22-1.11.22-1.06-.72.01-.2-.58-.44-.9-.66.01-.16 0-.32 0-.47z" fill="#fcd1c1"/><path d="m69.58 59.9c.09-.05.18-.1.27-.15-.1.05-.19.1-.27.15z" fill="#c32e02"/><path d="m65.58 60.18c-.35.12-.69.24-1.04.37.19-.58.66-.35 1.04-.37z" fill="#f7b59f"/><path d="m64.36 60.65c-.25.1-.5.2-.75.29.25-.09.5-.19.75-.29z" fill="#f7b59f"/><path d="m66.98 59.93c-.08.04-.17.08-.25.12.08-.04.17-.08.25-.12z" fill="#f7b59f"/><path d="m68.11 31.36c-.15-.06-.29-.13-.44-.19.15.06.29.13.44.19z" fill="#aec6d5"/><path d="m67.18 31.84c.09.06.18.12.27.18-.09-.06-.18-.12-.27-.18z" fill="#aec6d5"/><path d="m67.2 31.15c-.06.07-.13.13-.19.2.06-.06.12-.13.19-.2z" fill="#aec6d5"/><path d="m49.41 57.23c1.59 1.09 1.59 2.64 1.23 4.29-1.41.35-2.43-.07-2.82-1.54-.39-1.42.28-2.28 1.59-2.75z" fill="#064133"/><path d="m49.7 56.81c-.08.08-.17.17-.25.25.08-.08.16-.17.25-.25z" fill="#aec6d5"/><path d="m22.93 46.58c-.16-1.37.89-1.81 1.8-2.13.49-.17.58.65.43 1-.41.93.04 2.49-1.47 2.62-.81.08-.95-.77-.76-1.49z" fill="#fcd1c1"/><path d="m17.53 47.7c-1.71.03-1.8-1.18-1.9-2.17-.09-.88.29-1.69 1.39-1.68 1.23.01 1.87.89 1.79 1.93-.07.74.09 2.11-1.28 1.92z" fill="#fcd1c1"/><path d="m70.53 66.92c-.14.58-.32 1.54-1.37 1.48-.82-.05-1.86-.29-1.71-1.53.1-.82.32-1.85 1.31-1.82.82.02 1.88.33 1.77 1.87z" fill="#fcd1c1"/><path d="m62.96 75.05c-.72-.18-1.5-.54-1.5-1.57 0-.93.43-1.89 1.41-1.92 1.07-.03 1.54 1.03 1.61 1.93.06.74-.28 1.58-1.52 1.56z" fill="#fcd1c1"/></svg>